<?xml version="1.0" encoding="utf-8"?>
<!-- Generator: Adobe Illustrator 24.0.1, SVG Export Plug-In . SVG Version: 6.00 Build 0)  -->
<svg version="1.1" id="Capa_1" xmlns="http://www.w3.org/2000/svg" xmlns:xlink="http://www.w3.org/1999/xlink" x="0px" y="0px"
	 viewBox="0 0 151.7 102.8" style="enable-background:new 0 0 151.7 102.8;" xml:space="preserve">
<style type="text/css">
	.st0{display:none;fill-rule:evenodd;clip-rule:evenodd;fill:#C8102E;}
	.st1{fill:#FFFFFF;}
	.st2{fill-rule:evenodd;clip-rule:evenodd;fill:#FFFFFF;}
	.st3{opacity:0.502;}
	.st4{fill-rule:evenodd;clip-rule:evenodd;fill:#EDEDED;}
	.st5{fill-rule:evenodd;clip-rule:evenodd;fill:#ECECEC;}
	.st6{fill-rule:evenodd;clip-rule:evenodd;fill:#EBEBEB;}
	.st7{fill-rule:evenodd;clip-rule:evenodd;fill:#EAEAEA;}
	.st8{fill-rule:evenodd;clip-rule:evenodd;fill:#E9E9E9;}
	.st9{fill-rule:evenodd;clip-rule:evenodd;fill:#E8E8E8;}
	.st10{fill-rule:evenodd;clip-rule:evenodd;fill:#E7E7E7;}
	.st11{fill-rule:evenodd;clip-rule:evenodd;fill:#E6E6E6;}
	.st12{fill-rule:evenodd;clip-rule:evenodd;fill:#E5E5E5;}
	.st13{fill-rule:evenodd;clip-rule:evenodd;fill:#E4E4E4;}
	.st14{fill-rule:evenodd;clip-rule:evenodd;fill:#E3E3E3;}
	.st15{fill-rule:evenodd;clip-rule:evenodd;fill:#E2E2E2;}
	.st16{fill-rule:evenodd;clip-rule:evenodd;fill:#E1E1E1;}
	.st17{fill-rule:evenodd;clip-rule:evenodd;fill:#E0E0E0;}
	.st18{fill-rule:evenodd;clip-rule:evenodd;fill:#DEDEDE;}
	.st19{fill-rule:evenodd;clip-rule:evenodd;fill:#DDDDDD;}
	.st20{fill-rule:evenodd;clip-rule:evenodd;fill:#DCDCDC;}
	.st21{fill-rule:evenodd;clip-rule:evenodd;fill:#DBDBDB;}
	.st22{fill-rule:evenodd;clip-rule:evenodd;fill:#DADADA;}
	.st23{fill-rule:evenodd;clip-rule:evenodd;fill:#D9D9D9;}
	.st24{fill-rule:evenodd;clip-rule:evenodd;fill:#D8D8D8;}
	.st25{fill-rule:evenodd;clip-rule:evenodd;fill:#D7D7D7;}
	.st26{fill-rule:evenodd;clip-rule:evenodd;fill:#D6D6D6;}
	.st27{fill-rule:evenodd;clip-rule:evenodd;fill:#D5D5D5;}
	.st28{fill-rule:evenodd;clip-rule:evenodd;fill:#D4D4D4;}
	.st29{fill-rule:evenodd;clip-rule:evenodd;fill:#D3D3D3;}
	.st30{fill-rule:evenodd;clip-rule:evenodd;fill:#D2D2D2;}
	.st31{fill-rule:evenodd;clip-rule:evenodd;fill:#D1D1D1;}
	.st32{fill-rule:evenodd;clip-rule:evenodd;fill:#D0D0D0;}
	.st33{fill-rule:evenodd;clip-rule:evenodd;fill:#CFCFCF;}
	.st34{fill-rule:evenodd;clip-rule:evenodd;fill:#CECECE;}
	.st35{fill-rule:evenodd;clip-rule:evenodd;fill:#CDCDCD;}
	.st36{fill-rule:evenodd;clip-rule:evenodd;fill:#CCCCCC;}
	.st37{fill-rule:evenodd;clip-rule:evenodd;fill:#CBCBCB;}
	.st38{fill-rule:evenodd;clip-rule:evenodd;fill:#CACACA;}
	.st39{fill-rule:evenodd;clip-rule:evenodd;fill:#C9C9C9;}
	.st40{fill-rule:evenodd;clip-rule:evenodd;fill:#C8C8C8;}
	.st41{fill-rule:evenodd;clip-rule:evenodd;fill:#C7C7C7;}
	.st42{fill-rule:evenodd;clip-rule:evenodd;fill:#C6C6C6;}
	.st43{fill-rule:evenodd;clip-rule:evenodd;fill:#C5C5C5;}
	.st44{fill-rule:evenodd;clip-rule:evenodd;fill:#C4C4C4;}
	.st45{fill-rule:evenodd;clip-rule:evenodd;fill:#C2C2C2;}
	.st46{fill-rule:evenodd;clip-rule:evenodd;fill:#C1C1C1;}
	.st47{fill-rule:evenodd;clip-rule:evenodd;fill:#C0C0C0;}
	.st48{fill-rule:evenodd;clip-rule:evenodd;fill:#BFBFBF;}
	.st49{fill-rule:evenodd;clip-rule:evenodd;fill:#BEBEBE;}
	.st50{fill-rule:evenodd;clip-rule:evenodd;fill:#BDBDBD;}
	.st51{fill-rule:evenodd;clip-rule:evenodd;fill:#BCBCBC;}
	.st52{fill-rule:evenodd;clip-rule:evenodd;fill:#BBBBBB;}
	.st53{fill-rule:evenodd;clip-rule:evenodd;fill:#BABABA;}
	.st54{fill-rule:evenodd;clip-rule:evenodd;fill:#B9B9B9;}
	.st55{fill-rule:evenodd;clip-rule:evenodd;fill:#B8B8B8;}
	.st56{fill-rule:evenodd;clip-rule:evenodd;fill:#B7B7B7;}
	.st57{fill-rule:evenodd;clip-rule:evenodd;fill:#B6B6B6;}
	.st58{fill-rule:evenodd;clip-rule:evenodd;fill:#B5B5B5;}
	.st59{fill-rule:evenodd;clip-rule:evenodd;fill:#B4B4B4;}
	.st60{fill-rule:evenodd;clip-rule:evenodd;fill:#B3B3B3;}
	.st61{fill-rule:evenodd;clip-rule:evenodd;fill:#B2B2B2;}
	.st62{fill-rule:evenodd;clip-rule:evenodd;fill:#B1B1B1;}
	.st63{fill-rule:evenodd;clip-rule:evenodd;fill:#B0B0B0;}
	.st64{fill-rule:evenodd;clip-rule:evenodd;fill:#AFAFAF;}
	.st65{fill-rule:evenodd;clip-rule:evenodd;fill:#AEAEAE;}
	.st66{fill-rule:evenodd;clip-rule:evenodd;fill:#ADADAD;}
	.st67{fill-rule:evenodd;clip-rule:evenodd;fill:#ACACAC;}
	.st68{fill-rule:evenodd;clip-rule:evenodd;fill:#ABABAB;}
	.st69{fill-rule:evenodd;clip-rule:evenodd;fill:#AAAAAA;}
	.st70{fill-rule:evenodd;clip-rule:evenodd;fill:#A9A9A9;}
	.st71{fill-rule:evenodd;clip-rule:evenodd;fill:#A8A8A8;}
	.st72{fill-rule:evenodd;clip-rule:evenodd;fill:#A6A6A6;}
	.st73{fill-rule:evenodd;clip-rule:evenodd;fill:#A5A5A5;}
	.st74{fill-rule:evenodd;clip-rule:evenodd;fill:#A4A4A4;}
	.st75{fill-rule:evenodd;clip-rule:evenodd;fill:#A3A3A3;}
	.st76{fill-rule:evenodd;clip-rule:evenodd;fill:#A2A2A2;}
	.st77{fill-rule:evenodd;clip-rule:evenodd;fill:#A1A1A1;}
	.st78{fill-rule:evenodd;clip-rule:evenodd;fill:#A0A0A0;}
	.st79{fill-rule:evenodd;clip-rule:evenodd;fill:#9F9F9F;}
	.st80{fill-rule:evenodd;clip-rule:evenodd;fill:#9E9E9E;}
	.st81{fill-rule:evenodd;clip-rule:evenodd;fill:#9D9D9D;}
	.st82{fill-rule:evenodd;clip-rule:evenodd;fill:#9C9C9C;}
	.st83{fill-rule:evenodd;clip-rule:evenodd;fill:#9B9B9B;}
	.st84{fill-rule:evenodd;clip-rule:evenodd;fill:#9A9A9A;}
	.st85{fill-rule:evenodd;clip-rule:evenodd;fill:#999999;}
	.st86{fill-rule:evenodd;clip-rule:evenodd;fill:#E4DDD7;}
	.st87{fill-rule:evenodd;clip-rule:evenodd;fill:#C8102E;}
	.st88{fill-rule:evenodd;clip-rule:evenodd;fill:#D4CBBA;}
	.st89{fill-rule:evenodd;clip-rule:evenodd;fill:#B3AEA9;}
	.st90{fill-rule:evenodd;clip-rule:evenodd;fill:#CB952F;}
	.st91{fill:#CB952F;}
	.st92{fill-rule:evenodd;clip-rule:evenodd;fill:#A7A093;}
	.st93{fill-rule:evenodd;clip-rule:evenodd;fill:#FDB836;}
	.st94{fill:#FDB836;}
	.st95{fill-rule:evenodd;clip-rule:evenodd;fill:#FFFFFF;stroke:#FFFFFF;stroke-width:2;}
	.st96{fill-rule:evenodd;clip-rule:evenodd;fill:#FFFFFF;stroke:#FFFFFF;}
	.st97{opacity:0.493;}
	.st98{fill:#FEFEFE;}
	.st99{fill:#F4AF00;}
	.st100{fill:#DD9D00;}
	.st101{fill:#FFCB38;}
	.st102{fill:#1B1919;}
	.st103{fill:#C81D0E;}
</style>
<rect y="-16.2" class="st0" width="151.7" height="119"/>
<g>
	
		<image style="display:none;overflow:visible;opacity:0.36;" width="290" height="196" xlink:href="appyhourtour.png"  transform="matrix(0.4817 0 0 0.4817 6.0062 3.1147)">
	</image>
	<g>
		<path class="st1" d="M43.9,29.3h-7.7v22.9h-5.4V29.3H23v-4.2h20.8V29.3z"/>
		<path class="st1" d="M95.3,25.1v17.7c0,3.1-1,5.4-3,7.2c-2,1.7-4.7,2.6-7.9,2.6c-3.2,0-5.8-0.9-7.8-2.6c-2-1.7-3-4.1-3-7.2V25.1
			H79v17.7c0,1.8,0.5,3.2,1.5,4.2s2.3,1.4,3.9,1.4c1.7,0,3-0.5,4-1.4c1-1,1.5-2.3,1.5-4.2V25.1H95.3z"/>
		<path class="st1" d="M105.1,41.4v10.8h-5.4V25.1h9.4c3.1,0,5.5,0.7,7.3,2.1c1.7,1.4,2.6,3.4,2.6,5.9c0,1.4-0.4,2.6-1.1,3.6
			c-0.7,1-1.8,1.8-3.2,2.4c1.6,0.5,2.8,1.3,3.5,2.4c0.7,1.1,1.1,2.5,1.1,4.1v2c0,0.8,0.1,1.5,0.3,2.4s0.6,1.4,1.1,1.8v0.4h-5.6
			c-0.5-0.4-0.8-1.1-1-2s-0.2-1.8-0.2-2.7v-1.9c0-1.4-0.4-2.4-1.1-3.2c-0.7-0.8-1.8-1.1-3.1-1.1H105.1z M105.1,37.2h3.9
			c1.5,0,2.7-0.3,3.4-1c0.7-0.6,1.1-1.6,1.1-2.9c0-1.2-0.4-2.2-1.1-3c-0.8-0.7-1.9-1.1-3.3-1.1h-3.9V37.2z"/>
	</g>
	<g>
		<path class="st1" d="M40.9,13.9h-3.2L37,16.1h-2.1l3.4-10h2l3.3,10h-2.1L40.9,13.9z M38.2,12.4h2.2l-1.1-3.5h0L38.2,12.4z"/>
		<path class="st1" d="M46.6,12.5v3.6h-2v-10h3.8c1.1,0,2,0.3,2.7,0.9s1,1.4,1,2.3s-0.3,1.7-1,2.3s-1.6,0.9-2.7,0.9H46.6z
			 M46.6,10.9h1.8c0.6,0,1-0.2,1.3-0.5s0.4-0.7,0.4-1.2c0-0.5-0.1-0.9-0.4-1.2c-0.3-0.3-0.7-0.5-1.3-0.5h-1.8V10.9z"/>
		<path class="st1" d="M55.5,12.5v3.6h-2v-10h3.8c1.1,0,2,0.3,2.7,0.9s1,1.4,1,2.3s-0.3,1.7-1,2.3s-1.6,0.9-2.7,0.9H55.5z
			 M55.5,10.9h1.8c0.6,0,1-0.2,1.3-0.5S59,9.8,59,9.3c0-0.5-0.1-0.9-0.4-1.2c-0.3-0.3-0.7-0.5-1.3-0.5h-1.8V10.9z"/>
		<path class="st1" d="M66,10.7L66,10.7l2.2-4.6h2.2L67,12.6v3.5h-2v-3.6l-3.4-6.4h2.2L66,10.7z"/>
		<path class="st1" d="M78.9,16.1h-0.4v-4.8h-6.4v4.8h-0.4v-10h0.4V11h6.4V6.1h0.4V16.1z"/>
		<path class="st1" d="M88.7,11.8c0,1.3-0.3,2.4-1,3.2s-1.6,1.2-2.7,1.2c-1.2,0-2.1-0.4-2.8-1.2c-0.7-0.8-1-1.9-1-3.2v-1.5
			c0-1.3,0.3-2.4,1-3.2C82.8,6.4,83.8,6,84.9,6c1.2,0,2.1,0.4,2.8,1.2s1,1.9,1,3.2V11.8z M88.3,10.3c0-1.2-0.3-2.2-0.9-2.9
			S86,6.3,84.9,6.3c-1.1,0-1.9,0.4-2.5,1.1s-0.9,1.7-0.9,2.9v1.5c0,1.2,0.3,2.2,0.9,2.9c0.6,0.7,1.4,1.1,2.5,1.1s1.9-0.4,2.5-1.1
			s0.9-1.7,0.9-2.9V10.3z"/>
		<path class="st1" d="M97.7,6.1v6.6c0,1.1-0.3,1.9-1,2.6s-1.4,0.9-2.4,0.9c-1,0-1.8-0.3-2.5-0.9s-1-1.5-1-2.6V6.1h0.4v6.6
			c0,0.9,0.3,1.7,0.9,2.3c0.6,0.6,1.3,0.9,2.2,0.9c0.9,0,1.6-0.3,2.2-0.9c0.6-0.6,0.9-1.3,0.9-2.3V6.1H97.7z"/>
		<path class="st1" d="M100.6,11.4v4.7h-0.4v-10h3.2c1,0,1.9,0.2,2.4,0.7s0.8,1.1,0.8,2c0,0.6-0.2,1.1-0.5,1.5
			c-0.4,0.5-0.8,0.8-1.5,0.9c0.7,0.1,1.2,0.4,1.5,0.8s0.5,0.9,0.5,1.5v0.9c0,0.3,0,0.6,0.1,0.8c0.1,0.2,0.2,0.4,0.4,0.6v0.2h-0.4
			c-0.2-0.2-0.3-0.4-0.4-0.7s-0.1-0.6-0.1-0.9v-0.9c0-0.7-0.2-1.2-0.7-1.6c-0.5-0.4-1.1-0.6-2-0.6H100.6z M100.6,11h2.8
			c1,0,1.8-0.2,2.2-0.6c0.5-0.4,0.7-1,0.7-1.6c0-0.7-0.2-1.3-0.7-1.7c-0.5-0.4-1.2-0.6-2.2-0.6h-2.9V11z"/>
	</g>
	<g transform="translate(0 0.653)">
		<g transform="translate(0 6.109)">
			<path class="st2" d="M126.9,48l18.4,39l-46.7-7.9l-40.8,9.6L6.3,83.4l16.9-38.3l39.3,3.7L93,40.2L126.9,48z"/>
			<g transform="translate(35.085 40.446)" class="st3">
				<path class="st4" d="M110.2,46.6l-89.4,1.7L6,18.9l67.5,1.6L110.2,46.6z"/>
				<path class="st5" d="M110.2,46.6l-88.7,1.6L6.6,18.9l67,1.6L110.2,46.6z"/>
				<path class="st6" d="M110.2,46.6l-88,1.5l-15-29.3l66.4,1.6L110.2,46.6z"/>
				<path class="st7" d="M110.2,46.6L22.9,48L7.8,18.9l65.8,1.6L110.2,46.6z"/>
				<path class="st8" d="M110.2,46.6L23.5,48L8.3,18.9l65.2,1.6L110.2,46.6z"/>
				<path class="st9" d="M110.2,46.6l-86.1,1.2l-15.2-29l64.6,1.6L110.2,46.6z"/>
				<path class="st10" d="M110.2,46.6l-85.4,1.1L9.5,18.8l64,1.7L110.2,46.6z"/>
				<path class="st11" d="M110.2,46.6l-84.7,1L10.1,18.8l63.5,1.7L110.2,46.6z"/>
				<path class="st12" d="M110.2,46.6l-84.1,1L10.7,18.8l62.9,1.7L110.2,46.6z"/>
				<path class="st13" d="M110.2,46.6l-83.4,0.9L11.2,18.8l62.3,1.7L110.2,46.6z"/>
				<path class="st14" d="M110.2,46.6l-82.8,0.8L11.8,18.8l61.7,1.7L110.2,46.6z"/>
				<path class="st15" d="M110.2,46.6l-82.1,0.7L12.4,18.8l61.1,1.7L110.2,46.6z"/>
				<path class="st16" d="M110.2,46.6l-81.4,0.6L13,18.8l60.5,1.7L110.2,46.6z"/>
				<path class="st17" d="M110.2,46.6l-80.8,0.5L13.6,18.7l60,1.7L110.2,46.6z"/>
				<path class="st18" d="M110.2,46.6L30.1,47l-16-28.3l59.4,1.8L110.2,46.6z"/>
				<path class="st19" d="M110.2,46.6l-79.4,0.3l-16-28.2l58.8,1.8L110.2,46.6z"/>
				<path class="st20" d="M110.2,46.6l-78.8,0.2L15.3,18.7l58.2,1.8L110.2,46.6z"/>
				<path class="st21" d="M110.2,46.6l-78.1,0.1L15.9,18.7l57.6,1.8L110.2,46.6z"/>
				<path class="st22" d="M110.2,46.6l-77.5,0l-16.3-28l57,1.8L110.2,46.6z"/>
				<path class="st23" d="M110.2,46.6l-76.8,0L17.1,18.7l56.5,1.8L110.2,46.6z"/>
				<path class="st24" d="M110.2,46.6l-76.1-0.1L17.7,18.7l55.9,1.8L110.2,46.6z"/>
				<path class="st25" d="M110.2,46.6l-75.5-0.2L18.2,18.6l55.3,1.8L110.2,46.6z"/>
				<path class="st26" d="M110.2,46.6l-74.8-0.3L18.8,18.6l54.7,1.8L110.2,46.6z"/>
				<path class="st27" d="M110.2,46.6l-74.2-0.4L19.4,18.6l54.1,1.9L110.2,46.6z"/>
				<path class="st28" d="M110.2,46.6l-73.5-0.5L20,18.6l53.6,1.9L110.2,46.6z"/>
				<path class="st29" d="M110.2,46.6L37.4,46L20.6,18.6l53,1.9L110.2,46.6z"/>
				<path class="st30" d="M110.2,46.6L38,45.9L21.2,18.6l52.4,1.9L110.2,46.6z"/>
				<path class="st31" d="M110.2,46.6l-71.5-0.8l-17-27.3l51.8,1.9L110.2,46.6z"/>
				<path class="st32" d="M110.2,46.6l-70.9-0.9l-17-27.2l51.2,1.9L110.2,46.6z"/>
				<path class="st33" d="M110.2,46.6l-70.2-1L22.9,18.6l50.6,1.9L110.2,46.6z"/>
				<path class="st34" d="M110.2,46.6l-69.5-1l-17.2-27l50.1,1.9L110.2,46.6z"/>
				<path class="st35" d="M110.2,46.6l-68.9-1.1l-17.3-27l49.5,2L110.2,46.6z"/>
				<path class="st36" d="M110.2,46.6L42,45.4L24.6,18.5l48.9,2L110.2,46.6z"/>
				<path class="st37" d="M110.2,46.6l-67.6-1.3L25.2,18.5l48.3,2L110.2,46.6z"/>
				<path class="st38" d="M110.2,46.6l-66.9-1.4L25.8,18.5l47.7,2L110.2,46.6z"/>
				<path class="st39" d="M110.2,46.6L44,45.1L26.4,18.5l47.1,2L110.2,46.6z"/>
				<path class="st40" d="M110.2,46.6L44.6,45L27,18.5l46.6,2L110.2,46.6z"/>
				<path class="st41" d="M110.2,46.6l-64.9-1.7L27.6,18.5l46,2L110.2,46.6z"/>
				<path class="st42" d="M110.2,46.6L46,44.9L28.1,18.4l45.4,2L110.2,46.6z"/>
				<path class="st43" d="M110.2,46.6l-63.6-1.9L28.7,18.4l44.8,2.1L110.2,46.6z"/>
				<path class="st44" d="M110.2,46.6l-62.9-2l-18-26.2l44.2,2.1L110.2,46.6z"/>
				<path class="st45" d="M110.2,46.6l-62.3-2.1l-18-26.2l43.6,2.1L110.2,46.6z"/>
				<path class="st46" d="M110.2,46.6l-61.6-2.1L30.5,18.4l43.1,2.1L110.2,46.6z"/>
				<path class="st47" d="M110.2,46.6l-61-2.2l-18.2-26l42.5,2.1L110.2,46.6z"/>
				<path class="st48" d="M110.2,46.6l-60.3-2.3L31.6,18.4l41.9,2.1L110.2,46.6z"/>
				<path class="st49" d="M110.2,46.6l-59.6-2.4L32.2,18.4l41.3,2.1L110.2,46.6z"/>
				<path class="st50" d="M110.2,46.6l-59-2.5L32.8,18.3l40.7,2.1L110.2,46.6z"/>
				<path class="st51" d="M110.2,46.6L51.9,44L33.4,18.3l40.2,2.1L110.2,46.6z"/>
				<path class="st52" d="M110.2,46.6l-57.7-2.7L34,18.3l39.6,2.2L110.2,46.6z"/>
				<path class="st53" d="M110.2,46.6l-57-2.8L34.6,18.3l39,2.2L110.2,46.6z"/>
				<path class="st54" d="M110.2,46.6l-56.3-2.9L35.1,18.3l38.4,2.2L110.2,46.6z"/>
				<path class="st55" d="M110.2,46.6l-55.7-3L35.7,18.3l37.8,2.2L110.2,46.6z"/>
				<path class="st56" d="M110.2,46.6l-55-3.1L36.3,18.3l37.2,2.2L110.2,46.6z"/>
				<path class="st57" d="M110.2,46.6l-54.4-3.1l-19-25.2l36.7,2.2L110.2,46.6z"/>
				<path class="st58" d="M110.2,46.6l-53.7-3.2L37.5,18.3l36.1,2.2L110.2,46.6z"/>
				<path class="st59" d="M110.2,46.6l-53-3.3L38,18.2l35.5,2.2L110.2,46.6z"/>
				<path class="st60" d="M110.2,46.6l-52.4-3.4l-19.2-25l34.9,2.3L110.2,46.6z"/>
				<path class="st61" d="M110.2,46.6l-51.7-3.5L39.2,18.2l34.3,2.3L110.2,46.6z"/>
				<path class="st62" d="M110.2,46.6L59.2,43L39.8,18.2l33.7,2.3L110.2,46.6z"/>
				<path class="st63" d="M110.2,46.6l-50.4-3.7L40.4,18.2l33.2,2.3L110.2,46.6z"/>
				<path class="st64" d="M110.2,46.6l-49.7-3.8L41,18.2l32.6,2.3L110.2,46.6z"/>
				<path class="st65" d="M110.2,46.6l-49.1-3.9L41.5,18.2l32,2.3L110.2,46.6z"/>
				<path class="st66" d="M110.2,46.6l-48.4-4L42.1,18.2l31.4,2.3L110.2,46.6z"/>
				<path class="st67" d="M110.2,46.6l-47.8-4.1L42.7,18.1l30.8,2.3L110.2,46.6z"/>
				<path class="st68" d="M110.2,46.6l-47.1-4.2L43.3,18.1l30.2,2.4L110.2,46.6z"/>
				<path class="st69" d="M110.2,46.6l-46.4-4.2L43.9,18.1l29.7,2.4L110.2,46.6z"/>
				<path class="st70" d="M110.2,46.6l-45.8-4.3l-20-24.2l29.1,2.4L110.2,46.6z"/>
				<path class="st71" d="M110.2,46.6l-45.1-4.4L45,18.1l28.5,2.4L110.2,46.6z"/>
				<path class="st72" d="M110.2,46.6l-44.5-4.5l-20.1-24l27.9,2.4L110.2,46.6z"/>
				<path class="st73" d="M110.2,46.6L66.4,42L46.2,18.1l27.3,2.4L110.2,46.6z"/>
				<path class="st74" d="M110.2,46.6l-43.1-4.7L46.8,18.1l26.8,2.4L110.2,46.6z"/>
				<path class="st75" d="M110.2,46.6l-42.5-4.8L47.4,18l26.2,2.4L110.2,46.6z"/>
				<path class="st76" d="M110.2,46.6l-41.8-4.9L48,18l25.6,2.4L110.2,46.6z"/>
				<path class="st77" d="M110.2,46.6l-41.2-5L48.5,18l25,2.5L110.2,46.6z"/>
				<path class="st78" d="M110.2,46.6l-40.5-5.1L49.1,18l24.4,2.5L110.2,46.6z"/>
				<path class="st79" d="M110.2,46.6l-39.8-5.2L49.7,18l23.8,2.5L110.2,46.6z"/>
				<path class="st80" d="M110.2,46.6l-39.2-5.2L50.3,18l23.3,2.5L110.2,46.6z"/>
				<path class="st81" d="M110.2,46.6l-38.5-5.3L50.9,18l22.7,2.5L110.2,46.6z"/>
				<path class="st82" d="M110.2,46.6l-37.8-5.4L51.4,18l22.1,2.5L110.2,46.6z"/>
				<path class="st83" d="M110.2,46.6L73,41.1L52,18l21.5,2.5L110.2,46.6z"/>
				<path class="st84" d="M110.2,46.6L73.7,41L52.6,17.9l20.9,2.5L110.2,46.6z"/>
				<path class="st85" d="M110.2,46.6l-35.9-5.7l-21.2-23l20.3,2.6L110.2,46.6z"/>
			</g>
			<g transform="translate(2.933 52.699)" class="st3">
				<path class="st4" d="M55,36.3L6,37.7l10-19l35.3,0.8L55,36.3z"/>
				<path class="st5" d="M55,36.3L6.4,37.7l9.9-19l35,0.8L55,36.3z"/>
				<path class="st6" d="M55,36.3L6.8,37.6l9.8-18.9l34.6,0.8C52.5,25.1,53.7,30.7,55,36.3z"/>
				<path class="st7" d="M55,36.3L7.2,37.5L17,18.7l34.3,0.8C52.5,25.1,53.7,30.7,55,36.3z"/>
				<path class="st8" d="M55,36.3L7.6,37.5l9.6-18.8l34,0.8C52.5,25.1,53.7,30.7,55,36.3z"/>
				<path class="st9" d="M55,36.3L8.1,37.4l9.5-18.7l33.7,0.8L55,36.3z"/>
				<path class="st10" d="M55,36.3l-46.5,1l9.4-18.7l33.4,0.9C52.5,25.1,53.7,30.7,55,36.3z"/>
				<path class="st11" d="M55,36.3l-46.1,1l9.4-18.6l33,0.9L55,36.3z"/>
				<path class="st12" d="M55,36.3L9.3,37.2l9.3-18.6l32.7,0.9L55,36.3z"/>
				<path class="st13" d="M55,36.3L9.7,37.2l9.2-18.5l32.4,0.9L55,36.3z"/>
				<path class="st14" d="M55,36.3l-44.9,0.8l9.1-18.5l32.1,0.9L55,36.3z"/>
				<path class="st15" d="M55,36.3l-44.5,0.7l9-18.4l31.8,0.9L55,36.3z"/>
				<path class="st16" d="M55,36.3L10.9,37l8.9-18.4l31.4,0.9L55,36.3z"/>
				<path class="st17" d="M55,36.3l-43.6,0.6l8.8-18.3l31.1,0.9C52.5,25.1,53.7,30.7,55,36.3z"/>
				<path class="st18" d="M55,36.3l-43.2,0.5l8.7-18.3l30.8,0.9L55,36.3z"/>
				<path class="st19" d="M55,36.3l-42.8,0.5l8.6-18.2l30.5,0.9C52.5,25.1,53.7,30.7,55,36.3z"/>
				<path class="st20" d="M55,36.3l-42.4,0.4l8.5-18.2l30.2,0.9C52.5,25.1,53.7,30.7,55,36.3z"/>
				<path class="st21" d="M55,36.3l-42,0.4l8.5-18.1l29.8,1L55,36.3z"/>
				<path class="st22" d="M55,36.3l-41.6,0.3l8.4-18.1l29.5,1L55,36.3z"/>
				<path class="st23" d="M55,36.3l-41.2,0.2l8.3-18l29.2,1L55,36.3z"/>
				<path class="st24" d="M55,36.3l-40.8,0.2l8.2-18l28.9,1C52.5,25.1,53.7,30.7,55,36.3z"/>
				<path class="st25" d="M55,36.3l-40.4,0.1l8.1-17.9l28.6,1C52.5,25.1,53.7,30.7,55,36.3z"/>
				<path class="st26" d="M55,36.3l-40,0.1l8-17.9l28.2,1L55,36.3z"/>
				<path class="st27" d="M55,36.3l-39.5,0l7.9-17.8l27.9,1L55,36.3z"/>
				<path class="st28" d="M55,36.3l-39.1-0.1l7.8-17.8l27.6,1L55,36.3z"/>
				<path class="st29" d="M55,36.3l-38.7-0.1L24,18.5l27.3,1L55,36.3z"/>
				<path class="st30" d="M55,36.3l-38.3-0.2l7.6-17.7l27,1C52.5,25.1,53.7,30.7,55,36.3z"/>
				<path class="st31" d="M55,36.3l-37.9-0.3l7.6-17.6l26.6,1.1L55,36.3z"/>
				<path class="st32" d="M55,36.3L17.5,36L25,18.4l26.3,1.1L55,36.3z"/>
				<path class="st33" d="M55,36.3l-37.1-0.4l7.4-17.5l26,1.1L55,36.3z"/>
				<path class="st34" d="M55,36.3l-36.7-0.4l7.3-17.5l25.7,1.1L55,36.3z"/>
				<path class="st35" d="M55,36.3l-36.3-0.5l7.2-17.4l25.4,1.1L55,36.3z"/>
				<path class="st36" d="M55,36.3l-35.9-0.6l7.1-17.4l25,1.1C52.5,25.1,53.7,30.7,55,36.3z"/>
				<path class="st37" d="M55,36.3l-35.4-0.6l7-17.3l24.7,1.1L55,36.3z"/>
				<path class="st38" d="M55,36.3l-35-0.7l6.9-17.3l24.4,1.1L55,36.3z"/>
				<path class="st39" d="M55,36.3l-34.6-0.7l6.8-17.2l24.1,1.1C52.5,25.1,53.7,30.7,55,36.3z"/>
				<path class="st40" d="M55,36.3l-34.2-0.8l6.7-17.1l23.8,1.1C52.5,25.1,53.7,30.7,55,36.3z"/>
				<path class="st41" d="M55,36.3l-33.8-0.9l6.7-17.1l23.4,1.2C52.5,25.1,53.7,30.7,55,36.3z"/>
				<path class="st42" d="M55,36.3l-33.4-0.9l6.6-17l23.1,1.2L55,36.3z"/>
				<path class="st43" d="M55,36.3l-33-1l6.5-17l22.8,1.2L55,36.3z"/>
				<path class="st44" d="M55,36.3l-32.6-1.1l6.4-16.9l22.5,1.2L55,36.3z"/>
				<path class="st45" d="M55,36.3l-32.2-1.1l6.3-16.9l22.2,1.2L55,36.3z"/>
				<path class="st46" d="M55,36.3l-31.8-1.2l6.2-16.8l21.8,1.2L55,36.3z"/>
				<path class="st47" d="M55,36.3l-31.3-1.2l6.1-16.8l21.5,1.2L55,36.3z"/>
				<path class="st48" d="M55,36.3L24,35l6-16.7l21.2,1.2C52.5,25.1,53.7,30.7,55,36.3z"/>
				<path class="st49" d="M55,36.3L24.5,35l5.9-16.7l20.9,1.2C52.5,25.1,53.7,30.7,55,36.3z"/>
				<path class="st50" d="M55,36.3l-30.1-1.4l5.8-16.6l20.6,1.2C52.5,25.1,53.7,30.7,55,36.3z"/>
				<path class="st51" d="M55,36.3l-29.7-1.5L31,18.3l20.2,1.3L55,36.3z"/>
				<path class="st52" d="M55,36.3l-29.3-1.5l5.7-16.5l19.9,1.3L55,36.3z"/>
				<path class="st53" d="M55,36.3l-28.9-1.6l5.6-16.5l19.6,1.3L55,36.3z"/>
				<path class="st54" d="M55,36.3l-28.5-1.7L32,18.2l19.3,1.3L55,36.3z"/>
				<path class="st55" d="M55,36.3l-28.1-1.7l5.4-16.4l19,1.3L55,36.3z"/>
				<path class="st56" d="M55,36.3l-27.7-1.8l5.3-16.3l18.6,1.3L55,36.3z"/>
				<path class="st57" d="M55,36.3l-27.2-1.9L33,18.2l18.3,1.3L55,36.3z"/>
				<path class="st58" d="M55,36.3l-26.8-1.9l5.1-16.2l18,1.3L55,36.3z"/>
				<path class="st59" d="M55,36.3l-26.4-2l5-16.2l17.7,1.3L55,36.3z"/>
				<path class="st60" d="M55,36.3l-26-2l4.9-16.1l17.4,1.3L55,36.3z"/>
				<path class="st61" d="M55,36.3l-25.6-2.1l4.9-16.1l17,1.4C52.5,25.1,53.7,30.7,55,36.3z"/>
				<path class="st62" d="M55,36.3l-25.2-2.2l4.8-16l16.7,1.4L55,36.3z"/>
				<path class="st63" d="M55,36.3l-24.8-2.2l4.7-16l16.4,1.4L55,36.3z"/>
				<path class="st64" d="M55,36.3L30.6,34c1.5-5.3,3.1-10.6,4.6-15.9l16.1,1.4L55,36.3z"/>
				<path class="st65" d="M55,36.3L31,34l4.5-15.9l15.8,1.4L55,36.3z"/>
				<path class="st66" d="M55,36.3l-23.6-2.4l4.4-15.8l15.4,1.4L55,36.3z"/>
				<path class="st67" d="M55,36.3l-23.1-2.5l4.3-15.8l15.1,1.4L55,36.3z"/>
				<path class="st68" d="M55,36.3l-22.7-2.5l4.2-15.7l14.8,1.4L55,36.3z"/>
				<path class="st69" d="M55,36.3l-22.3-2.6l4.1-15.7l14.5,1.4L55,36.3z"/>
				<path class="st70" d="M55,36.3l-21.9-2.6l4-15.6l14.2,1.4L55,36.3z"/>
				<path class="st71" d="M55,36.3l-21.5-2.7l4-15.5l13.8,1.4L55,36.3z"/>
				<path class="st72" d="M55,36.3l-21.1-2.8l3.9-15.5l13.5,1.5L55,36.3z"/>
				<path class="st73" d="M55,36.3l-20.7-2.8L38.1,18l13.2,1.5L55,36.3z"/>
				<path class="st74" d="M55,36.3l-20.3-2.9L38.4,18l12.9,1.5C52.5,25.1,53.7,30.7,55,36.3z"/>
				<path class="st75" d="M55,36.3l-19.9-3L38.7,18l12.6,1.5L55,36.3z"/>
				<path class="st76" d="M55,36.3l-19.5-3L39,18l12.2,1.5L55,36.3z"/>
				<path class="st77" d="M55,36.3l-19-3.1L39.4,18l11.9,1.5L55,36.3z"/>
				<path class="st78" d="M55,36.3l-18.6-3.1L39.7,18l11.6,1.5L55,36.3z"/>
				<path class="st79" d="M55,36.3l-18.2-3.2L40,18l11.3,1.5L55,36.3z"/>
				<path class="st80" d="M55,36.3l-17.8-3.3c1-5,2.1-10.1,3.1-15.1l11,1.5C52.5,25.1,53.7,30.7,55,36.3z"/>
				<path class="st81" d="M55,36.3L37.6,33l3.1-15l10.6,1.5L55,36.3z"/>
				<path class="st82" d="M55,36.3l-17-3.4c1-5,2-10,3-15l10.3,1.6L55,36.3z"/>
				<path class="st83" d="M55,36.3l-16.6-3.4l2.9-14.9l10,1.6L55,36.3z"/>
				<path class="st84" d="M55,36.3l-16.2-3.5l2.8-14.9l9.7,1.6L55,36.3z"/>
				<path class="st85" d="M55,36.3l-15.8-3.6l2.7-14.8l9.4,1.6L55,36.3z"/>
			</g>
			<path class="st40" d="M62.5,48.5l-39.4-3.7L6,83.6L57.9,89l40.8-9.6l47,7.9l-18.6-39.5l-34-7.9L62.5,48.5z"/>
			<path class="st2" d="M98.7,79.2c7.8,1.3,15.6,2.6,23.3,3.9l23.3,3.9c-3.1-6.5-6.1-13-9.2-19.5c-3.1-6.5-6.1-13-9.2-19.5
				c-5.6-1.3-11.3-2.6-16.9-3.9S98.7,41.5,93,40.2c0.9,6.5,1.9,13,2.8,19.5C96.8,66.2,97.7,72.7,98.7,79.2z"/>
			<path class="st86" d="M98.5,78.1l21.9,3.7c7.3,1.2,14.6,2.5,21.8,3.7c-2.8-6.1-5.6-12.3-8.4-18.4s-5.6-12.3-8.4-18.5
				c-5.4-1.2-10.8-2.5-16.2-3.7s-10.8-2.5-16.2-3.7c0.9,6.2,1.8,12.3,2.7,18.5L98.5,78.1z"/>
			<path class="st2" d="M97.7,72.8c2.8,1.4,5.7,2.7,8.6,4.1c2.9,1.4,5.9,2.7,8.9,4.1c-1.7-0.3-3.5-0.6-5.2-0.9
				c-2.1-0.9-4.1-1.9-6.1-2.8s-4-1.9-6-2.8C97.9,73.9,97.8,73.3,97.7,72.8z"/>
			<path class="st2" d="M95.5,57.2c6.2,1.2,12.4,2.5,18.6,3.7c6.2,1.2,12.4,2.5,18.6,3.7c0.2,0.4,0.4,0.9,0.6,1.3
				c-6.3-1.2-12.5-2.5-18.8-3.7c-6.3-1.2-12.5-2.5-18.8-3.7C95.6,58,95.5,57.6,95.5,57.2z"/>
			<path class="st2" d="M95.7,58.5c1.8,0,3.5,0,5.2,0c0.6,0.5,1.2,0.9,1.8,1.4c-2.2,0-4.5,0-6.8,0C95.8,59.4,95.7,59,95.7,58.5z"/>
			<path class="st2" d="M102.2,76.7c-0.7-0.5-1.3-0.9-2-1.4c4.6-0.4,9-0.8,13.4-1.2c4.3-0.4,8.5-0.8,12.6-1.2
				c0.7,0.5,1.4,0.9,2.1,1.4c-4.1,0.4-8.4,0.8-12.7,1.2C111.3,75.9,106.8,76.3,102.2,76.7z"/>
			<path class="st2" d="M116.4,74c-0.3,0.3-0.5,0.7-0.8,1c-3.1-1.1-6.3-2.3-9.4-3.4c-3.1-1.1-6.1-2.3-9.1-3.4c0-0.1,0-0.2-0.1-0.3
				c0.3-0.3,0.5-0.5,0.7-0.8c3,1.2,6.1,2.3,9.2,3.5C110,71.7,113.2,72.9,116.4,74z"/>
			<path class="st2" d="M135.5,70.8c-4.7-1.3-9.3-2.6-14-3.8c-4.6-1.3-9.2-2.6-13.7-3.8c0-0.4,0-0.8,0-1.2c4.4,1.3,8.9,2.5,13.4,3.8
				c4.5,1.3,9.1,2.5,13.7,3.8C135.1,69.9,135.3,70.3,135.5,70.8z"/>
			<path class="st2" d="M113.5,69.3c-0.6-0.5-1.3-0.9-2-1.4c1.7-0.3,3.3-0.6,5-0.9c1.6-0.3,3.2-0.6,4.8-0.9c0.7,0.5,1.3,0.9,2,1.4
				c-1.6,0.3-3.2,0.6-4.8,0.9C116.9,68.7,115.2,69,113.5,69.3z"/>
			<path class="st2" d="M93.9,46.6c5.6,0.7,11,1.3,16.5,2c5.4,0.7,10.7,1.3,15.9,2c0.2,0.4,0.4,0.9,0.6,1.3
				c-5.3-0.7-10.7-1.3-16.1-2c-5.5-0.7-11.1-1.3-16.7-2C94.1,47.5,94,47,93.9,46.6z"/>
			<path class="st2" d="M113.1,60.6c-0.2,0.3-0.5,0.7-0.7,1c-3.2-2-6.3-4-9.3-6c-3-2-5.9-4-8.7-6c-0.1-0.6-0.2-1.2-0.3-1.7
				c3,2.1,6,4.2,9.2,6.3C106.5,56.3,109.8,58.4,113.1,60.6z"/>
			<path class="st2" d="M102,54.5c-0.7-0.5-1.4-1-2.1-1.5c5,0.5,9.9,1.1,14.7,1.6c4.8,0.5,9.6,1.1,14.3,1.6c0.2,0.4,0.4,0.9,0.6,1.3
				c-4.5-0.5-9-1-13.6-1.5C111.3,55.5,106.6,55,102,54.5z"/>
			<path class="st2" d="M132.8,64.7c-5.4-3.5-10.6-7-15.5-10.5c-4.8-3.5-9.4-7-13.8-10.5c0.9,0.2,1.7,0.4,2.6,0.6
				c4,3.1,8,6.3,12.3,9.3c4.4,3.1,8.9,6.2,13.6,9.3L132.8,64.7z"/>
			<path class="st2" d="M108.9,58.8c-0.8-0.5-1.5-1-2.2-1.5c3.2,0.3,6.3,0.6,9.5,1l9.3,0.9c0.8,0.5,1.6,1,2.4,1.5
				c-3.1-0.3-6.2-0.6-9.4-0.9C115.3,59.5,112.1,59.1,108.9,58.8z"/>
			<path class="st2" d="M94.6,51.3c2.2,0.5,4.4,0.9,6.6,1.4c1,0.7,2.1,1.4,3.1,2l-4.8-1c-1.6-0.3-3.2-0.7-4.8-1
				C94.8,52.3,94.7,51.8,94.6,51.3z"/>
			<path class="st2" d="M93.4,42.6c2,0.3,3.9,0.5,5.9,0.8s3.9,0.5,5.8,0.8c0.7,0.5,1.4,1,2,1.5c-2.2-0.3-4.5-0.6-6.7-0.9
				c-2.3-0.3-4.5-0.6-6.8-0.9C93.5,43.4,93.4,43,93.4,42.6z"/>
			<path class="st2" d="M97.1,66.7c-0.1,0.1-0.2,0.2-0.2,0.2c0-0.1,0-0.2-0.1-0.4C96.9,66.6,97,66.7,97.1,66.7z"/>
			<path class="st87" d="M100.7,54c3,2,6.2,4.1,9.3,6.1c-2.4-0.5-4.9-0.3-7.3-0.7s-4.8-1.5-7.3-2c-0.2-1.5-0.5-3.1-0.7-4.6
				C96.8,53.2,98.8,53.6,100.7,54z"/>
			<path class="st87" d="M119.6,66.4c-2.6,0.5-5.3,1-8.1,1.5c-2.8-1-6.1-2.3-8.9-3.3c1.6-0.6,3.6-0.9,5.2-1.5
				c1.9,0.6,3.9,1.1,5.9,1.6C115.7,65.3,117.6,65.8,119.6,66.4z"/>
			<path class="st88" d="M94.2,47.9c1.2,0.8,2.4,1.7,3.6,2.5c2.7,0.3,5.4,0.6,8.1,0.9c-1.1-0.8-2.1-1.6-3.2-2.5
				C99.9,48.6,97.1,48.2,94.2,47.9z"/>
			<path class="st87" d="M126.8,74.4c-1.8,0.2-3.6,0.4-5.5,0.5c-1.9,0.2-3.7,0.3-5.6,0.5c2.1,1,4.3,2,6.5,3c1.9-0.3,3.8-0.6,5.6-0.9
				c1.8-0.3,3.6-0.6,5.4-0.9C131.1,75.9,128.9,75.2,126.8,74.4z"/>
			<path class="st87" d="M113.8,50.2c2.3,1.7,4.6,3.3,6.9,5c2.7,0.3,5.5,0.6,8.2,0.9c-0.7-1.4-1.3-2.9-2-4.3
				c-2.2-0.3-4.3-0.5-6.5-0.8S116,50.5,113.8,50.2z"/>
			<path class="st2" d="M110.7,54.4c1,0.1,2,0.2,3,0.3c2,1.5,4,3,6,4.5c2.1,1.5,4.2,3,6.3,4.5l-3.4-0.5c-2.1-1.5-4.1-3-6.1-4.4
				C114.6,57.4,112.6,55.9,110.7,54.4z"/>
			<path class="st88" d="M120.6,56.5c1.2,0.9,2.5,1.7,3.7,2.6c-1.9-0.2-3.7-0.4-5.6-0.6c-1.2-0.9-2.3-1.7-3.4-2.6
				C117,56.1,118.8,56.3,120.6,56.5z"/>
			<g transform="translate(51.893 22.251)">
				<path class="st40" d="M6,66.5c6.8-1.6,13.6-3.2,20.4-4.8S40,58.6,46.8,57c-0.5-3.3-1-6.6-1.4-9.9c-0.6,1.4-1,2.9-1.3,4.4
					c-1,0.2-2,0.3-2.9,0.5c0.6-3.1,1.8-6.1,3.7-8.6l0.2,1.4l-1.1-7.3c-0.9-6.5-1.9-13-2.8-19.5C36,19.4,31,20.8,25.9,22.2
					s-10.2,2.9-15.2,4.3c-0.8,6.7-1.6,13.3-2.3,20C7.6,53.2,6.8,59.9,6,66.5z"/>
				<path class="st89" d="M6.1,65.4c6.7-1.6,13.5-3.2,20.2-4.8s13.5-3.2,20.2-4.8c-0.4-2.9-0.9-5.9-1.3-8.8c-0.6,1.4-1,2.9-1.3,4.4
					c-1,0.2-2,0.3-2.9,0.5c0.6-3.1,1.8-6.1,3.7-8.6l-0.9-5.9c-0.9-6.1-1.8-12.3-2.7-18.5c-5.1,1.4-10.2,2.9-15.4,4.3
					c-5.1,1.4-10.2,2.9-15.4,4.3c-0.7,6.3-1.5,12.6-2.2,18.9S6.9,59.1,6.1,65.4z"/>
				<path class="st40" d="M8.5,44.8c5.7,1,11.6,2,17.7,3c5,0.8,10.1,1.5,15.4,2.2c-0.1,0.5-0.3,1-0.4,1.6c-5.1-0.7-10.1-1.4-15-2.1
					c-6.2-0.9-12.1-1.9-17.9-3C8.4,45.9,8.5,45.3,8.5,44.8L8.5,44.8z M44.3,50.3l1.6,0.2c0.1,0.6,0.2,1.1,0.2,1.7
					c-1.2-0.2-2.3-0.3-3.5-0.5l1.5-0.3C44.1,51.1,44.2,50.7,44.3,50.3L44.3,50.3z"/>
				<path class="st40" d="M8.6,43.9c5.8-1.5,11.6-3,17.5-4.5s11.6-3,17.5-4.5c0.1,0.4,0.1,0.9,0.2,1.3c-5.9,1.5-11.8,3-17.6,4.5
					L8.5,45.3C8.5,44.8,8.6,44.4,8.6,43.9z"/>
				<path class="st90" d="M8.1,48.3c3-1.3,5.2-3.2,5.3-5s-1.7-2.6-4.5-2.4C8.7,43.4,8.4,45.8,8.1,48.3z"/>
				<path class="st87" d="M8.3,46.9c1.6-0.8,2.7-2,2.8-3s-0.8-1.6-2.3-1.7L8.3,46.9z"/>
				<path class="st40" d="M21.2,48.6c-0.5-0.2-1-0.5-1.4-0.7C23.9,46,28,44,32,42.1c4-1.9,7.9-3.9,11.7-5.8c0.1,0.5,0.1,0.9,0.2,1.4
					c-3.7,1.8-7.4,3.7-11.2,5.5C29,45,25.1,46.8,21.2,48.6z"/>
				<path class="st40" d="M9.5,36.9c5.6-2.1,11.1-4.2,16.5-6.3c5.4-2.1,10.8-4.2,16-6.2c0.1,0.4,0.1,0.9,0.2,1.3
					c-5.3,2.1-10.8,4.2-16.2,6.3c-5.5,2.1-11.1,4.2-16.7,6.3C9.4,37.8,9.4,37.3,9.5,36.9z"/>
				<path class="st40" d="M33.6,28.3c-0.6,0.4-1.2,0.8-1.9,1.1c-2.1-0.7-4.1-1.4-6-2.2c-1.9-0.7-3.8-1.5-5.7-2.2l2.7-0.8
					c1.7,0.7,3.5,1.4,5.3,2C29.8,26.9,31.7,27.6,33.6,28.3z"/>
				<path class="st40" d="M35.5,37.4c-0.7,0.4-1.4,0.8-2.1,1.2c-0.7-3.1-1.4-6.3-2.1-9.4c0.7-0.4,1.3-0.8,1.9-1.2
					C34,31.2,34.7,34.3,35.5,37.4z"/>
				<path class="st40" d="M31.9,33.5c0-0.5,0.1-1,0.1-1.5l5.4-1.4l5.4-1.4c0.1,0.5,0.1,1,0.2,1.4c-1.8,0.5-3.7,1-5.5,1.5
					C35.6,32.5,33.7,33,31.9,33.5z"/>
				<path class="st40" d="M9.3,38.3c4-1.1,8-2.2,12-3.3c4-1.1,8-2.2,12-3.4c0.1,0.5,0.3,0.9,0.4,1.4c-4.1,1.1-8.2,2.3-12.3,3.4
					c-4.1,1.1-8.2,2.3-12.3,3.4C9.2,39.3,9.2,38.8,9.3,38.3z"/>
				<path class="st40" d="M27.7,40c-0.9,0.1-1.8,0.3-2.7,0.4c0-1.8,0-3.7,0.1-5.5c0.9-0.1,1.7-0.2,2.6-0.3
					C27.7,36.4,27.7,38.2,27.7,40z"/>
				<path class="st40" d="M18.9,42.1c-0.9,0.1-1.8,0.3-2.7,0.4c0.1-1.8,0.3-3.7,0.4-5.6c0.9-0.1,1.7-0.2,2.6-0.3
					C19.2,38.5,19,40.3,18.9,42.1z"/>
				<path class="st40" d="M27.1,27.1c-0.5-0.2-1.1-0.5-1.6-0.7c2.7-1,5.4-2,8-3c2.7-1,5.3-2,7.9-3c0.1,0.4,0.1,0.9,0.2,1.3
					c-2.4,0.9-4.8,1.8-7.2,2.7S29.5,26.2,27.1,27.1z"/>
				<path class="st40" d="M7.2,56.6c4-1.3,8.1-2.5,12.1-3.8c4-1.3,8-2.5,11.9-3.8c0,0.4,0,0.9-0.1,1.3c-4,1.3-8,2.5-12,3.8
					c-4,1.3-8,2.5-12.1,3.8C7.1,57.5,7.1,57.1,7.2,56.6z"/>
				<path class="st40" d="M35,53.7c-1.1,0.4-2.3,0.9-3.5,1.3c-1.8-0.3-3.7-0.7-5.5-1c-1.8-0.3-3.6-0.7-5.3-1l3.4-1.3
					c1.8,0.4,3.6,0.7,5.4,1C31.3,53,33.2,53.4,35,53.7z"/>
				<path class="st91" d="M44.8,43.4c-1.9,2.6-3.1,5.5-3.7,8.6c1-0.2,2-0.3,2.9-0.5c0.2-1.5,0.7-3,1.3-4.4
					C45.2,45.8,45,44.6,44.8,43.4z"/>
				<path class="st40" d="M45,44.7L45,44.7l0-0.3C45,44.5,45,44.6,45,44.7L45,44.7z M43.4,45.7c-2.2-0.2-4.5-0.4-6.7-0.6
					c-2.5-0.2-5-0.5-7.4-0.7c0.3-0.5,0.6-1,0.9-1.5c2.4,0.2,4.8,0.5,7.3,0.7c2.2,0.2,4.5,0.4,6.8,0.6C43.9,44.7,43.6,45.2,43.4,45.7
					L43.4,45.7z"/>
				<path class="st40" d="M34.1,58.8c-1-1.3-2-2.5-3-3.8c0.9-0.4,1.8-0.8,2.7-1.2c1.1,1.4,2.3,2.9,3.5,4.3
					C36.3,58.3,35.2,58.6,34.1,58.8z"/>
				<path class="st40" d="M7.9,50.6c2.4-0.6,4.8-1.2,7.3-1.8c2.4-0.6,4.8-1.2,7.3-1.8l0.4,1.4c-2.5,0.6-5,1.3-7.5,1.9
					c-2.5,0.6-5,1.2-7.5,1.9C7.7,51.6,7.8,51.1,7.9,50.6z"/>
				<path class="st87" d="M32.8,49.9c-1.7,0.5-5.2,1.6-6.9,2.2c2.4,0.5,4.8,0.9,7.3,1.4c2.2-0.7,4.4-1.3,6.6-2
					C36.9,51.1,35.7,50.2,32.8,49.9z"/>
				<path class="st87" d="M43.6,34.9c-2.7,0.7-5.5,1.4-8.2,2.1c-0.4-1.4-0.7-2.9-1-4.3c1.4-0.4,2.9-0.7,4.3-1.1s2.9-0.7,4.3-1.1
					L43.6,34.9z"/>
				<path class="st92" d="M25,35.4c0,1.4,0,2.9-0.1,4.3l-6,1.5c0.1-1.4,0.2-2.9,0.3-4.3C21.2,36.5,23.1,35.9,25,35.4z"/>
				<path class="st92" d="M30.4,28.9c-1.8-0.6-3.5-1.3-5.2-1.9c-1.5,0.6-3,1.2-4.5,1.8s-3.1,1.2-4.6,1.8c1.1,0.9,2.2,1.7,3.3,2.6
					c1.9-0.7,3.7-1.4,5.5-2.1S28.5,29.6,30.4,28.9z"/>
				<path class="st92" d="M9.3,38.3c3.8-1,7.6-2.1,11.3-3.2S28.1,33,31.9,32c-0.2-0.7-0.3-1.4-0.5-2.1c-3.6,1.4-7.3,2.8-11,4.2
					c-3.7,1.4-7.4,2.8-11.2,4.2C9.3,38.2,9.3,38.3,9.3,38.3z"/>
				<path class="st90" d="M6.6,61.5c6-1.8,12-3.6,18-5.4c5.6-1.7,11.2-3.4,16.8-5.1c-0.1,0.4-0.2,0.7-0.2,1.1l1.2-0.2V52
					c-5.9,1.8-11.8,3.6-17.8,5.4c-6,1.8-12,3.6-18.1,5.4C6.5,62.4,6.5,61.9,6.6,61.5z"/>
			</g>
			<path class="st2" d="M23.3,45.1c-2.8,6.4-5.6,12.8-8.5,19.2C12,70.6,9.2,77,6.3,83.4l25.8,2.7c8.6,0.9,17.2,1.8,25.8,2.7
				c0.8-6.7,1.6-13.3,2.3-20c0.8-6.7,1.5-13.3,2.3-20l-19.6-1.8C36.4,46.3,29.8,45.7,23.3,45.1z"/>
			<path class="st86" d="M25,46.4c-2.6,6.1-5.1,12.1-7.7,18.1s-5.1,12.1-7.7,18.1c8.1,0.8,16.1,1.7,24.2,2.5
				C41.9,86,50,86.9,58,87.7c0.7-6.3,1.5-12.6,2.2-18.9s1.5-12.6,2.2-18.9l-18.7-1.8C37.5,47.5,31.3,46.9,25,46.4z"/>
			<path class="st2" d="M46.4,48.4c1.8,3.1,3.7,6.3,5.8,9.4c2.1,3.2,4.4,6.4,6.8,9.5l-3,0.2c-2.4-3.3-4.7-6.5-6.8-9.8
				c-2.1-3.2-3.9-6.5-5.7-9.7C44.4,48.2,45.4,48.3,46.4,48.4z"/>
			<path class="st1" d="M53.3,65.9c-1.2,1.8-3.7,5.1-10.3,8.3c-4,1.7-8.1,3-12.4,3.9c-6.6,1.4-13.4,2.3-20.1,2.7
				c-0.2,0.5-0.4,1-0.6,1.5c7.5-0.4,15-1.3,22.4-2.8c4.7-0.9,9.2-2.3,13.6-4.2c7-3.3,9.5-6.8,10.7-8.7
				C55.5,66.3,54.4,66.1,53.3,65.9z"/>
			<path class="st2" d="M23.9,49.1c5.5,2.9,11.2,5.9,17.2,8.8c6.2,3,12.6,6,19.3,9.1c-0.1,0.6-0.1,1.1-0.2,1.7
				c-6.7-3.1-13.3-6.1-19.6-9.1c-6.1-3-11.9-5.9-17.5-8.9C23.4,50.2,23.7,49.6,23.9,49.1z"/>
			<path class="st2" d="M52.8,87.2c0.9-6.3,1.9-12.6,2.8-18.8c0.9-6.3,1.9-12.6,2.8-18.8c0.9,0.1,1.9,0.2,2.8,0.3
				c-0.8,6.3-1.6,12.6-2.4,18.9s-1.6,12.6-2.4,18.9C55.2,87.4,54,87.3,52.8,87.2z"/>
			<path class="st2" d="M18.4,62c7,0.7,14,1.4,21.1,2.1c7,0.7,14,1.4,21.1,2.1c-0.1,0.4-0.1,0.9-0.2,1.3c-7.1-0.7-14.2-1.4-21.2-2.1
				S25,64,17.9,63.3C18.1,62.9,18.2,62.4,18.4,62z"/>
			<path class="st93" d="M58,62.7c-3-0.3-9.4,0.8-9.8,3c-0.4,2.1,5.6,4.5,8.7,4.8s2.1,0.1,3.1,0.1l0.9-7.4C60,62.9,61,63,58,62.7z"
				/>
			<path class="st87" d="M57.8,63.9c-2.2-0.2-6.4,0.6-6.6,2s3.6,3,5.9,3.2c1,0.2,2.1,0.2,3.1,0c0.2-1.5,0.4-3.1,0.5-4.6
				C59.8,64.2,58.8,63.9,57.8,63.9z"/>
			<path class="st2" d="M58.3,60.4c0-0.4,0.1-0.9,0.1-1.3c1,0,2,0,3,0c-0.1,0.4-0.1,0.9-0.2,1.3C60.2,60.4,59.3,60.4,58.3,60.4z"/>
			<path class="st2" d="M57.5,61.7c-0.1-0.5-0.1-1-0.2-1.5c1.3,0.1,2.6,0.2,3.9,0.3c-0.1,0.5-0.1,1-0.2,1.5
				C59.8,62,58.6,61.9,57.5,61.7z"/>
			<path class="st2" d="M54.8,80c0.1-0.4,0.2-0.9,0.3-1.3c1.3,0.1,2.6,0.1,3.9,0.2c-0.1,0.4-0.1,0.9-0.2,1.3
				C57.5,80.1,56.2,80.1,54.8,80z"/>
			<path class="st2" d="M44.3,75.3c-1.2,0.1-2.4,0.2-3.6,0.3c-2.1-1.9-4.2-3.8-6.2-5.8c-2-1.9-3.9-3.8-5.7-5.7
				c1.2-0.1,2.3-0.2,3.5-0.3c1.9,1.9,3.8,3.8,5.8,5.7C40,71.4,42.1,73.4,44.3,75.3z"/>
			<path class="st2" d="M37.1,85.5c0.8-1.8,1.6-3.6,2.4-5.4s1.6-3.6,2.4-5.4c1.2,0.2,2.4,0.3,3.7,0.5c-0.7,1.8-1.5,3.6-2.2,5.4
				c-0.7,1.8-1.5,3.6-2.3,5.4C39.7,85.8,38.4,85.7,37.1,85.5z"/>
			<path class="st2" d="M42.4,76c0.2-0.6,0.4-1.2,0.6-1.8c2.2,0.7,4.5,1.3,6.7,2c2.3,0.7,4.5,1.4,6.8,2c-0.1,0.6-0.3,1.2-0.4,1.8
				c-2.3-0.7-4.6-1.4-6.9-2C46.9,77.4,44.7,76.7,42.4,76z"/>
			<path class="st2" d="M55.8,74c-0.2-0.5-0.4-1-0.7-1.5c1.5,0.2,3.1,0.3,4.6,0.5c-0.1,0.5-0.1,1-0.2,1.5L55.8,74z"/>
			<path class="st2" d="M47.4,52.4c-0.2,0.5-0.3,1-0.5,1.4c-3.1-0.2-6.3-0.4-9.4-0.6c-3.2-0.2-6.3-0.4-9.5-0.6
				c-0.7-0.5-1.3-0.9-2-1.4c3.6,0.2,7.2,0.4,10.8,0.6C40.3,52,43.9,52.2,47.4,52.4z"/>
			<path class="st2" d="M40.8,52.4c-1.3,0-2.5,0.1-3.8,0.1c-1.3-1.8-2.5-3.6-3.7-5.4c1.3,0.1,2.7,0.3,4,0.4
				C38.5,49.1,39.6,50.8,40.8,52.4z"/>
			<path class="st2" d="M51.7,58.1c-0.1,0.5-0.3,1-0.4,1.5c-2.1-0.2-4.2-0.5-6.2-0.7s-4.2-0.5-6.2-0.7c-0.7-0.5-1.5-0.9-2.2-1.4
				c2.5,0.2,5,0.5,7.6,0.7S49.2,57.9,51.7,58.1z"/>
			<path class="st88" d="M43.4,48.1c0.8,1.4,1.6,2.8,2.4,4.2c-1.7-0.1-3.5-0.2-5.3-0.3c-1.1-1.5-2.1-3-3.1-4.5
				C39.4,47.7,41.4,47.9,43.4,48.1z"/>
			<path class="st2" d="M14.7,70.7c3.5-0.4,7.1-0.8,10.5-1.2c3.4-0.4,6.9-0.8,10.2-1.2c0.4,0.4,0.8,0.9,1.3,1.3
				c-3.7,0.5-7.4,0.9-11.2,1.3c-3.8,0.4-7.6,0.9-11.5,1.3C14.3,71.7,14.5,71.2,14.7,70.7z"/>
			<path class="st2" d="M31.5,79.2c-1,0.1-2.1,0.3-3.1,0.4c-2.8-3-5.6-5.9-8.2-8.9c1-0.1,2-0.3,3-0.4C25.9,73.3,28.7,76.2,31.5,79.2
				z"/>
			<path class="st2" d="M12.7,75.4c3.9-0.5,7.8-1.1,11.7-1.6c0.5,0.5,1.1,0.9,1.6,1.4c-2.3,0.3-4.6,0.7-6.9,1
				c-2.3,0.3-4.7,0.6-7.1,1C12.3,76.5,12.5,76,12.7,75.4z"/>
			<path class="st2" d="M22.9,80.7c-1.1,0.1-2.2,0.2-3.3,0.3c-1.8-1.8-3.6-3.7-5.4-5.5c1.1-0.1,2.2-0.2,3.3-0.3
				C19.2,77,21,78.8,22.9,80.7z"/>
			<path class="st87" d="M24.4,75.4c1,1.1,2,2.2,3.1,3.3c1.6,1.6-1.5,0.3-2.8,0.5s-2.9,0.4-2.9,0.4c-1.1-1.1-2.2-2.2-3.3-3.3
				C20.5,76,22.5,75.7,24.4,75.4z"/>
			<path class="st88" d="M59.9,60.4c0.5,0,0.9,0.1,1.3,0.1c0,0,0-0.1,0-0.1C60.8,60.4,60.3,60.4,59.9,60.4z"/>
			<path class="st87" d="M23.2,50.7l11.3,5.8l-2.2,6.9L18.4,62L23.2,50.7z"/>
			<path class="st2" d="M36.2,56.9l-2.5,6.9l-1.8-0.2l2.7-7.5L36.2,56.9z"/>
			<path class="st93" d="M23.9,49.1l-0.7,1.6c9.4,5,19,9.7,28.8,14.3c0.7-0.4,1.5-0.7,2.3-0.8C44,59.2,33.8,54.2,23.9,49.1z"/>
			<path class="st93" d="M23.2,50.7c1,0.5,2,1,2.9,1.5v0C25.2,51.7,24.2,51.2,23.2,50.7L23.2,50.7z M26.1,50.3L26.1,50.3
				c-0.8-0.4-1.5-0.8-2.3-1.2C24.6,49.5,25.4,49.9,26.1,50.3z M26.1,52.3c3,1.6,6.1,3.1,9.2,4.7v0C32.2,55.4,29.1,53.8,26.1,52.3
				L26.1,52.3L26.1,52.3z M26.1,50.2L26.1,50.2c0.7,0.4,1.4,0.8,2.1,1.1l0.1,0C27.6,51,26.9,50.6,26.1,50.2L26.1,50.2z M35.3,55
				c-1.4-0.7-2.8-1.4-4.2-2.2l0.2,0c1.3,0.7,2.7,1.3,4,2L35.3,55z M35.3,56.9c3.6,1.8,7.2,3.6,10.9,5.3v0c-1.8-0.9-3.7-1.8-5.5-2.6
				C38.9,58.7,37.1,57.8,35.3,56.9L35.3,56.9L35.3,56.9z M35.3,54.9c1.4,0.7,2.8,1.4,4.2,2.1l-0.4,0c-1.3-0.6-2.6-1.3-3.8-1.9
				L35.3,54.9L35.3,54.9z M46.2,60.3c-1.3-0.6-2.5-1.2-3.8-1.8l0.4,0c1.1,0.6,2.3,1.1,3.4,1.7L46.2,60.3z M46.2,62.2
				c1.2,0.6,2.5,1.2,3.7,1.8l0,0C48.7,63.4,47.4,62.8,46.2,62.2L46.2,62.2L46.2,62.2z M46.2,60.2c2,1,4.1,2,6.1,3l-0.1,0
				c-2-1-4-1.9-6-2.9L46.2,60.2z"/>
			<path class="st90" d="M60.4,67L60.4,67l0,0.1L60.4,67z M62.4,67.4c11.7,2,23.5,3.8,35.3,5.4l0.2,1.7c-12.3-1.6-24.7-3.5-37.2-5.6
				C61.4,68.4,62,68,62.4,67.4L62.4,67.4z"/>
			<path class="st93" d="M97.7,72.8l0.2,1.7l12.1,5.7l5.2,0.9L97.7,72.8z"/>
			<path class="st93" d="M132.6,64.6l0.7,1.3l-37.6-7.4l-0.3-1.3L132.6,64.6z"/>
			<path class="st90" d="M95.3,57.2l0.3,1.3l-30.6,7.8l-0.2-1.2L95.3,57.2z"/>
			<path class="st93" d="M48.5,65l-30.1-3l-0.5,1.3c0,0,30,3.3,30.4,3S49.5,65.1,48.5,65z"/>
			<path class="st93" d="M61.2,49.8l-2.8-0.3l-2,13.1c0.5,0,1,0,1.5,0c0.7,0.1,1.2,0.1,1.5,0.2L61.2,49.8z"/>
			<path class="st94" d="M52.2,67.4c-1.5,1.9-4.1,4.3-9.2,6.7c-4,1.7-8.1,3-12.4,3.9c-6.6,1.4-13.4,2.3-20.1,2.7
				c-0.2,0.5-0.4,1-0.6,1.5c7.5-0.4,15-1.3,22.4-2.8c4.7-0.9,9.2-2.3,13.6-4.2c3.4-1.5,6.5-3.7,9.1-6.5C53.9,68.4,53,68,52.2,67.4z"
				/>
			<path class="st93" d="M113.7,60.8L94.2,47.9l0.2,1.7L109.6,60L113.7,60.8z"/>
			<path class="st90" d="M86,43.3l8.2,4.6l0.2,1.7l-10.2-5.8L86,43.3z"/>
			<path class="st93" d="M93.9,46.6l32.4,4l0.6,1.3l-32.8-4L93.9,46.6z"/>
			<path class="st90" d="M93.9,46.6l0.3,1.3c-10.9,4.2-21.8,8.4-32.9,12.5c0.1-0.5,0.1-1,0.2-1.5L93.9,46.6z"/>
			<path class="st93" d="M61.4,59L59.7,59l0,1.5l1.4,0L61.4,59z"/>
			<path class="st93" d="M139,78.6c-6.8-2.3-13.5-4.5-20-6.8c-5.9-2.1-11.7-4.2-17.5-6.2c0.5-0.3,1-0.5,1.5-0.8
				c5.3,1.9,10.6,3.9,16.1,5.8c6.3,2.2,12.7,4.4,19.2,6.6C138.6,77.6,138.8,78.1,139,78.6z"/>
			<path class="st93" d="M9.8,82.2c0.1-0.4,0.2-0.9,0.3-1.3c1.5,0.1,46.8,2.7,48.3,2.8c-0.1,0.4-0.1,0.9-0.2,1.3
				C56.8,85,11.4,82.3,9.8,82.2z"/>
			<path class="st95" d="M57.4,17.9c7.7,0,13.9,6.2,13.9,13.9c0,6.5-4.5,12.1-10.8,13.5c-0.8,0.2-0.7,0.8-0.8,1.6l-2.2,20l-2.2-19.7
				c-0.1-0.8-0.1-1.7-0.8-1.9c-7.5-1.7-12.2-9.1-10.5-16.6C45.2,22.4,50.9,17.9,57.4,17.9L57.4,17.9z"/>
			<g transform="translate(37.46 8.142)">
				<path class="st96" d="M19.6,55.8h0.7l-0.3,3L19.6,55.8z"/>
				<path class="st96" d="M19.5,55.4h0.8l-0.3,3h-0.1L19.5,55.4z"/>
				<path class="st96" d="M19.5,55h0.8L20,58h-0.2L19.5,55z"/>
				<path class="st96" d="M19.4,54.7h0.9l-0.3,3h-0.3L19.4,54.7z"/>
				<path class="st96" d="M19.4,54.3h1l-0.3,3h-0.3L19.4,54.3z"/>
				<path class="st96" d="M19.4,53.9h1.1l-0.3,3h-0.4L19.4,53.9z"/>
				<path class="st96" d="M19.3,53.5h1.2l-0.3,3h-0.5L19.3,53.5z"/>
				<path class="st96" d="M19.3,53.2h1.3l-0.3,3h-0.6L19.3,53.2z"/>
				<path class="st96" d="M19.2,52.8h1.3l-0.3,3h-0.7L19.2,52.8z"/>
				<path class="st96" d="M19.2,52.4h1.4l-0.3,3h-0.8L19.2,52.4z"/>
				<path class="st96" d="M19.1,52h1.5l-0.3,3h-0.8L19.1,52z"/>
				<path class="st96" d="M19.1,51.7h1.6l-0.3,3h-0.9L19.1,51.7z"/>
				<path class="st96" d="M19.1,51.3h1.7l-0.3,3h-1L19.1,51.3z"/>
				<path class="st96" d="M19,50.9h1.8l-0.3,3h-1.1L19,50.9z"/>
				<path class="st96" d="M19,50.5h1.8l-0.3,3h-1.2L19,50.5z"/>
				<path class="st96" d="M18.9,50.2h1.9l-0.3,3h-1.3L18.9,50.2z"/>
				<path class="st96" d="M18.9,49.8h2l-0.3,3h-1.3L18.9,49.8z"/>
				<path class="st96" d="M18.9,49.4H21l-0.3,3h-1.4L18.9,49.4z"/>
				<path class="st96" d="M18.8,49H21l-0.3,3h-1.5L18.8,49z"/>
				<path class="st96" d="M18.8,48.7H21l-0.3,3h-1.6L18.8,48.7z"/>
				<path class="st96" d="M18.7,48.3h2.4l-0.3,3h-1.7L18.7,48.3z"/>
				<path class="st96" d="M18.7,47.9h2.4l-0.3,3H19L18.7,47.9z"/>
				<path class="st96" d="M18.6,47.5h2.5l-0.3,3H19L18.6,47.5z"/>
				<path class="st96" d="M18.6,47.2h2.6l-0.3,3h-1.9L18.6,47.2z"/>
				<path class="st96" d="M18.6,46.8h2.7l-0.3,3h-2L18.6,46.8z"/>
				<path class="st96" d="M18.5,46.4h2.8l-0.3,3h-2.1L18.5,46.4z"/>
				<path class="st96" d="M18.5,46h2.9L21,49h-2.2L18.5,46z"/>
				<path class="st96" d="M18.4,45.7h2.9l-0.3,3h-2.3L18.4,45.7z"/>
				<path class="st96" d="M18.4,45.3h3l-0.3,3h-2.4L18.4,45.3z"/>
				<path class="st96" d="M18.4,44.9h3.1l-0.3,3h-2.4L18.4,44.9z"/>
				<path class="st96" d="M18.3,44.5h3.2l-0.3,3h-2.5L18.3,44.5z"/>
				<path class="st96" d="M18.3,44.2h3.3l-0.3,3h-2.6L18.3,44.2z"/>
				<path class="st96" d="M18.2,43.8h3.4l-0.3,3h-2.7L18.2,43.8z"/>
				<path class="st96" d="M18.2,43.4h3.4l-0.3,3h-2.8L18.2,43.4z"/>
				<path class="st96" d="M18.1,43h3.5l-0.3,3h-2.9L18.1,43z"/>
				<path class="st96" d="M18.1,42.7h3.6l-0.3,3h-2.9L18.1,42.7z"/>
				<path class="st96" d="M18.1,42.3h3.7l-0.3,3h-3L18.1,42.3z"/>
				<path class="st96" d="M18,41.9h3.8l-0.3,3h-3.1L18,41.9z"/>
				<path class="st96" d="M18,41.5h3.9l-0.3,3h-3.2L18,41.5z"/>
				<path class="st96" d="M17.9,41.2h3.9l-0.3,3h-3.3L17.9,41.2z"/>
				<path class="st96" d="M17.9,40.8h4l-0.3,3h-3.4L17.9,40.8z"/>
				<path class="st96" d="M17.8,40.4H22l-0.3,3h-3.4L17.8,40.4z"/>
				<path class="st96" d="M17.8,40H22l-0.3,3h-3.5L17.8,40z"/>
				<path class="st96" d="M17.8,39.7H22l-0.3,3h-3.6L17.8,39.7z"/>
				<path class="st96" d="M17.7,39.3h4.4l-0.3,3h-3.7L17.7,39.3z"/>
				<path class="st96" d="M17.7,38.9h4.4l-0.3,3H18l-0.3-2.8C17.7,39.1,17.7,39,17.7,38.9z"/>
				<path class="st96" d="M17.6,38.5h4.5c0,0.1,0,0.2,0,0.3l-0.3,2.7H18l-0.3-2.4C17.7,38.9,17.7,38.7,17.6,38.5z"/>
				<path class="st96" d="M17.6,38.2h4.6c0,0.2,0,0.4-0.1,0.7l-0.3,2.3h-3.9l-0.2-2.1C17.7,38.8,17.6,38.5,17.6,38.2z"/>
				<path class="st96" d="M17.5,37.8h4.8c-0.1,0.3-0.1,0.7-0.2,1l-0.2,2h-4l-0.2-1.7C17.7,38.7,17.6,38.2,17.5,37.8z"/>
				<path class="st96" d="M17.2,37.4h5.3c-0.4,0.3-0.3,0.8-0.4,1.4L22,40.4h-4.1l-0.1-1.3C17.6,38.5,17.6,37.8,17.2,37.4z"/>
				<path class="st96" d="M16.1,37h7.7c-0.2,0.1-0.5,0.1-0.8,0.2c-0.8,0.2-0.7,0.8-0.8,1.6L22,40h-4.2l-0.1-0.9
					c-0.1-0.8-0.1-1.7-0.8-1.9C16.6,37.2,16.3,37.1,16.1,37z"/>
				<path class="st96" d="M15,36.7h9.9c-0.6,0.2-1.2,0.4-1.9,0.6c-0.8,0.2-0.7,0.8-0.8,1.6L22,39.7h-4.3l-0.1-0.6
					c-0.1-0.8-0.1-1.7-0.8-1.9C16.2,37.1,15.6,36.9,15,36.7z"/>
				<path class="st96" d="M14.1,36.3h11.7c-0.9,0.4-1.8,0.7-2.8,0.9c-0.8,0.2-0.7,0.8-0.8,1.6l-0.1,0.5h-4.4l0-0.2
					c-0.1-0.8-0.1-1.7-0.8-1.9C15.9,37,15,36.7,14.1,36.3z"/>
				<path class="st96" d="M13.3,35.9h13.2c-1.1,0.6-2.3,1-3.5,1.3c-0.8,0.2-0.7,0.8-0.8,1.6l0,0.1h-4.4c-0.1-0.7-0.1-1.5-0.8-1.7
					C15.6,37,14.4,36.5,13.3,35.9z"/>
				<path class="st96" d="M12.7,35.5h14.5c-1.3,0.8-2.7,1.4-4.2,1.7c-0.7,0.2-0.7,0.6-0.8,1.3h-4.5c-0.1-0.6-0.2-1.2-0.8-1.3
					C15.4,36.9,14,36.3,12.7,35.5z"/>
				<path class="st96" d="M12.1,35.2h15.6c-1.4,1-3.1,1.7-4.8,2.1c-0.6,0.1-0.7,0.5-0.8,0.9h-4.6c-0.1-0.5-0.3-0.8-0.7-0.9
					C15.2,36.9,13.5,36.2,12.1,35.2z"/>
				<path class="st96" d="M11.6,34.8h16.7c-1.6,1.2-3.4,2-5.3,2.4c-0.3,0-0.6,0.3-0.7,0.6h-4.8c-0.1-0.3-0.3-0.5-0.6-0.5
					C15,36.8,13.1,36,11.6,34.8z"/>
				<path class="st96" d="M11.1,34.4h17.6c-1.7,1.4-3.6,2.3-5.8,2.8c-0.2,0-0.3,0.1-0.4,0.2h-5.3c-0.1-0.1-0.2-0.1-0.4-0.2
					C14.8,36.8,12.8,35.8,11.1,34.4z"/>
				<path class="st96" d="M10.6,34.1h18.5c-1.6,1.4-3.4,2.4-5.5,3h-7.6C14.1,36.5,12.2,35.5,10.6,34.1z"/>
				<path class="st96" d="M10.2,33.7h19.3c-1.4,1.3-3,2.3-4.7,3H15C13.2,36,11.6,35,10.2,33.7z"/>
				<path class="st96" d="M9.9,33.3h20.1c-1.2,1.3-2.6,2.3-4.2,3H14.1C12.5,35.6,11.1,34.6,9.9,33.3z"/>
				<path class="st96" d="M9.5,32.9h20.8c-1.1,1.2-2.4,2.2-3.8,3H13.3C11.9,35.2,10.6,34.1,9.5,32.9z"/>
				<path class="st96" d="M9.2,32.5h21.4c-1,1.2-2.2,2.2-3.5,3H12.7C11.4,34.7,10.2,33.7,9.2,32.5z"/>
				<path class="st96" d="M8.9,32.2h22c-0.9,1.2-2,2.2-3.2,3H12.1C10.9,34.3,9.8,33.3,8.9,32.2z"/>
				<path class="st96" d="M8.6,31.8h22.6c-0.8,1.1-1.8,2.2-2.9,3H11.6C10.4,34,9.4,32.9,8.6,31.8z"/>
				<path class="st96" d="M8.4,31.4h23.1c-0.8,1.1-1.7,2.1-2.7,3H11.1C10,33.6,9.1,32.5,8.4,31.4z"/>
				<path class="st96" d="M8.1,31h23.6c-0.7,1.1-1.6,2.1-2.5,3H10.7C9.7,33.2,8.8,32.2,8.1,31z"/>
				<path class="st96" d="M7.9,30.7h24c-0.6,1.1-1.4,2.1-2.4,3H10.2C9.3,32.8,8.5,31.8,7.9,30.7z"/>
				<path class="st96" d="M7.7,30.3h24.4c-0.6,1.1-1.3,2.1-2.2,3H9.9C9,32.4,8.3,31.4,7.7,30.3z"/>
				<path class="st96" d="M7.5,29.9h24.8c-0.5,1.1-1.2,2.1-2,3H9.5C8.7,32,8,31,7.5,29.9z"/>
				<path class="st96" d="M7.3,29.5h25.2c-0.5,1.1-1.1,2.1-1.9,3H9.2C8.4,31.6,7.8,30.6,7.3,29.5z"/>
				<path class="st96" d="M7.1,29.2h25.5c-0.5,1.1-1.1,2.1-1.8,3h-22C8.2,31.3,7.6,30.2,7.1,29.2z"/>
				<path class="st96" d="M7,28.8h25.9c-0.4,1.1-1,2.1-1.6,3H8.6C8,30.9,7.4,29.9,7,28.8z"/>
				<path class="st96" d="M6.8,28.4H33c-0.4,1.1-0.9,2.1-1.5,3H8.4C7.7,30.5,7.2,29.5,6.8,28.4z"/>
				<path class="st96" d="M6.7,28h26.4c-0.3,1.1-0.8,2.1-1.4,3H8.1C7.5,30.1,7.1,29.1,6.7,28z"/>
				<path class="st96" d="M6.6,27.7h26.6c-0.3,1-0.7,2.1-1.3,3h-24C7.3,29.7,6.9,28.7,6.6,27.7z"/>
				<path class="st96" d="M6.5,27.3h26.8c-0.3,1-0.7,2.1-1.2,3H7.7C7.2,29.3,6.8,28.3,6.5,27.3z"/>
				<path class="st96" d="M6.4,26.9h27c-0.2,1-0.6,2-1.1,3H7.5C7,29,6.6,28,6.4,26.9z"/>
				<path class="st96" d="M6.3,26.5h27.2c-0.2,1-0.6,2-1,3H7.3C6.9,28.6,6.5,27.6,6.3,26.5z"/>
				<path class="st96" d="M6.2,26.2h27.3c-0.2,1-0.5,2-0.9,3H7.1C6.7,28.2,6.4,27.2,6.2,26.2z"/>
				<path class="st96" d="M6.2,25.8h27.5c-0.2,1-0.4,2-0.8,3H7C6.6,27.8,6.3,26.8,6.2,25.8z"/>
				<path class="st96" d="M6.1,25.4h27.6c-0.1,1-0.4,2-0.7,3H6.8C6.5,27.5,6.2,26.4,6.1,25.4z"/>
				<path class="st96" d="M6.1,25.1h27.7c-0.1,1-0.3,2-0.6,3H6.7C6.4,27.1,6.2,26.1,6.1,25.1z"/>
				<path class="st96" d="M6,24.7h27.7c-0.1,1-0.3,2-0.5,3H6.6C6.3,26.7,6.1,25.7,6,24.7z"/>
				<path class="st96" d="M6,24.3h27.8c0,1-0.2,2-0.5,3H6.5C6.2,26.3,6.1,25.3,6,24.3z"/>
				<path class="st96" d="M6,23.9h27.8c0,1-0.1,2-0.4,3h-27C6.2,25.9,6,24.9,6,23.9z"/>
				<path class="st96" d="M6,23.6h27.8c0,0,0,0.1,0,0.1c0,1-0.1,1.9-0.3,2.9H6.3C6.1,25.6,6,24.6,6,23.7C6,23.6,6,23.6,6,23.6z"/>
				<path class="st96" d="M6,23.2h27.8c0,0.2,0,0.3,0,0.5c0,0.8-0.1,1.7-0.2,2.5H6.2C6.1,25.4,6,24.5,6,23.7C6,23.5,6,23.3,6,23.2z"
					/>
				<path class="st96" d="M6,22.8h27.7c0,0.3,0,0.6,0,0.9c0,0.7-0.1,1.4-0.2,2.1H6.2C6.1,25.1,6,24.4,6,23.7C6,23.4,6,23.1,6,22.8z"
					/>
				<path class="st96" d="M6.1,22.4h27.7c0,0.4,0.1,0.8,0.1,1.3c0,0.6,0,1.2-0.1,1.7H6.1C6,24.9,6,24.3,6,23.7
					C6,23.3,6,22.8,6.1,22.4z"/>
				<path class="st96" d="M6.1,22.1h27.6c0.1,0.5,0.1,1.1,0.1,1.6c0,0.5,0,0.9-0.1,1.4H6.1C6,24.6,6,24.1,6,23.7
					C6,23.1,6,22.6,6.1,22.1z"/>
				<path class="st96" d="M6.1,21.7h27.5c0.1,0.7,0.1,1.3,0.1,2c0,0.3,0,0.7,0,1H6c0-0.3,0-0.7,0-1C6,23,6.1,22.3,6.1,21.7z"/>
				<path class="st96" d="M6.2,21.3h27.4c0.1,0.8,0.2,1.6,0.2,2.4c0,0.2,0,0.4,0,0.6H6c0-0.2,0-0.4,0-0.6C6,22.9,6.1,22.1,6.2,21.3z
					"/>
				<path class="st96" d="M6.3,20.9h27.2c0.2,0.9,0.3,1.8,0.3,2.8c0,0.1,0,0.2,0,0.2H6c0-0.1,0-0.2,0-0.2C6,22.8,6.1,21.8,6.3,20.9z
					"/>
				<path class="st96" d="M6.4,20.6h27.1c0.2,1,0.3,2,0.4,3H6C6,22.5,6.1,21.5,6.4,20.6z"/>
				<path class="st96" d="M6.5,20.2h26.9c0.3,1,0.4,2,0.4,3H6C6.1,22.2,6.2,21.2,6.5,20.2z"/>
				<path class="st96" d="M6.6,19.8h26.7c0.3,1,0.5,2,0.5,3H6C6.1,21.8,6.3,20.8,6.6,19.8z"/>
				<path class="st96" d="M6.7,19.4h26.5c0.3,1,0.5,2,0.6,3H6.1C6.2,21.4,6.4,20.4,6.7,19.4z"/>
				<path class="st96" d="M6.8,19.1H33c0.3,1,0.6,2,0.7,3H6.1C6.2,21,6.5,20,6.8,19.1z"/>
				<path class="st96" d="M6.9,18.7h25.9c0.4,1,0.6,2,0.8,3H6.2C6.3,20.7,6.6,19.6,6.9,18.7z"/>
				<path class="st96" d="M7.1,18.3h25.6c0.4,1,0.7,2,0.9,3H6.2C6.4,20.3,6.7,19.3,7.1,18.3z"/>
				<path class="st96" d="M7.2,17.9h25.3c0.4,1,0.8,2,1,3H6.3C6.5,19.9,6.8,18.9,7.2,17.9z"/>
			</g>
			<path class="st2" d="M57.4,43.9c-6.7,0-12.1-5.4-12.1-12.1c0-6.7,5.4-12.1,12.1-12.1c6.7,0,12.1,5.4,12.1,12.1
				C69.4,38.5,64,43.9,57.4,43.9z"/>
			<g transform="translate(39.949 2.49)">
				<path class="st87" d="M11.5,19.6h11.9C19.7,17.4,15.1,17.4,11.5,19.6z"/>
				<path class="st87" d="M11.1,19.8h12.6c-1.2-0.8-2.6-1.4-4.1-1.7h-4.4C13.8,18.4,12.4,19,11.1,19.8z"/>
				<path class="st87" d="M10.8,20H24c-1.1-0.8-2.3-1.3-3.5-1.7h-6.1C13.1,18.7,11.9,19.3,10.8,20z"/>
				<path class="st87" d="M10.5,20.2h13.8c-1-0.7-2-1.3-3.1-1.7h-7.5C12.5,18.9,11.5,19.5,10.5,20.2z"/>
				<path class="st87" d="M10.3,20.4h14.3c-0.9-0.7-1.8-1.3-2.8-1.7h-8.6C12.1,19.2,11.1,19.7,10.3,20.4z"/>
				<path class="st87" d="M10,20.7h14.8C24,20,23.1,19.4,22.2,19h-9.6C11.7,19.4,10.8,20,10,20.7z"/>
				<path class="st87" d="M9.8,20.9H25c-0.7-0.7-1.5-1.2-2.4-1.7H12.2C11.3,19.6,10.5,20.2,9.8,20.9z"/>
				<path class="st87" d="M9.6,21.1h15.7c-0.7-0.7-1.4-1.2-2.3-1.7H11.8C11,19.9,10.2,20.4,9.6,21.1z"/>
				<path class="st87" d="M9.3,21.3h16.2c-0.6-0.6-1.4-1.2-2.1-1.7H11.5C10.7,20.1,10,20.6,9.3,21.3z"/>
				<path class="st87" d="M9.1,21.5h16.6c-0.6-0.6-1.3-1.2-2-1.7H11.1C10.4,20.3,9.7,20.9,9.1,21.5z"/>
				<path class="st87" d="M8.9,21.7h16.9c-0.6-0.6-1.2-1.2-1.9-1.7H10.8C10.1,20.5,9.5,21.1,8.9,21.7z"/>
				<path class="st87" d="M8.8,21.9h17.3c-0.5-0.6-1.1-1.2-1.8-1.7H10.5C9.9,20.7,9.3,21.3,8.8,21.9z"/>
				<path class="st87" d="M8.6,22.1h17.7c-0.5-0.6-1.1-1.2-1.7-1.7H10.3C9.7,20.9,9.1,21.5,8.6,22.1z"/>
				<path class="st87" d="M8.4,22.3h18c-0.5-0.6-1-1.2-1.6-1.7H10C9.4,21.2,8.9,21.7,8.4,22.3z"/>
				<path class="st87" d="M8.3,22.5h18.3c-0.5-0.6-1-1.2-1.5-1.7H9.8C9.2,21.4,8.7,21.9,8.3,22.5z"/>
				<path class="st87" d="M8.1,22.7h18.6c-0.4-0.6-0.9-1.2-1.5-1.7H9.6C9,21.6,8.5,22.1,8.1,22.7z"/>
				<path class="st87" d="M8,23h18.9c-0.4-0.6-0.9-1.2-1.4-1.7H9.3C8.8,21.8,8.4,22.4,8,23z"/>
				<path class="st87" d="M7.8,23.2H27c-0.4-0.6-0.8-1.2-1.3-1.7H9.1C8.6,22,8.2,22.6,7.8,23.2z"/>
				<path class="st87" d="M7.7,23.4h19.5c-0.4-0.6-0.8-1.2-1.3-1.7H8.9C8.5,22.2,8.1,22.8,7.7,23.4z"/>
				<path class="st87" d="M7.6,23.6h19.7c-0.3-0.6-0.8-1.2-1.2-1.7H8.8C8.3,22.4,7.9,23,7.6,23.6z"/>
				<path class="st87" d="M7.4,23.8h19.9c-0.3-0.6-0.7-1.2-1.1-1.7H8.6C8.2,22.6,7.8,23.2,7.4,23.8z"/>
				<path class="st87" d="M7.3,24h20.2c-0.3-0.6-0.7-1.2-1.1-1.7h-18C8,22.8,7.6,23.4,7.3,24z"/>
				<path class="st87" d="M7.2,24.2h20.4c-0.3-0.6-0.6-1.1-1-1.7H8.3C7.9,23.1,7.5,23.6,7.2,24.2z"/>
				<path class="st87" d="M7.1,24.4h20.6c-0.3-0.6-0.6-1.1-1-1.7H8.1C7.7,23.3,7.4,23.8,7.1,24.4z"/>
				<path class="st87" d="M7,24.6h20.8c-0.3-0.6-0.6-1.1-0.9-1.7H8C7.6,23.5,7.3,24,7,24.6z"/>
				<path class="st87" d="M6.9,24.8h21c-0.3-0.6-0.5-1.1-0.9-1.7H7.8C7.5,23.7,7.2,24.3,6.9,24.8z"/>
				<path class="st87" d="M6.8,25H28c-0.2-0.6-0.5-1.1-0.8-1.7H7.7C7.4,23.9,7.1,24.5,6.8,25z"/>
				<path class="st87" d="M6.8,25.3h21.3c-0.2-0.6-0.5-1.1-0.8-1.7H7.6C7.3,24.1,7,24.7,6.8,25.3z"/>
				<path class="st87" d="M6.7,25.5h21.5c-0.2-0.6-0.5-1.1-0.8-1.7H7.4C7.1,24.3,6.9,24.9,6.7,25.5z"/>
				<path class="st87" d="M6.6,25.7h21.6c-0.2-0.6-0.4-1.1-0.7-1.7H7.3C7,24.5,6.8,25.1,6.6,25.7z"/>
				<path class="st87" d="M6.5,25.9h21.8c-0.2-0.6-0.4-1.1-0.7-1.7H7.2C6.9,24.7,6.7,25.3,6.5,25.9z"/>
				<path class="st87" d="M6.5,26.1h21.9c-0.2-0.6-0.4-1.1-0.6-1.7H7.1C6.9,25,6.6,25.5,6.5,26.1z"/>
				<path class="st87" d="M6.4,26.3h22c-0.2-0.6-0.4-1.1-0.6-1.7H7C6.8,25.2,6.6,25.7,6.4,26.3z"/>
				<path class="st87" d="M6.4,26.5h22.1c-0.1-0.6-0.3-1.1-0.6-1.7h-21C6.7,25.4,6.5,25.9,6.4,26.5z"/>
				<path class="st87" d="M6.3,26.7h22.2c-0.1-0.6-0.3-1.1-0.5-1.7H6.8C6.6,25.6,6.4,26.1,6.3,26.7z"/>
				<path class="st87" d="M6.3,26.9h22.3c-0.1-0.6-0.3-1.1-0.5-1.7H6.8C6.5,25.8,6.4,26.4,6.3,26.9z"/>
				<path class="st87" d="M6.2,27.1h22.4c-0.1-0.6-0.3-1.1-0.5-1.7H6.7C6.5,26,6.3,26.6,6.2,27.1z"/>
				<path class="st87" d="M6.2,27.3h22.5c-0.1-0.6-0.2-1.1-0.4-1.7H6.6C6.4,26.2,6.3,26.8,6.2,27.3z"/>
				<path class="st87" d="M6.1,27.6h22.5c-0.1-0.6-0.2-1.1-0.4-1.7H6.5C6.4,26.4,6.2,27,6.1,27.6z"/>
				<path class="st87" d="M6.1,27.8h22.6c-0.1-0.6-0.2-1.1-0.4-1.7H6.5C6.3,26.6,6.2,27.2,6.1,27.8z"/>
				<path class="st87" d="M6.1,28h22.7c-0.1-0.6-0.2-1.1-0.3-1.7h-22C6.3,26.8,6.2,27.4,6.1,28z"/>
				<path class="st87" d="M6.1,28.2h22.7c-0.1-0.6-0.2-1.1-0.3-1.7H6.4C6.2,27.1,6.1,27.6,6.1,28.2z"/>
				<path class="st87" d="M6,28.4h22.7c0-0.6-0.1-1.1-0.3-1.7H6.3C6.2,27.3,6.1,27.8,6,28.4z"/>
				<path class="st87" d="M6,28.6h22.8c0-0.6-0.1-1.1-0.2-1.7H6.3C6.1,27.5,6.1,28,6,28.6z"/>
				<path class="st87" d="M6,28.8h22.8c0-0.6-0.1-1.1-0.2-1.7H6.2C6.1,27.7,6,28.2,6,28.8z"/>
				<path class="st87" d="M6,29h22.8c0-0.6-0.1-1.1-0.2-1.7H6.2C6.1,27.9,6,28.5,6,29z"/>
				<path class="st87" d="M6,29.2h22.8c0-0.6-0.1-1.1-0.1-1.7H6.1C6.1,28.1,6,28.7,6,29.2z"/>
				<path class="st87" d="M6,29.4h22.8c0,0,0-0.1,0-0.1c0-0.5,0-1.1-0.1-1.6H6.1C6,28.3,6,28.8,6,29.3C6,29.4,6,29.4,6,29.4z"/>
				<path class="st87" d="M6,29.7h22.8c0-0.1,0-0.2,0-0.3c0-0.5,0-0.9-0.1-1.4H6.1C6,28.4,6,28.9,6,29.3C6,29.4,6,29.5,6,29.7z"/>
				<path class="st87" d="M6,29.9h22.8c0-0.2,0-0.3,0-0.5c0-0.4,0-0.8-0.1-1.2H6.1C6,28.6,6,28.9,6,29.3C6,29.5,6,29.7,6,29.9z"/>
				<path class="st87" d="M6,30.1h22.8c0-0.2,0-0.5,0-0.7c0-0.3,0-0.6,0-0.9H6c0,0.3,0,0.6,0,0.9C6,29.6,6,29.8,6,30.1z"/>
				<path class="st87" d="M6,30.3h22.7c0-0.3,0-0.6,0-0.9c0-0.2,0-0.5,0-0.7H6c0,0.2,0,0.5,0,0.7C6,29.7,6,30,6,30.3z"/>
				<path class="st87" d="M6.1,30.5h22.7c0-0.4,0.1-0.8,0.1-1.2c0-0.2,0-0.4,0-0.5H6c0,0.2,0,0.3,0,0.5C6,29.7,6,30.1,6.1,30.5z"/>
				<path class="st87" d="M6.1,30.7h22.7c0.1-0.5,0.1-0.9,0.1-1.4c0-0.1,0-0.2,0-0.3H6c0,0.1,0,0.2,0,0.3C6,29.8,6,30.2,6.1,30.7z"
					/>
				<path class="st87" d="M6.1,30.9h22.6c0.1-0.5,0.1-1,0.1-1.6c0,0,0-0.1,0-0.1H6c0,0,0,0.1,0,0.1C6,29.9,6,30.4,6.1,30.9z"/>
				<path class="st87" d="M6.1,31.1h22.5c0.1-0.6,0.1-1.1,0.1-1.7H6C6,30,6.1,30.6,6.1,31.1z"/>
				<path class="st87" d="M6.2,31.3h22.5c0.1-0.6,0.2-1.1,0.2-1.7H6C6,30.2,6.1,30.8,6.2,31.3z"/>
				<path class="st87" d="M6.2,31.5h22.4c0.1-0.6,0.2-1.1,0.2-1.7H6C6,30.4,6.1,31,6.2,31.5z"/>
				<path class="st87" d="M6.3,31.7h22.3c0.1-0.6,0.2-1.1,0.2-1.7H6C6.1,30.6,6.1,31.2,6.3,31.7z"/>
				<path class="st87" d="M6.3,32h22.2c0.1-0.6,0.2-1.1,0.3-1.7H6C6.1,30.8,6.2,31.4,6.3,32z"/>
				<path class="st87" d="M6.4,32.2h22.1c0.1-0.6,0.2-1.1,0.3-1.7H6.1C6.1,31,6.2,31.6,6.4,32.2z"/>
				<path class="st87" d="M6.4,32.4h22c0.2-0.5,0.3-1.1,0.3-1.7H6.1C6.2,31.3,6.3,31.8,6.4,32.4z"/>
				<path class="st87" d="M6.5,32.6h21.9c0.2-0.5,0.3-1.1,0.4-1.7H6.1C6.2,31.5,6.3,32,6.5,32.6z"/>
				<path class="st87" d="M6.5,32.8h21.7c0.2-0.5,0.3-1.1,0.4-1.7H6.1C6.2,31.7,6.4,32.2,6.5,32.8z"/>
				<path class="st87" d="M6.6,33h21.6c0.2-0.5,0.3-1.1,0.4-1.7H6.2C6.3,31.9,6.4,32.5,6.6,33z"/>
				<path class="st87" d="M6.7,33.2h21.5c0.2-0.5,0.4-1.1,0.5-1.7H6.2C6.3,32.1,6.5,32.7,6.7,33.2z"/>
				<path class="st87" d="M6.8,33.4h21.3c0.2-0.5,0.4-1.1,0.5-1.7H6.3C6.4,32.3,6.6,32.9,6.8,33.4z"/>
				<path class="st87" d="M6.8,33.6H28c0.2-0.5,0.4-1.1,0.5-1.7H6.3C6.4,32.5,6.6,33.1,6.8,33.6z"/>
				<path class="st87" d="M6.9,33.8h21c0.2-0.5,0.4-1.1,0.6-1.7H6.4C6.5,32.7,6.7,33.3,6.9,33.8z"/>
				<path class="st87" d="M7,34h20.8c0.2-0.5,0.4-1.1,0.6-1.7h-22C6.6,32.9,6.8,33.5,7,34z"/>
				<path class="st87" d="M7.1,34.3h20.6c0.3-0.5,0.5-1.1,0.6-1.7H6.5C6.6,33.2,6.9,33.7,7.1,34.3z"/>
				<path class="st87" d="M7.2,34.5h20.4c0.3-0.5,0.5-1.1,0.7-1.7H6.5C6.7,33.4,6.9,33.9,7.2,34.5z"/>
				<path class="st87" d="M7.3,34.7h20.2c0.3-0.5,0.5-1.1,0.7-1.7H6.6C6.8,33.6,7,34.1,7.3,34.7z"/>
				<path class="st87" d="M7.4,34.9h19.9c0.3-0.5,0.6-1.1,0.8-1.7H6.7C6.9,33.8,7.1,34.3,7.4,34.9z"/>
				<path class="st87" d="M7.6,35.1h19.7c0.3-0.5,0.6-1.1,0.8-1.7H6.8C7,34,7.3,34.6,7.6,35.1z"/>
				<path class="st87" d="M7.7,35.3h19.4c0.3-0.5,0.6-1.1,0.8-1.7H6.8C7.1,34.2,7.4,34.8,7.7,35.3z"/>
				<path class="st87" d="M7.8,35.5H27c0.3-0.5,0.6-1.1,0.9-1.7h-21C7.2,34.4,7.5,35,7.8,35.5z"/>
				<path class="st87" d="M8,35.7h18.9c0.4-0.5,0.7-1.1,0.9-1.7H7C7.3,34.6,7.6,35.2,8,35.7z"/>
				<path class="st87" d="M8.1,35.9h18.6c0.4-0.5,0.7-1.1,1-1.7H7.1C7.4,34.8,7.7,35.4,8.1,35.9z"/>
				<path class="st87" d="M8.3,36.1h18.3c0.4-0.5,0.7-1.1,1-1.7H7.2C7.5,35,7.9,35.6,8.3,36.1z"/>
				<path class="st87" d="M8.4,36.3h18c0.4-0.5,0.8-1.1,1.1-1.7H7.3C7.6,35.3,8,35.8,8.4,36.3z"/>
				<path class="st87" d="M8.6,36.6h17.7c0.4-0.5,0.8-1.1,1.1-1.7H7.4C7.8,35.5,8.2,36,8.6,36.6z"/>
				<path class="st87" d="M8.8,36.8h17.3c0.4-0.5,0.9-1.1,1.2-1.7H7.6C7.9,35.7,8.3,36.2,8.8,36.8z"/>
				<path class="st87" d="M8.9,37h16.9c0.5-0.5,0.9-1.1,1.3-1.7H7.7C8.1,35.9,8.5,36.5,8.9,37z"/>
				<path class="st87" d="M9.1,37.2h16.6c0.5-0.5,0.9-1.1,1.3-1.7H7.8C8.2,36.1,8.6,36.7,9.1,37.2z"/>
				<path class="st87" d="M9.3,37.4h16.1c0.5-0.5,1-1.1,1.4-1.7H8C8.4,36.3,8.8,36.9,9.3,37.4z"/>
				<path class="st87" d="M9.6,37.6h15.7c0.5-0.5,1-1.1,1.5-1.7H8.1C8.5,36.5,9,37.1,9.6,37.6z"/>
				<path class="st87" d="M9.8,37.8H25c0.6-0.5,1.1-1.1,1.5-1.7H8.3C8.7,36.7,9.2,37.3,9.8,37.8z"/>
				<path class="st87" d="M10,38h14.8c0.6-0.5,1.1-1.1,1.6-1.7h-18C8.9,37,9.4,37.5,10,38z"/>
				<path class="st87" d="M10.3,38.2h14.3c0.6-0.5,1.2-1.1,1.7-1.7H8.6C9.1,37.2,9.7,37.7,10.3,38.2z"/>
				<path class="st87" d="M10.5,38.4h13.7c0.7-0.5,1.3-1.1,1.8-1.7H8.8C9.3,37.4,9.9,37.9,10.5,38.4z"/>
				<path class="st87" d="M10.8,38.6H24c0.7-0.5,1.3-1.1,1.9-1.7H8.9C9.5,37.6,10.1,38.2,10.8,38.6z"/>
				<path class="st87" d="M11.1,38.9h12.6c0.7-0.5,1.4-1,2-1.7H9.1C9.7,37.8,10.4,38.4,11.1,38.9z"/>
				<path class="st87" d="M11.5,39.1h11.9c0.8-0.5,1.5-1,2.1-1.7H9.3C10,38,10.7,38.6,11.5,39.1z"/>
				<path class="st87" d="M11.8,39.3H23c0.8-0.5,1.6-1,2.3-1.7H9.6C10.2,38.3,11,38.8,11.8,39.3z"/>
				<path class="st87" d="M12.2,39.5h10.4c0.9-0.5,1.7-1,2.4-1.7H9.8C10.5,38.5,11.3,39,12.2,39.5z"/>
				<path class="st87" d="M12.6,39.7h9.6c0.9-0.4,1.8-1,2.6-1.7H10C10.8,38.7,11.7,39.3,12.6,39.7z"/>
				<path class="st87" d="M13.1,39.9h8.6c1-0.4,2-1,2.8-1.7H10.3C11.1,38.9,12.1,39.5,13.1,39.9z"/>
				<path class="st87" d="M13.7,40.1h7.5c1.1-0.4,2.2-1,3.1-1.7H10.5C11.5,39.2,12.5,39.7,13.7,40.1z"/>
				<path class="st87" d="M14.3,40.3h6.1c1.3-0.4,2.5-0.9,3.5-1.7H10.8C11.9,39.4,13.1,40,14.3,40.3z"/>
				<path class="st87" d="M15.2,40.5h4.4c1.5-0.3,2.9-0.9,4.1-1.7H11.1C12.4,39.7,13.8,40.3,15.2,40.5z"/>
				<path class="st87" d="M17.4,40.7L17.4,40.7c2.1,0,4.2-0.6,6-1.7H11.5C13.2,40.2,15.3,40.7,17.4,40.7z"/>
			</g>
			<path class="st94" d="M114.4,60.8c-1.3,0-3.2,0.1-5.3,0.4c-2.3,0.3-4.5,0.7-6.6,1.4c-2.1,0.7-4,1.7-5.8,3
				c0.2,1.2,0.3,2.5,0.5,3.7c1.9-2.6,4.6-4.4,7.7-5.3c2-0.7,4.1-1.1,6.2-1.3c1.9-0.2,3.7-0.3,4.9-0.4
				C115.5,61.8,114.9,61.3,114.4,60.8z"/>
		</g>
		<g transform="translate(43.018 0)">
			<g transform="translate(0 28.651)" class="st97">
				
					<image style="overflow:visible;opacity:0.8;enable-background:new    ;" width="967" height="86" xlink:href="ABCFFF4053B638F3.png"  transform="matrix(1.774419e-02 0 0 1.774419e-02 6.0064 17.927)">
				</image>
			</g>
			<g transform="translate(0.296 0)">
				<g transform="translate(0)">
					<path class="st98" d="M19.9,22.4c-0.3-0.2-0.7-0.2-1.1-0.2c-0.3,0.1-0.6-0.1-0.7-0.5c-0.2-0.9-1.1-1.4-2-1.2c0,0,0,0,0,0
						c-0.3,0.1-0.6,0-0.8-0.3c-0.6-0.8-1.6-1.3-2.7-1.1c-1.2,0.1-2.1,1-2.4,2.1c-0.1,0.3-0.4,0.5-0.7,0.5c0,0,0,0,0,0
						c-1-0.2-2,0.4-2.2,1.5c0,0.2,0,0.4,0,0.5C7.3,24,7.3,24,7.4,24c2.2,0,4.5,0,6.7,0c0.3,0,0.6,0.1,0.8,0.3l-0.6,0.3l0.3,4.2
						l1,0.6h0.8l0.9-0.7l-0.1-3l0-0.9l0,0l0,0l0,0l0,0l0,0c0,0,0,0,0,0l0,0l0,0l0.1,0c0,0,0.1,0,0.1,0h0.1h0.1h0l0.7,1.8l1.3-2
						l-0.5-0.1l0,0c0,0,0.1,0,0.1,0c0,0,0.1,0,0.1,0l0,0h0h0l0.1,0c0,0,0,0,0.1,0s0,0,0.1,0s0,0,0.1,0s0,0,0.1,0l0.1,0l0.1,0l0.1,0
						h0c0.1,0,0.1,0,0.2,0c0,0,0.1,0,0.1,0s0.1,0,0.1,0s0.1,0,0.1,0s0.1,0,0.1,0c0,0,0-0.1,0-0.1C20.8,23.4,20.4,22.7,19.9,22.4z"/>
					<path class="st99" d="M20.6,25.4c0-0.1-0.1-0.2-0.2-0.2h-1.7c0,0,0,0,0,0s0,0,0,0c0,0,0,0.1,0,0.1s0,0.1,0,0.1c0,0,0,0,0,0
						l0,0.1c-0.1,0,0,0-0.1-0.1s0,0,0-0.1s0,0,0-0.1l0,0c0,0,0,0,0-0.1s0,0,0,0v0h-1.7c0,0,0,0,0,0l0,0c0,0,0,0.1,0,0.1l0,0
						c0,0,0,0,0,0.1s0,0,0,0.1s0,0,0,0.1s0,0,0,0.1s0,0,0,0s0,0,0,0.1c0,0.8,0,1.7,0,2.5c0,0.4-0.3,0.7-0.7,0.7
						c-0.3,0-0.5-0.2-0.6-0.5c0-0.1,0-0.2,0-0.2c0-0.8,0-1.5,0-2.2c0-0.1,0-0.2,0-0.3v0c0-0.2,0-0.3,0-0.5H7.5c-0.3,0-0.6,0-0.9,0
						c0,0.1-0.1,0.2,0,0.3c0,0,0,0,0,0c0,0,0,0,0,0c0,0.1,0,0.1,0,0.2c0,3.5,0,7.1,0,10.6c0,0,0,8.5,0,9.4c2.3,0,14-0.4,14-0.4
						S20.6,26.3,20.6,25.4z M12.6,27.5c0-0.3,0.2-0.5,0.5-0.5c0.3,0,0.5,0.2,0.5,0.5c0,0,0,0,0,0.1c0,0.3-0.2,0.5-0.5,0.5
						c0,0,0,0-0.1,0C12.8,28,12.6,27.8,12.6,27.5z M12.2,31.9c0.3,0,0.6,0.3,0.6,0.6c0,0.3-0.2,0.6-0.5,0.6c0,0,0,0-0.1,0
						c-0.3,0-0.6-0.2-0.6-0.5c0,0,0-0.1,0-0.1C11.5,32.1,11.8,31.9,12.2,31.9C12.1,31.9,12.1,31.9,12.2,31.9L12.2,31.9z M10.3,26.2
						c0.3,0,0.5,0.2,0.5,0.5c0,0.2-0.2,0.4-0.5,0.4c-0.2,0-0.4-0.1-0.5-0.4c0,0,0,0,0-0.1C9.8,26.4,10,26.2,10.3,26.2
						C10.3,26.2,10.3,26.2,10.3,26.2L10.3,26.2z M10,28.7c0.3,0,0.6,0.1,0.7,0.4c0,0.1,0,0.2,0,0.3c0,1,0,2,0,3c0,1,0,2,0,3.1
						c0,0.3-0.2,0.6-0.5,0.7c0,0,0,0-0.1,0c-0.3,0-0.6-0.2-0.6-0.6c0,0,0-0.1,0-0.1c0-2.1,0-4.1,0-6.2C9.5,29.1,9.7,28.8,10,28.7
						L10,28.7z"/>
					<path class="st100" d="M19,27.9c0.5-0.2,0.8-0.7,0.8-1.2c0-0.3,0-0.6,0-0.9c0-0.1,0-0.2,0-0.3c0-0.2,0.1-0.2,0.3-0.2
						c0.2,0,0.3,0.1,0.3,0.3c0,0.1,0,0.2,0,0.3c0,4.4,0.4,14.8,0.4,19.3c-0.6,0.1-1.2,0.1-1.8,0C19,45.3,19,29.6,19,27.9z"/>
					<path class="st101" d="M9,24.9v20.5H7.9V24.9H9z"/>
					<path class="st101" d="M18.4,29.1c0.1,0,0.1,0.1,0.1,0.2c0,1.7,0,3.5,0,5.2c0,0.4,0,0.7,0,1.1c0,0.6,0,0,0,0c0,0,0,0,0,0
						c0-1.6,0-3.2,0-4.8c0-0.4,0-0.8,0-1.2C18.4,29.5,18.4,29.3,18.4,29.1z"/>
					<path class="st100" d="M19,28L19,28L19,28z"/>
					<path class="st100" d="M18.9,28C18.9,28,18.9,28,18.9,28C18.9,28,18.9,28,18.9,28z"/>
					<path class="st100" d="M9,36.6C9,36.6,9,36.6,9,36.6L9,36.6z"/>
					<path class="st102" d="M10.7,32.5c0,1,0,2,0,3.1c0,0.3-0.2,0.6-0.5,0.7c0,0,0,0-0.1,0c-0.3,0-0.6-0.2-0.6-0.6c0,0,0-0.1,0-0.1
						c0-2.1,0-4.1,0-6.2c0-0.3,0.2-0.6,0.5-0.6c0.3,0,0.6,0.1,0.7,0.4c0,0.1,0,0.2,0,0.3C10.7,30.4,10.7,31.4,10.7,32.5z"/>
					<path class="st101" d="M12.8,32.5c0,0.3-0.2,0.6-0.5,0.6c0,0,0,0-0.1,0c-0.3,0-0.6-0.2-0.6-0.6c0-0.3,0.2-0.6,0.6-0.6
						c0,0,0,0,0,0C12.5,31.9,12.8,32.1,12.8,32.5z"/>
					<path class="st101" d="M13.6,27.5c0,0.3-0.2,0.5-0.5,0.5c0,0,0,0-0.1,0c-0.3,0-0.5-0.2-0.5-0.6s0.2-0.5,0.6-0.5
						C13.4,26.9,13.6,27.2,13.6,27.5C13.6,27.5,13.6,27.5,13.6,27.5z"/>
					<path class="st101" d="M10.3,27.1c-0.2,0-0.4-0.1-0.5-0.4c0,0,0,0,0-0.1c0-0.2,0.2-0.4,0.4-0.5c0,0,0,0,0,0
						c0.3,0,0.5,0.2,0.5,0.5C10.7,26.9,10.5,27.1,10.3,27.1z"/>
					<path class="st100" d="M9.1,25.6C9.1,25.5,9.1,25.5,9.1,25.6C9.1,25.5,9.1,25.5,9.1,25.6C9.1,25.5,9.1,25.5,9.1,25.6z"/>
					<path class="st101" d="M17.2,37.3c0.4,0,0.7,0.3,0.7,0.7c0,0,0,0,0,0c0,0.4-0.3,0.7-0.7,0.7c0,0,0,0,0,0
						c-0.4,0-0.7-0.3-0.7-0.7C16.4,37.6,16.8,37.3,17.2,37.3z"/>
					<path class="st101" d="M15.8,34.4c-0.3,0-0.5-0.2-0.6-0.5c0,0,0,0,0,0c0-0.3,0.3-0.6,0.6-0.6c0.3,0,0.6,0.2,0.6,0.5
						c0,0,0,0,0,0C16.4,34.1,16.2,34.4,15.8,34.4C15.9,34.4,15.9,34.4,15.8,34.4z"/>
					<path class="st102" d="M21.4,46.2c0.2,0,0.3-0.2,0.3-0.3c0,0,0,0,0,0c0-1,0-4.1,0-4.1c0-0.8,0-1.5,0-2.3c0-0.1,0-0.1,0.1-0.1
						c0.4,0,0.7,0,1.1,0c0.3,0,0.5,0,0.8-0.1c0.7-0.2,1.2-0.9,1.2-1.6c0-1.9,0-3.8,0-5.7c0-0.1,0-0.2,0-0.3c-0.2-0.8-1-1.4-1.9-1.4
						c-0.4,0-0.8,0-1.2,0c-0.1,0-0.2,0-0.2-0.1c0-0.3,0-4.4-0.1-4.7c0-0.1,0-0.1,0-0.2c0.2-0.5,0.3-1.1,0.3-1.6
						c-0.2-1.4-1.3-2.4-2.7-2.5c-0.1,0-0.1,0-0.2-0.1c-0.5-1.1-1.6-1.7-2.8-1.6c-0.1,0-0.2,0-0.3-0.1c-0.7-0.7-1.6-1.1-2.6-1.2
						c-1.7-0.1-3.3,0.8-4,2.3c-0.1,0.2-0.2,0.3-0.4,0.3c-0.1,0-0.2,0-0.3,0C7,20.8,5.8,22.4,6,24.1c0,0,0,0.1,0,0.1
						c0.1,0.3,0.1,0.6,0.1,0.9c0,3.4,0,18.3,0,20.7c0,0.2,0.2,0.3,0.3,0.3c0,0,0,0,0,0L21.4,46.2z M21.7,34.7c0-1.1,0-2.1,0-3.2
						c0-0.1,0-0.2,0.2-0.2c0.3,0,0.7,0,1,0c0.2,0,0.4,0,0.5,0.1c0.2,0.1,0.3,0.3,0.3,0.5c0,1.8,0,3.6,0,5.4c0,0.3-0.2,0.6-0.5,0.7
						c0,0,0,0,0,0c-0.3,0-0.6,0-0.9,0c-0.1,0-0.3,0-0.4,0s-0.1,0-0.1-0.1C21.7,36.9,21.7,35.8,21.7,34.7z M9.5,21.8
						c0.3,0.1,0.7-0.1,0.7-0.5c0,0,0,0,0,0c0.3-1.1,1.2-2,2.4-2.1c1-0.2,2.1,0.2,2.7,1.1c0.2,0.2,0.5,0.3,0.8,0.3
						c0.9-0.2,1.8,0.3,2,1.2c0,0,0,0,0,0c0.1,0.3,0.4,0.5,0.7,0.5c0.4,0,0.8,0,1.1,0.2c0.6,0.3,0.9,1,0.8,1.7c0,0,0,0.1,0,0.1
						c0,0-0.1,0-0.1,0s-0.1,0-0.1,0s-0.1,0-0.1,0s-0.1,0-0.1,0c-0.1,0-0.1,0-0.2,0h0l-0.1,0l-0.1,0l-0.1,0c0,0,0,0-0.1,0s0,0-0.1,0
						l-0.1,0l-0.1,0l-0.1,0h0h0l0,0c0,0-0.1,0-0.1,0c0,0-0.1,0-0.1,0s-0.1,0-0.1,0.1s0,0-0.1,0.1l0,0c0,0,0,0,0,0l0,0.1
						c0,0-0.1,0.1-0.1,0.1c0,0,0,0,0,0.1l0,0c0,0,0,0,0,0s0,0,0,0.1s0,0.1,0,0.1l0,0.1c0,0,0,0,0,0.1s0,0,0,0s0,0,0,0
						c0,0,0,0.1,0,0.1s0,0.1,0,0.1c0,0,0,0,0,0l0,0.1c-0.1,0,0,0-0.1-0.1s0,0,0-0.1s0,0,0-0.1l0,0c0,0,0,0,0-0.1s0,0,0,0v0
						c0,0,0,0,0,0s0,0,0,0c0,0,0,0,0,0c0,0,0,0,0,0c0,0,0,0,0,0l0,0l0,0l0,0c0,0,0,0,0,0l0,0l0,0c0,0,0,0,0,0c0,0,0,0,0,0
						c0,0,0,0,0,0l0,0l0,0l0,0l0,0h0l0,0l0,0l0,0l0,0h0l0,0h0h0h-0.1h-0.1c0,0-0.1,0-0.1,0l-0.1,0l0,0l0,0c0,0,0,0,0,0l0,0l0,0l0,0
						l0,0l0,0l-0.1,0l0,0l0,0l0,0c0,0,0,0-0.1,0c0,0,0,0,0,0c0,0,0,0,0,0l0,0l0,0c0,0,0,0,0,0s0,0,0,0l0,0c0,0,0,0,0,0s0,0,0,0l0,0
						c0,0,0,0.1,0,0.1l0,0c0,0,0,0.1,0,0.1s0,0,0,0.1s0,0,0,0.1s0,0,0,0.1s0,0,0,0s0,0,0,0.1c0,0.8,0,1.7,0,2.5
						c0,0.4-0.3,0.7-0.7,0.7c-0.3,0-0.5-0.2-0.6-0.5c0-0.1,0-0.2,0-0.2c0-0.8,0-1.5,0-2.2c0-0.1,0-0.2,0-0.3v0c0-0.2,0-0.3,0-0.5
						c0,0,0-0.1,0-0.1c0-0.6-0.4-1.1-1-1.1c0,0-0.1,0-0.1,0c-2.2,0-4.5,0-6.7,0c-0.1,0-0.2,0-0.2-0.2c-0.1-1,0.7-1.9,1.7-2
						C9.2,21.8,9.3,21.8,9.5,21.8L9.5,21.8z M20.1,44.7H7.7c-0.2,0-0.3-0.1-0.3-0.3c0-2.2,0-15.5,0-18.7c0-0.1,0-0.1,0-0.2v-0.2
						c0-0.1,0-0.1,0.1-0.1c0,0,0,0,0.1,0h0.1c0.1,0,0.2,0,0.3,0c0,0,0,0,0,0c0,0,0,0,0,0l0,0h1.1c0.2,0,0.5,0,0.7,0h1.8
						c0.8,0,1.5,0,2.3,0c0,0,0,0,0.1,0c0.1,0,0.1,0.1,0.1,0.2c0,1,0,1.9,0,2.9c0,0.1,0,0.2-0.1,0.2c-0.2,0-0.3,0.1-0.4,0.2
						c-0.1,0.1-0.1,0.3-0.1,0.5c0,2.2,0,4.5,0,6.7c0,0.3,0.2,0.6,0.6,0.7c0,0,0.1,0,0.1,0c0.2,0,0.4-0.2,0.5-0.3l0,0
						c0-0.2,0.1-0.3,0-0.5v-6.1c0.2,0.2,0.5,0.4,0.8,0.5c0.4,0.1,0.9,0.1,1.3-0.1c0.2-0.1,0.4-0.2,0.5-0.3c0,0.1,0,0.1,0,0.2
						c0,1.9,0,3.7,0,5.6c0,0.1,0,0.3,0.1,0.4c0.1,0.2,0.4,0.3,0.6,0.3c0.2,0,0.4-0.2,0.5-0.4c0,0,0-0.1,0-0.1c0-1.6,0-3.2,0-4.8
						c0-0.4,0-0.8,0-1.2c0-0.2,0-0.3,0-0.5c-0.1-0.2-0.3-0.4-0.5-0.4c0,0-0.1,0-0.1-0.1c0-0.3,0-0.6,0-0.9c0.3,0.2,0.7,0.3,1.1,0.3
						c0,0,0,0,0,0l0,0l0,0l0.1,0c0.5-0.2,0.8-0.7,0.8-1.2c0-0.3,0-0.6,0-0.9c0-0.1,0-0.2,0-0.3c0-0.2,0.1-0.2,0.3-0.2
						c0.2,0,0.3,0.1,0.3,0.3c0,0.1,0,0.2,0,0.3v2.5c0,3.3,0,14,0,15.9C20.5,44.6,20.3,44.7,20.1,44.7z"/>
				</g>
				<g transform="translate(2.787 20.192)">
					<g transform="translate(0 0)">
						<path class="st102" d="M15.4,19.2c-0.3,1.1-1,2-2,2.5c-0.7,0.4-1.4,0.6-2.2,0.6c-0.8,0-1.6-0.2-2.3-0.6
							c-1-0.6-1.7-1.4-2.1-2.4c-0.2-0.8,0.6-0.4,0.6-0.4c0.1,0,0.3,0.1,0.4,0.1c1.1,0.3,2.2,0.4,3.4,0.4c1,0,2.1-0.1,3.1-0.4
							c0.3-0.1,0.4-0.1,0.4-0.1S15.6,18.4,15.4,19.2z"/>
						<path class="st102" d="M11.3,23.1c-1,0-1.9-0.2-2.7-0.7c-1.1-0.7-2-1.7-2.4-2.9c-0.2-0.4-0.1-0.9,0.3-1.3
							c0.4-0.3,0.9-0.4,1.4-0.1c0.1,0,0.2,0.1,0.4,0.1c1,0.3,2.1,0.4,3.1,0.4h0.1c1,0,2-0.1,2.9-0.3c0.2,0,0.3-0.1,0.3-0.1
							c0.4-0.2,1-0.2,1.4,0.1c0.4,0.3,0.5,0.8,0.3,1.3l0,0c-0.4,1.3-1.2,2.3-2.3,3C13,22.9,12.2,23.1,11.3,23.1z M8,19.8
							c0.3,0.5,0.8,0.9,1.3,1.2c0.6,0.3,1.2,0.5,1.9,0.5c1.2,0,2.4-0.6,3-1.7c-1,0.2-2,0.3-3,0.3C10.2,20.2,9.1,20.1,8,19.8L8,19.8z
							"/>
					</g>
					<path class="st1" d="M11.3,19.9c0,0-3,0.2-3.4-1c1.1,0.3,2.2,0.4,3.4,0.4c1,0,2.1-0.1,3.1-0.4V19C14.3,19,14.5,19.8,11.3,19.9z
						"/>
					<path class="st103" d="M13.4,21.7c-0.7,0.4-1.4,0.6-2.2,0.6c-0.8,0-1.6-0.2-2.3-0.6c0.6-0.6,1.4-0.9,2.2-0.8
						C12,20.8,12.8,21.1,13.4,21.7z"/>
				</g>
			</g>
		</g>
	</g>
</g>
</svg>
