<svg xmlns="http://www.w3.org/2000/svg" width="9.543" height="10.906" viewBox="0 0 9.543 10.906"><path d="M9.287,3.408H.256A.256.256,0,0,1,0,3.153V2.386A1.022,1.022,0,0,1,1.022,1.363H2.045V.256A.256.256,0,0,1,2.3,0h.852a.256.256,0,0,1,.256.256V1.363H6.135V.256A.256.256,0,0,1,6.39,0h.852A.256.256,0,0,1,7.5.256V1.363H8.52A1.022,1.022,0,0,1,9.543,2.386v.767A.256.256,0,0,1,9.287,3.408ZM.256,4.09H9.287a.256.256,0,0,1,.256.256V9.884A1.022,1.022,0,0,1,8.52,10.906h-7.5A1.022,1.022,0,0,1,0,9.884V4.345A.256.256,0,0,1,.256,4.09Zm7.1,2.044-.6-.6a.256.256,0,0,0-.361,0L4.135,7.768,3.155,6.78a.256.256,0,0,0-.361,0l-.6.6a.256.256,0,0,0,0,.361L3.947,9.514a.256.256,0,0,0,.361,0L7.354,6.495a.256.256,0,0,0,0-.361Z" fill="#fb0"/></svg>