<?xml version="1.0" encoding="utf-8"?>
<!-- Generator: Adobe Illustrator 24.0.1, SVG Export Plug-In . SVG Version: 6.00 Build 0)  -->
<svg version="1.1" id="Capa_1" xmlns="http://www.w3.org/2000/svg" xmlns:xlink="http://www.w3.org/1999/xlink" x="0px" y="0px"
	 viewBox="0 0 14.5 11.3" style="enable-background:new 0 0 14.5 11.3;" xml:space="preserve">
<style type="text/css">
	.st0{fill:#C8102E;}
	.st1{fill:#FFFFFF;}
</style>
<g transform="translate(0 -32)">
	<path class="st0" d="M10.5,36c0-2.2-2.3-4-5.2-4S0,33.8,0,36c0,0.9,0.4,1.7,1,2.3c-0.2,0.5-0.5,1-0.9,1.4C0,39.8,0,39.9,0.1,40
		c0,0,0.1,0.1,0.1,0.1c0.8,0,1.6-0.2,2.2-0.6c0.9,0.4,1.8,0.6,2.8,0.6C8.1,40.1,10.5,38.3,10.5,36z"/>
	<path class="st0" d="M13.6,41.6c0.6-0.6,0.9-1.5,1-2.3c-0.2-1.8-1.5-3.3-3.3-3.7c0,0.2,0,0.3,0,0.5c0,2.7-2.7,4.8-6,4.8
		c-0.3,0-0.5,0-0.8,0c1.1,1.6,2.9,2.6,4.8,2.5c1,0,1.9-0.2,2.8-0.6c0.7,0.4,1.4,0.6,2.2,0.6c0.1,0,0.2-0.1,0.2-0.2
		c0-0.1,0-0.1-0.1-0.1C14.1,42.5,13.8,42.1,13.6,41.6z"/>
	<path class="st1" d="M7,37.8c0-0.1-0.1-0.1-0.2-0.1c0,0,0,0,0,0c-0.2,0-0.3,0.1-0.5,0.1c-0.6,0-1.2-0.4-1.4-1h1.3
		c0.1,0,0.1,0,0.1-0.1l0.1-0.3c0-0.1,0-0.1-0.1-0.2c0,0,0,0,0,0H4.7c0-0.2,0-0.3,0-0.5h1.7c0.1,0,0.1,0,0.1-0.1l0.1-0.3
		c0-0.1,0-0.1-0.1-0.2c0,0,0,0,0,0H4.9c0.2-0.5,0.8-0.9,1.4-0.9c0.1,0,0.3,0,0.4,0c0.1,0,0.1,0,0.2-0.1L7,33.7c0-0.1,0-0.1-0.1-0.2
		c0,0,0,0,0,0c-0.2,0-0.4-0.1-0.6-0.1c-1.1,0-2,0.7-2.4,1.7H3.5c-0.1,0-0.1,0.1-0.1,0.1l0,0v0.3c0,0.1,0.1,0.1,0.1,0.1l0,0h0.2
		c0,0.2,0,0.3,0,0.5H3.5c-0.1,0-0.1,0.1-0.1,0.1l0,0v0.3c0,0.1,0.1,0.1,0.1,0.1l0,0h0.3c0.3,1.1,1.3,1.8,2.4,1.8
		c0.2,0,0.5,0,0.7-0.1c0.1,0,0.1-0.1,0.1-0.2L7,37.8z"/>
</g>
</svg>
