<svg xmlns="http://www.w3.org/2000/svg" width="14.513" height="11.288" viewBox="0 0 14.513 11.288"><g transform="translate(0 -32)"><path d="M10.482,36.031C10.482,33.8,8.135,32,5.241,32S0,33.8,0,36.031a3.421,3.421,0,0,0,.957,2.318,5.64,5.64,0,0,1-.9,1.374.2.2,0,0,0,.146.34,4.433,4.433,0,0,0,2.236-.629,6.4,6.4,0,0,0,2.8.629C8.135,40.063,10.482,38.258,10.482,36.031Z" fill="#fb0"/><path d="M185.385,177.979a3.42,3.42,0,0,0,.957-2.318,4.189,4.189,0,0,0-3.259-3.731,3.91,3.91,0,0,1,.034.506c0,2.668-2.713,4.838-6.047,4.838a7.514,7.514,0,0,1-.8-.047,5.447,5.447,0,0,0,4.831,2.466,6.4,6.4,0,0,0,2.8-.629,4.434,4.434,0,0,0,2.236.629.2.2,0,0,0,.146-.34A5.618,5.618,0,0,1,185.385,177.979Z" transform="translate(-171.829 -136.404)" fill="#fb0"/><path d="M138.428,93.907a.138.138,0,0,0-.166-.108,2.422,2.422,0,0,1-.524.062,1.484,1.484,0,0,1-1.4-.985h1.311a.138.138,0,0,0,.135-.108l.073-.327a.138.138,0,0,0-.135-.169h-1.548a2.49,2.49,0,0,1,0-.487h1.69a.138.138,0,0,0,.135-.109l.075-.343a.138.138,0,0,0-.135-.168h-1.594A1.448,1.448,0,0,1,137.7,90.3a2.259,2.259,0,0,1,.436.048.138.138,0,0,0,.161-.1l.138-.512a.138.138,0,0,0-.107-.172,3.358,3.358,0,0,0-.607-.06,2.464,2.464,0,0,0-2.358,1.66h-.381a.138.138,0,0,0-.138.138v.343a.138.138,0,0,0,.138.138h.249a3.422,3.422,0,0,0,0,.487h-.247a.138.138,0,0,0-.138.138v.327a.138.138,0,0,0,.138.138h.347a2.415,2.415,0,0,0,2.392,1.794,2.876,2.876,0,0,0,.7-.09.138.138,0,0,0,.1-.161Z" transform="translate(-131.448 -56.057)" fill="#fff"/></g></svg>