<svg xmlns="http://www.w3.org/2000/svg" width="139.455" height="75.694" viewBox="0 0 139.455 75.694"><g transform="translate(0 1)"><g transform="translate(0 24.299)"><path d="M171.68,280.109l18.383,38.973-46.571-7.844L102.8,320.8,51.331,315.4l16.913-38.237,39.218,3.677,30.394-8.579Z" transform="translate(-50.998 -272.032)" fill="#fff" fill-rule="evenodd"/><g transform="translate(35.026 18.398)" opacity="0.502" style="mix-blend-mode:multiply;isolation:isolate"><path d="M155.37,396.51l-89.2,1.684L51.331,368.83l67.42,1.581Z" transform="translate(-51.331 -367.858)" fill="#ededed" fill-rule="evenodd"/><path d="M154.789,396.462l-88.544,1.593L51.331,368.769l66.838,1.593Z" transform="translate(-50.75 -367.809)" fill="#ececec" fill-rule="evenodd"/><path d="M154.207,396.413l-87.885,1.5L51.331,368.708l66.257,1.6Z" transform="translate(-50.168 -367.76)" fill="#ebebeb" fill-rule="evenodd"/><path d="M153.626,396.364,66.4,397.775,51.331,368.647l65.675,1.617Z" transform="translate(-49.586 -367.712)" fill="#eaeaea" fill-rule="evenodd"/><path d="M153.044,396.316l-86.567,1.32L51.331,368.587l65.093,1.629Z" transform="translate(-49.005 -367.663)" fill="#e9e9e9" fill-rule="evenodd"/><path d="M152.464,396.267,66.556,397.5l-15.224-28.97,64.512,1.641Z" transform="translate(-48.424 -367.615)" fill="#e8e8e8" fill-rule="evenodd"/><path d="M151.881,396.219l-85.248,1.138-15.3-28.891,63.93,1.653Z" transform="translate(-47.842 -367.566)" fill="#e7e7e7" fill-rule="evenodd"/><path d="M151.3,396.17l-84.589,1.047-15.38-28.812,63.349,1.665Z" transform="translate(-47.26 -367.518)" fill="#e6e6e6" fill-rule="evenodd"/><path d="M150.718,396.122l-83.93.956L51.331,368.345l62.767,1.677Z" transform="translate(-46.678 -367.469)" fill="#e5e5e5" fill-rule="evenodd"/><path d="M150.136,396.073l-83.271.865L51.331,368.284l62.185,1.689Z" transform="translate(-46.097 -367.42)" fill="#e4e4e4" fill-rule="evenodd"/><path d="M149.554,396.025l-82.611.774L51.33,368.224l61.6,1.7Z" transform="translate(-45.514 -367.372)" fill="#e3e3e3" fill-rule="evenodd"/><path d="M148.974,395.976l-81.952.683-15.69-28.5,61.022,1.713Z" transform="translate(-44.935 -367.323)" fill="#e2e2e2" fill-rule="evenodd"/><path d="M148.392,395.927l-81.293.592L51.331,368.1l60.441,1.725Z" transform="translate(-44.352 -367.275)" fill="#e1e1e1" fill-rule="evenodd"/><path d="M147.81,395.879l-80.634.5L51.331,368.042l59.859,1.737Z" transform="translate(-43.77 -367.226)" fill="#e0e0e0" fill-rule="evenodd"/><path d="M147.227,395.83l-79.974.41L51.33,367.981l59.278,1.749Z" transform="translate(-43.188 -367.178)" fill="#dedede" fill-rule="evenodd"/><path d="M146.647,395.782l-79.315.319-16-28.179,58.7,1.761Z" transform="translate(-42.607 -367.129)" fill="#ddd" fill-rule="evenodd"/><path d="M146.064,395.733l-78.656.228L51.33,367.86l58.114,1.773Z" transform="translate(-42.025 -367.08)" fill="#dcdcdc" fill-rule="evenodd"/><path d="M145.484,395.685l-78,.137L51.331,367.8l57.533,1.785Z" transform="translate(-41.444 -367.032)" fill="#dbdbdb" fill-rule="evenodd"/><path d="M144.9,395.636l-77.338.046L51.332,367.739l56.951,1.8Z" transform="translate(-40.863 -366.983)" fill="#dadada" fill-rule="evenodd"/><path d="M144.32,395.587l-76.678-.045L51.331,367.679l56.37,1.809Z" transform="translate(-40.281 -366.935)" fill="#d9d9d9" fill-rule="evenodd"/><path d="M143.739,395.539,67.719,395.4,51.331,367.619l55.788,1.821Z" transform="translate(-39.699 -366.887)" fill="#d8d8d8" fill-rule="evenodd"/><path d="M143.157,395.491l-75.36-.228-16.466-27.7,55.206,1.833Z" transform="translate(-39.118 -366.838)" fill="#d7d7d7" fill-rule="evenodd"/><path d="M142.576,395.442l-74.7-.318L51.331,367.5l54.625,1.845Z" transform="translate(-38.536 -366.789)" fill="#d6d6d6" fill-rule="evenodd"/><path d="M141.993,395.393l-74.042-.41L51.33,367.436l54.043,1.857Z" transform="translate(-37.953 -366.741)" fill="#d5d5d5" fill-rule="evenodd"/><path d="M141.413,395.346l-73.382-.5-16.7-27.468,53.461,1.869Z" transform="translate(-37.374 -366.693)" fill="#d4d4d4" fill-rule="evenodd"/><path d="M140.831,395.3,68.107,394.7,51.331,367.315l52.88,1.881Z" transform="translate(-36.791 -366.643)" fill="#d3d3d3" fill-rule="evenodd"/><path d="M140.249,395.249l-72.064-.683-16.854-27.31,52.3,1.893Z" transform="translate(-36.21 -366.596)" fill="#d2d2d2" fill-rule="evenodd"/><path d="M139.668,395.2l-71.4-.774L51.331,367.194l51.717,1.9Z" transform="translate(-35.628 -366.547)" fill="#d1d1d1" fill-rule="evenodd"/><path d="M139.086,395.151l-70.745-.865L51.331,367.134l51.135,1.917Z" transform="translate(-35.046 -366.498)" fill="#d0d0d0" fill-rule="evenodd"/><path d="M138.5,395.1l-70.086-.956L51.33,367.074,101.883,369Z" transform="translate(-34.464 -366.45)" fill="#cfcfcf" fill-rule="evenodd"/><path d="M137.923,395.053,68.5,394.007,51.331,367.013l49.972,1.941Z" transform="translate(-33.883 -366.401)" fill="#cecece" fill-rule="evenodd"/><path d="M137.341,395.006l-68.768-1.138L51.331,366.953l49.39,1.953Z" transform="translate(-33.302 -366.353)" fill="#cdcdcd" fill-rule="evenodd"/><path d="M136.76,394.956l-68.109-1.229-17.32-26.835,48.809,1.965Z" transform="translate(-32.72 -366.304)" fill="#ccc" fill-rule="evenodd"/><path d="M136.179,394.908l-67.449-1.32-17.4-26.757,48.227,1.977Z" transform="translate(-32.14 -366.255)" fill="#cbcbcb" fill-rule="evenodd"/><path d="M135.6,394.859l-66.79-1.411L51.331,366.771l47.645,1.989Z" transform="translate(-31.557 -366.207)" fill="#cacaca" fill-rule="evenodd"/><path d="M135.015,394.811l-66.131-1.5-17.553-26.6,47.064,2Z" transform="translate(-30.975 -366.159)" fill="#c9c9c9" fill-rule="evenodd"/><path d="M134.433,394.762l-65.472-1.593-17.63-26.52,46.482,2.013Z" transform="translate(-30.394 -366.109)" fill="#c8c8c8" fill-rule="evenodd"/><path d="M133.852,394.713,69.039,393.03,51.331,366.589l45.9,2.025Z" transform="translate(-29.812 -366.061)" fill="#c7c7c7" fill-rule="evenodd"/><path d="M133.27,394.665,69.117,392.89,51.331,366.529l45.319,2.037Z" transform="translate(-29.231 -366.013)" fill="#c6c6c6" fill-rule="evenodd"/><path d="M132.689,394.617,69.2,392.751,51.332,366.469l44.738,2.049Z" transform="translate(-28.65 -365.965)" fill="#c5c5c5" fill-rule="evenodd"/><path d="M132.107,394.568l-62.835-1.957-17.941-26.2,44.156,2.061Z" transform="translate(-28.067 -365.916)" fill="#c4c4c4" fill-rule="evenodd"/><path d="M131.525,394.52l-62.176-2.048L51.331,366.348l43.574,2.072Z" transform="translate(-27.486 -365.868)" fill="#c2c2c2" fill-rule="evenodd"/><path d="M130.943,394.471l-61.517-2.139-18.1-26.045,42.993,2.084Z" transform="translate(-26.903 -365.819)" fill="#c1c1c1" fill-rule="evenodd"/><path d="M130.362,394.422,69.5,392.192,51.331,366.226l42.411,2.1Z" transform="translate(-26.323 -365.77)" fill="silver" fill-rule="evenodd"/><path d="M129.78,394.374l-60.2-2.321L51.331,366.166l41.829,2.108Z" transform="translate(-25.741 -365.722)" fill="#bfbfbf" fill-rule="evenodd"/><path d="M129.2,394.325,69.66,391.913,51.331,366.105l41.248,2.121Z" transform="translate(-25.159 -365.673)" fill="#bebebe" fill-rule="evenodd"/><path d="M128.617,394.277l-58.88-2.5L51.331,366.045,92,368.177Z" transform="translate(-24.578 -365.625)" fill="#bdbdbd" fill-rule="evenodd"/><path d="M128.036,394.228l-58.22-2.594-18.484-25.65,40.085,2.145Z" transform="translate(-23.996 -365.576)" fill="#bcbcbc" fill-rule="evenodd"/><path d="M127.453,394.18l-57.561-2.685L51.33,365.924l39.5,2.156Z" transform="translate(-23.414 -365.528)" fill="#bbb" fill-rule="evenodd"/><path d="M126.872,394.132l-56.9-2.777L51.331,365.863l38.922,2.169Z" transform="translate(-22.833 -365.479)" fill="#bababa" fill-rule="evenodd"/><path d="M126.292,394.083l-56.243-2.868L51.332,365.8l38.34,2.18Z" transform="translate(-22.253 -365.431)" fill="#b9b9b9" fill-rule="evenodd"/><path d="M125.71,394.034l-55.584-2.958L51.332,365.742l37.758,2.192Z" transform="translate(-21.671 -365.382)" fill="#b8b8b8" fill-rule="evenodd"/><path d="M125.13,393.986l-54.924-3.049L51.333,365.682l37.177,2.2Z" transform="translate(-21.091 -365.334)" fill="#b7b7b7" fill-rule="evenodd"/><path d="M124.547,393.937,70.282,390.8l-18.95-25.176,36.6,2.216Z" transform="translate(-20.508 -365.285)" fill="#b6b6b6" fill-rule="evenodd"/><path d="M123.965,393.889l-53.606-3.232-19.027-25.1,36.014,2.229Z" transform="translate(-19.926 -365.236)" fill="#b5b5b5" fill-rule="evenodd"/><path d="M123.384,393.84l-52.947-3.323L51.332,365.5l35.432,2.241Z" transform="translate(-19.345 -365.187)" fill="#b4b4b4" fill-rule="evenodd"/><path d="M122.8,393.791l-52.287-3.414L51.332,365.439l34.851,2.253Z" transform="translate(-18.763 -365.139)" fill="#b3b3b3" fill-rule="evenodd"/><path d="M122.22,393.743l-51.628-3.5-19.26-24.859L85.6,367.643Z" transform="translate(-18.18 -365.091)" fill="#b2b2b2" fill-rule="evenodd"/><path d="M121.64,393.694l-50.969-3.6-19.338-24.78,33.687,2.277Z" transform="translate(-17.601 -365.042)" fill="#b1b1b1" fill-rule="evenodd"/><path d="M121.057,393.646l-50.31-3.687-19.416-24.7,33.106,2.289Z" transform="translate(-17.018 -364.994)" fill="#b0b0b0" fill-rule="evenodd"/><path d="M120.476,393.6l-49.651-3.778L51.332,365.2l32.524,2.3Z" transform="translate(-16.437 -364.945)" fill="#afafaf" fill-rule="evenodd"/><path d="M119.894,393.549,70.9,389.68,51.332,365.137l31.943,2.312Z" transform="translate(-15.855 -364.897)" fill="#aeaeae" fill-rule="evenodd"/><path d="M119.313,393.5,70.98,389.54,51.332,365.076,82.693,367.4Z" transform="translate(-15.273 -364.848)" fill="#adadad" fill-rule="evenodd"/><path d="M118.73,393.452,71.057,389.4,51.331,365.016l30.779,2.336Z" transform="translate(-14.691 -364.8)" fill="#acacac" fill-rule="evenodd"/><path d="M118.149,393.4l-47.014-4.142-19.8-24.306,30.2,2.348Z" transform="translate(-14.11 -364.751)" fill="#ababab" fill-rule="evenodd"/><path d="M117.569,393.355l-46.355-4.233L51.333,364.895l29.616,2.361Z" transform="translate(-13.53 -364.703)" fill="#aaa" fill-rule="evenodd"/><path d="M116.986,393.306l-45.7-4.324L51.332,364.834l29.035,2.372Z" transform="translate(-12.947 -364.654)" fill="#a9a9a9" fill-rule="evenodd"/><path d="M116.406,393.257,71.37,388.842,51.333,364.773l28.453,2.385Z" transform="translate(-12.367 -364.605)" fill="#a8a8a8" fill-rule="evenodd"/><path d="M115.823,393.209,71.446,388.7l-20.114-23.99,27.871,2.4Z" transform="translate(-11.784 -364.557)" fill="#a6a6a6" fill-rule="evenodd"/><path d="M115.241,393.16l-43.718-4.6L51.332,364.652l27.29,2.409Z" transform="translate(-11.202 -364.508)" fill="#a5a5a5" fill-rule="evenodd"/><path d="M114.659,393.112,71.6,388.424l-20.27-23.832,26.708,2.42Z" transform="translate(-10.62 -364.46)" fill="#a4a4a4" fill-rule="evenodd"/><path d="M114.079,393.063l-42.4-4.78L51.333,364.531l26.127,2.433Z" transform="translate(-10.04 -364.411)" fill="#a3a3a3" fill-rule="evenodd"/><path d="M113.5,393.016l-41.74-4.87L51.332,364.472l25.545,2.444Z" transform="translate(-9.458 -364.364)" fill="#a2a2a2" fill-rule="evenodd"/><path d="M112.915,392.966,71.835,388l-20.5-23.595L76.3,366.866Z" transform="translate(-8.876 -364.314)" fill="#a1a1a1" fill-rule="evenodd"/><path d="M112.334,392.918l-40.422-5.052L51.332,364.35l24.382,2.468Z" transform="translate(-8.294 -364.266)" fill="#a0a0a0" fill-rule="evenodd"/><path d="M111.752,392.869,71.99,387.726,51.332,364.289l23.8,2.48Z" transform="translate(-7.713 -364.217)" fill="#9f9f9f" fill-rule="evenodd"/><path d="M111.169,392.821l-39.1-5.234L51.331,364.229l23.218,2.492Z" transform="translate(-7.13 -364.169)" fill="#9e9e9e" fill-rule="evenodd"/><path d="M110.589,392.773l-38.444-5.326L51.332,364.169l22.637,2.5Z" transform="translate(-6.55 -364.121)" fill="#9d9d9d" fill-rule="evenodd"/><path d="M110.007,392.723l-37.785-5.417-20.891-23.2,22.056,2.516Z" transform="translate(-5.968 -364.071)" fill="#9c9c9c" fill-rule="evenodd"/><path d="M109.426,392.675,72.3,387.167l-20.968-23.12,21.474,2.528Z" transform="translate(-5.386 -364.023)" fill="#9b9b9b" fill-rule="evenodd"/><path d="M108.844,392.626l-36.466-5.6L51.332,363.986l20.892,2.54Z" transform="translate(-4.805 -363.974)" fill="#9a9a9a" fill-rule="evenodd"/><path d="M108.261,392.579l-35.807-5.69L51.331,363.927l20.31,2.552Z" transform="translate(-4.221 -363.927)" fill="#999" fill-rule="evenodd"/></g><g transform="translate(2.928 30.63)" opacity="0.502" style="mix-blend-mode:multiply;isolation:isolate"><path d="M540.475,447.227l-48.9,1.4,9.97-18.972,35.213.79Z" transform="translate(-491.578 -428.863)" fill="#ededed" fill-rule="evenodd"/><path d="M540.065,447.187l-48.487,1.339,9.88-18.921,34.894.8Z" transform="translate(-491.169 -428.822)" fill="#ececec" fill-rule="evenodd"/><path d="M539.656,447.147l-48.078,1.278,9.79-18.869,34.574.81Q537.8,438.757,539.656,447.147Z" transform="translate(-490.759 -428.783)" fill="#ebebeb" fill-rule="evenodd"/><path d="M539.246,447.107l-47.668,1.216,9.7-18.818,34.255.82Q537.39,438.717,539.246,447.107Z" transform="translate(-490.35 -428.743)" fill="#eaeaea" fill-rule="evenodd"/><path d="M538.837,447.068l-47.259,1.155,9.611-18.766,33.935.83Q536.981,438.677,538.837,447.068Z" transform="translate(-489.94 -428.704)" fill="#e9e9e9" fill-rule="evenodd"/><path d="M538.428,447.028l-46.849,1.094,9.521-18.715,33.616.84Q536.572,438.637,538.428,447.028Z" transform="translate(-489.532 -428.664)" fill="#e8e8e8" fill-rule="evenodd"/><path d="M538.018,446.989l-46.44,1.033,9.431-18.663,33.3.85Z" transform="translate(-489.122 -428.624)" fill="#e7e7e7" fill-rule="evenodd"/><path d="M537.609,446.949l-46.031.971,9.341-18.612,32.977.859Q535.753,438.559,537.609,446.949Z" transform="translate(-488.712 -428.585)" fill="#e6e6e6" fill-rule="evenodd"/><path d="M537.2,446.91l-45.622.91,9.251-18.56,32.657.869Z" transform="translate(-488.303 -428.546)" fill="#e5e5e5" fill-rule="evenodd"/><path d="M536.79,446.87l-45.212.849,9.161-18.509,32.338.879Q534.934,438.479,536.79,446.87Z" transform="translate(-487.894 -428.505)" fill="#e4e4e4" fill-rule="evenodd"/><path d="M536.381,446.83l-44.8.788,9.071-18.457,32.019.889Q534.525,438.439,536.381,446.83Z" transform="translate(-487.484 -428.465)" fill="#e3e3e3" fill-rule="evenodd"/><path d="M535.972,446.79l-44.393.726,8.981-18.406,31.7.9Z" transform="translate(-487.076 -428.426)" fill="#e2e2e2" fill-rule="evenodd"/><path d="M535.562,446.75l-43.984.665,8.891-18.354,31.38.908Q533.706,438.36,535.562,446.75Z" transform="translate(-486.666 -428.386)" fill="#e1e1e1" fill-rule="evenodd"/><path d="M535.153,446.712l-43.575.6,8.8-18.3,31.06.918Z" transform="translate(-486.257 -428.348)" fill="#e0e0e0" fill-rule="evenodd"/><path d="M534.744,446.672l-43.166.542,8.711-18.251,30.741.928Z" transform="translate(-485.847 -428.307)" fill="#dedede" fill-rule="evenodd"/><path d="M534.334,446.633l-42.756.481,8.622-18.2,30.422.937Q532.478,438.242,534.334,446.633Z" transform="translate(-485.438 -428.268)" fill="#ddd" fill-rule="evenodd"/><path d="M533.925,446.592l-42.347.42,8.531-18.148,30.1.947Q532.069,438.2,533.925,446.592Z" transform="translate(-485.028 -428.228)" fill="#dcdcdc" fill-rule="evenodd"/><path d="M533.516,446.552l-41.938.359,8.442-18.1,29.783.957Q531.659,438.162,533.516,446.552Z" transform="translate(-484.619 -428.188)" fill="#dbdbdb" fill-rule="evenodd"/><path d="M533.107,446.514l-41.528.3,8.352-18.045,29.463.967Z" transform="translate(-484.211 -428.15)" fill="#dadada" fill-rule="evenodd"/><path d="M532.7,446.475l-41.119.236,8.262-17.994,29.144.977Q530.841,438.084,532.7,446.475Z" transform="translate(-483.8 -428.11)" fill="#d9d9d9" fill-rule="evenodd"/><path d="M532.288,446.434l-40.71.175,8.172-17.942,28.825.986Z" transform="translate(-483.391 -428.07)" fill="#d8d8d8" fill-rule="evenodd"/><path d="M531.878,446.394l-40.3.114,8.082-17.891,28.505,1Q530.022,438,531.878,446.394Z" transform="translate(-482.982 -428.03)" fill="#d7d7d7" fill-rule="evenodd"/><path d="M531.469,446.354l-39.891.052,7.992-17.84,28.186,1.006Q529.613,437.963,531.469,446.354Z" transform="translate(-482.573 -427.99)" fill="#d6d6d6" fill-rule="evenodd"/><path d="M531.06,446.316l-39.482-.009,7.9-17.788,27.866,1.016Z" transform="translate(-482.163 -427.951)" fill="#d5d5d5" fill-rule="evenodd"/><path d="M530.651,446.277l-39.072-.07,7.812-17.737,27.547,1.026Z" transform="translate(-481.755 -427.912)" fill="#d4d4d4" fill-rule="evenodd"/><path d="M530.241,446.236l-38.663-.131L499.3,428.42l27.228,1.035Q528.385,437.846,530.241,446.236Z" transform="translate(-481.344 -427.872)" fill="#d3d3d3" fill-rule="evenodd"/><path d="M529.832,446.2,491.578,446l7.632-17.634,26.908,1.045Q527.975,437.806,529.832,446.2Z" transform="translate(-480.935 -427.833)" fill="#d2d2d2" fill-rule="evenodd"/><path d="M529.422,446.156l-37.844-.254,7.542-17.582,26.589,1.055Q527.566,437.765,529.422,446.156Z" transform="translate(-480.526 -427.792)" fill="#d1d1d1" fill-rule="evenodd"/><path d="M529.013,446.117l-37.435-.315,7.452-17.531,26.269,1.065Z" transform="translate(-480.116 -427.753)" fill="#d0d0d0" fill-rule="evenodd"/><path d="M528.6,446.078l-37.026-.376,7.363-17.479,25.95,1.074Z" transform="translate(-479.707 -427.714)" fill="#cfcfcf" fill-rule="evenodd"/><path d="M528.194,446.038l-36.616-.438,7.273-17.428,25.63,1.084Z" transform="translate(-479.298 -427.674)" fill="#cecece" fill-rule="evenodd"/><path d="M527.785,446l-36.207-.5,7.183-17.376,25.311,1.094Z" transform="translate(-478.889 -427.635)" fill="#cdcdcd" fill-rule="evenodd"/><path d="M527.376,445.959l-35.8-.56,7.093-17.325,24.992,1.1Z" transform="translate(-478.479 -427.595)" fill="#ccc" fill-rule="evenodd"/><path d="M526.967,445.92l-35.388-.622,7-17.273,24.672,1.114Z" transform="translate(-478.071 -427.555)" fill="#cbcbcb" fill-rule="evenodd"/><path d="M526.557,445.88l-34.979-.683,6.913-17.222,24.353,1.123Z" transform="translate(-477.661 -427.516)" fill="#cacaca" fill-rule="evenodd"/><path d="M526.148,445.84l-34.57-.744,6.823-17.17,24.034,1.133Z" transform="translate(-477.251 -427.476)" fill="#c9c9c9" fill-rule="evenodd"/><path d="M525.738,445.8,491.578,445l6.733-17.119,23.714,1.143Q523.882,437.41,525.738,445.8Z" transform="translate(-476.842 -427.437)" fill="#c8c8c8" fill-rule="evenodd"/><path d="M525.329,445.761l-33.751-.867,6.643-17.067,23.395,1.153Q523.473,437.37,525.329,445.761Z" transform="translate(-476.432 -427.397)" fill="#c7c7c7" fill-rule="evenodd"/><path d="M524.92,445.722l-33.342-.928,6.553-17.016,23.075,1.163Z" transform="translate(-476.023 -427.357)" fill="#c6c6c6" fill-rule="evenodd"/><path d="M524.511,445.682l-32.932-.989,6.464-16.965L520.8,428.9Z" transform="translate(-475.615 -427.317)" fill="#c5c5c5" fill-rule="evenodd"/><path d="M524.1,445.643l-32.523-1.05,6.374-16.913,22.436,1.182Z" transform="translate(-475.204 -427.279)" fill="#c4c4c4" fill-rule="evenodd"/><path d="M523.692,445.6l-32.114-1.111,6.284-16.862,22.117,1.192Q521.836,437.212,523.692,445.6Z" transform="translate(-474.795 -427.239)" fill="#c2c2c2" fill-rule="evenodd"/><path d="M523.282,445.563l-31.7-1.173,6.194-16.81,21.8,1.2Z" transform="translate(-474.386 -427.198)" fill="#c1c1c1" fill-rule="evenodd"/><path d="M522.873,445.524l-31.295-1.234,6.1-16.759,21.478,1.212Q521.017,437.133,522.873,445.524Z" transform="translate(-473.977 -427.159)" fill="silver" fill-rule="evenodd"/><path d="M522.464,445.484l-30.886-1.3,6.014-16.707L518.75,428.7Q520.607,437.093,522.464,445.484Z" transform="translate(-473.567 -427.119)" fill="#bfbfbf" fill-rule="evenodd"/><path d="M522.054,445.445l-30.476-1.357,5.924-16.655,20.839,1.231Z" transform="translate(-473.158 -427.081)" fill="#bebebe" fill-rule="evenodd"/><path d="M521.645,445.4l-30.067-1.418,5.834-16.6,20.52,1.241Z" transform="translate(-472.748 -427.041)" fill="#bdbdbd" fill-rule="evenodd"/><path d="M521.236,445.366l-29.658-1.479,5.744-16.553,20.2,1.251Z" transform="translate(-472.339 -427.001)" fill="#bcbcbc" fill-rule="evenodd"/><path d="M520.826,445.326l-29.248-1.54,5.654-16.5,19.881,1.26Q518.97,436.935,520.826,445.326Z" transform="translate(-471.93 -426.961)" fill="#bbb" fill-rule="evenodd"/><path d="M520.417,445.286l-28.839-1.6,5.564-16.45,19.562,1.27Z" transform="translate(-471.52 -426.922)" fill="#bababa" fill-rule="evenodd"/><path d="M520.009,445.246l-28.43-1.663,5.474-16.4,19.242,1.28Z" transform="translate(-471.112 -426.882)" fill="#b9b9b9" fill-rule="evenodd"/><path d="M519.6,445.208l-28.02-1.724,5.384-16.347,18.923,1.29Z" transform="translate(-470.703 -426.843)" fill="#b8b8b8" fill-rule="evenodd"/><path d="M519.19,445.168l-27.611-1.785,5.295-16.3,18.6,1.3Z" transform="translate(-470.294 -426.803)" fill="#b7b7b7" fill-rule="evenodd"/><path d="M518.781,445.127l-27.2-1.846,5.2-16.244,18.284,1.309Z" transform="translate(-469.884 -426.763)" fill="#b6b6b6" fill-rule="evenodd"/><path d="M518.371,445.088l-26.792-1.908,5.115-16.192,17.965,1.319Z" transform="translate(-469.475 -426.724)" fill="#b5b5b5" fill-rule="evenodd"/><path d="M517.962,445.048l-26.383-1.969,5.025-16.141,17.645,1.329Z" transform="translate(-469.066 -426.684)" fill="#b4b4b4" fill-rule="evenodd"/><path d="M517.553,445.01l-25.974-2.03,4.935-16.089,17.326,1.339Q515.7,436.619,517.553,445.01Z" transform="translate(-468.656 -426.645)" fill="#b3b3b3" fill-rule="evenodd"/><path d="M517.142,444.969l-25.564-2.092,4.845-16.038,17.006,1.348Z" transform="translate(-468.246 -426.605)" fill="#b2b2b2" fill-rule="evenodd"/><path d="M516.734,444.93l-25.155-2.153,4.755-15.986,16.687,1.358Z" transform="translate(-467.838 -426.566)" fill="#b1b1b1" fill-rule="evenodd"/><path d="M516.324,444.89l-24.745-2.214q2.333-7.967,4.665-15.935l16.368,1.368Z" transform="translate(-467.428 -426.526)" fill="#b0b0b0" fill-rule="evenodd"/><path d="M515.915,444.85l-24.336-2.275q2.288-7.942,4.575-15.884l16.048,1.378Z" transform="translate(-467.019 -426.486)" fill="#afafaf" fill-rule="evenodd"/><path d="M515.506,444.811l-23.927-2.337,4.485-15.832,15.729,1.388Z" transform="translate(-466.61 -426.446)" fill="#aeaeae" fill-rule="evenodd"/><path d="M515.1,444.772l-23.518-2.4,4.4-15.781,15.409,1.4Z" transform="translate(-466.2 -426.407)" fill="#adadad" fill-rule="evenodd"/><path d="M514.686,444.732l-23.108-2.459,4.305-15.729,15.09,1.407Q512.83,436.341,514.686,444.732Z" transform="translate(-465.79 -426.368)" fill="#acacac" fill-rule="evenodd"/><path d="M514.278,444.692l-22.7-2.521,4.216-15.677,14.77,1.417Z" transform="translate(-465.382 -426.328)" fill="#ababab" fill-rule="evenodd"/><path d="M513.869,444.653l-22.29-2.582,4.126-15.626,14.451,1.427Z" transform="translate(-464.972 -426.288)" fill="#aaa" fill-rule="evenodd"/><path d="M513.459,444.614l-21.88-2.643,4.036-15.574,14.132,1.437Z" transform="translate(-464.563 -426.249)" fill="#a9a9a9" fill-rule="evenodd"/><path d="M513.05,444.574l-21.471-2.7q1.973-7.762,3.946-15.523l13.812,1.446Z" transform="translate(-464.154 -426.21)" fill="#a8a8a8" fill-rule="evenodd"/><path d="M512.641,444.534l-21.061-2.766,3.856-15.472,13.493,1.456Z" transform="translate(-463.744 -426.17)" fill="#a6a6a6" fill-rule="evenodd"/><path d="M512.231,444.495l-20.652-2.827,3.766-15.42,13.173,1.466Z" transform="translate(-463.335 -426.13)" fill="#a5a5a5" fill-rule="evenodd"/><path d="M511.821,444.455l-20.243-2.888,3.676-15.369,12.854,1.476Z" transform="translate(-462.924 -426.09)" fill="#a4a4a4" fill-rule="evenodd"/><path d="M511.413,444.415l-19.834-2.949,3.586-15.317,12.535,1.486Z" transform="translate(-462.516 -426.05)" fill="#a3a3a3" fill-rule="evenodd"/><path d="M511,444.376l-19.424-3.01,3.5-15.266,12.215,1.5Z" transform="translate(-462.107 -426.012)" fill="#a2a2a2" fill-rule="evenodd"/><path d="M510.594,444.336l-19.015-3.072,3.406-15.214,11.9,1.5Z" transform="translate(-461.698 -425.972)" fill="#a1a1a1" fill-rule="evenodd"/><path d="M510.185,444.3l-18.606-3.133L494.9,426l11.576,1.515Z" transform="translate(-461.288 -425.932)" fill="#a0a0a0" fill-rule="evenodd"/><path d="M509.775,444.257l-18.2-3.194,3.226-15.111,11.257,1.525Z" transform="translate(-460.879 -425.892)" fill="#9f9f9f" fill-rule="evenodd"/><path d="M509.365,444.217l-17.787-3.256,3.136-15.06,10.938,1.535Z" transform="translate(-460.468 -425.852)" fill="#9e9e9e" fill-rule="evenodd"/><path d="M508.956,444.178l-17.377-3.317,3.046-15.008,10.618,1.544Z" transform="translate(-460.06 -425.814)" fill="#9d9d9d" fill-rule="evenodd"/><path d="M508.547,444.138l-16.968-3.378q1.479-7.478,2.956-14.957l10.3,1.554Z" transform="translate(-459.651 -425.774)" fill="#9c9c9c" fill-rule="evenodd"/><path d="M508.138,444.1l-16.559-3.439,2.867-14.905,9.979,1.564Z" transform="translate(-459.242 -425.734)" fill="#9b9b9b" fill-rule="evenodd"/><path d="M507.728,444.059l-16.149-3.5,2.777-14.854,9.66,1.573Z" transform="translate(-458.832 -425.694)" fill="#9a9a9a" fill-rule="evenodd"/><path d="M507.318,444.02l-15.74-3.562,2.687-14.8,9.34,1.583Z" transform="translate(-458.422 -425.655)" fill="#999" fill-rule="evenodd"/></g><path d="M105.806,279.669l-39.338-3.688-17.1,38.675,51.821,5.425,40.681-9.557,46.953,7.908L170.2,278.967l-33.986-7.881Z" transform="translate(-49.364 -271.086)" fill="#c8c8c8" fill-rule="evenodd"/><path d="M56.97,311.24q11.645,1.967,23.29,3.923l23.28,3.918q-4.6-9.733-9.194-19.48-4.591-9.732-9.189-19.489-8.45-1.966-16.905-3.923t-16.921-3.923q1.418,9.747,2.825,19.494T56.97,311.24Z" transform="translate(35.526 -272.032)" fill="#fff" fill-rule="evenodd"/><path d="M72.231,314.511l21.823,3.7q10.9,1.85,21.813,3.7-4.174-9.207-8.353-18.413t-8.348-18.422q-8.066-1.854-16.132-3.7t-16.132-3.7q1.331,9.213,2.668,18.422Z" transform="translate(20.113 -276.37)" fill="#e4ddd7" fill-rule="evenodd"/><path d="M202.479,436.554q4.245,2.05,8.615,4.1c2.932,1.372,5.915,2.734,8.922,4.1q-2.584-.435-5.179-.876c-2.057-.941-4.112-1.884-6.135-2.828s-4-1.891-5.993-2.842C202.631,437.654,202.552,437.1,202.479,436.554Z" transform="translate(-110.903 -403.764)" fill="#fff" fill-rule="evenodd"/><path d="M111.874,357.882q9.3,1.847,18.586,3.7t18.581,3.7c.2.431.392.862.585,1.292q-9.39-1.854-18.78-3.7t-18.79-3.7C112,358.748,111.937,358.313,111.874,357.882Z" transform="translate(-22.558 -340.682)" fill="#fff" fill-rule="evenodd"/><path d="M266.078,364.455c1.759,0,3.5-.019,5.231-.028.6.464,1.185.922,1.775,1.376-2.245.014-4.516.033-6.8.042C266.214,365.387,266.146,364.918,266.078,364.455Z" transform="translate(-176.574 -345.93)" fill="#fff" fill-rule="evenodd"/><path d="M138.608,440.794c-.652-.459-1.316-.918-1.968-1.381q6.813-.6,13.371-1.2,6.422-.594,12.593-1.208c.694.463,1.394.927,2.093,1.381q-6.2.6-12.66,1.2Q145.466,440.2,138.608,440.794Z" transform="translate(-42.537 -404.124)" fill="#fff" fill-rule="evenodd"/><path d="M216.453,414.659c-.272.337-.548.665-.825.993q-4.714-1.706-9.345-3.422-4.584-1.7-9.1-3.422c-.016-.112-.036-.225-.052-.342.251-.253.491-.506.731-.758,3.028,1.161,6.09,2.329,9.173,3.483C210.143,412.354,213.289,413.5,216.453,414.659Z" transform="translate(-106.279 -380.634)" fill="#fff" fill-rule="evenodd"/><path d="M128.348,390.374q-7.009-1.91-13.934-3.83-6.877-1.9-13.673-3.834c0-.407-.005-.819-.01-1.227q6.649,1.9,13.381,3.792,6.78,1.9,13.642,3.783C127.951,389.5,128.15,389.933,128.348,390.374Z" transform="translate(0.928 -359.606)" fill="#fff" fill-rule="evenodd"/><path d="M164.063,405.815c-.647-.454-1.3-.913-1.947-1.376,1.676-.3,3.337-.6,4.97-.913,1.614-.3,3.216-.614,4.787-.922.668.459,1.331.922,1.994,1.376q-2.373.463-4.814.922C167.415,405.208,165.75,405.516,164.063,405.815Z" transform="translate(-56.756 -376.542)" fill="#fff" fill-rule="evenodd"/><path d="M143.911,304.607q8.317.99,16.44,1.976,8.043.985,15.9,1.976c.2.431.392.866.59,1.3q-7.957-.99-16.1-1.971-8.231-1-16.644-1.98C144.036,305.473,143.974,305.043,143.911,304.607Z" transform="translate(-56.125 -297.964)" fill="#fff" fill-rule="evenodd"/><path d="M232.475,323.655c-.23.333-.465.66-.7.988-3.164-1.985-6.273-3.958-9.293-5.96-2.978-1.973-5.868-3.97-8.708-5.96-.084-.576-.167-1.157-.251-1.737,2.976,2.112,6.016,4.241,9.147,6.334C225.851,319.45,229.128,321.543,232.475,323.655Z" transform="translate(-125.549 -303.079)" fill="#fff" fill-rule="evenodd"/><path d="M133.074,337.99c-.7-.505-1.415-1.02-2.125-1.536q7.424.815,14.712,1.639,7.221.815,14.305,1.629c.2.444.4.89.606,1.334q-6.719-.766-13.569-1.531Q140.1,338.753,133.074,337.99Z" transform="translate(-37.284 -323.5)" fill="#fff" fill-rule="evenodd"/><path d="M143.82,310.607c-5.346-3.506-10.537-6.972-15.469-10.519-4.82-3.466-9.382-7.018-13.788-10.529.851.192,1.7.389,2.553.585,3.952,3.109,8.016,6.245,12.274,9.307,4.357,3.132,8.912,6.2,13.584,9.3Z" transform="translate(-17.284 -285.898)" fill="#fff" fill-rule="evenodd"/><path d="M141.909,359.989c-.752-.515-1.493-1.025-2.24-1.54q4.754.478,9.444.955l9.262.946q1.2.773,2.4,1.54-4.644-.47-9.335-.941Q146.7,360.469,141.909,359.989Z" transform="translate(-39.212 -341.137)" fill="#fff" fill-rule="evenodd"/><path d="M257.7,328.517c2.2.459,4.4.918,6.594,1.376q1.55,1.011,3.106,2.022l-4.746-.983q-2.373-.491-4.746-.978C257.841,329.472,257.773,328.995,257.7,328.517Z" transform="translate(-169.23 -317.136)" fill="#fff" fill-rule="evenodd"/><path d="M243.974,284.314c1.958.272,3.91.538,5.853.815s3.869.548,5.79.819c.679.515,1.352,1.025,2.036,1.54q-3.344-.471-6.709-.941-3.383-.471-6.792-.941C244.1,285.18,244.037,284.749,243.974,284.314Z" transform="translate(-156.762 -281.693)" fill="#fff" fill-rule="evenodd"/><path d="M294.376,405.311c-.078.084-.157.159-.235.239-.021-.122-.037-.248-.057-.37C294.183,405.222,294.282,405.269,294.376,405.311Z" transform="translate(-203.416 -378.607)" fill="#fff" fill-rule="evenodd"/><path d="M234.756,336.873q4.558,3.033,9.309,6.067c-2.423-.482-4.856-.257-7.283-.739s-4.832-1.505-7.265-1.992c-.214-1.47-.451-3.111-.665-4.581C230.83,336.045,232.793,336.457,234.756,336.873Z" transform="translate(-140.177 -322.838)" fill="#6222ee" fill-rule="evenodd"/><path d="M197.733,390.965q-3.939.759-8.04,1.5c-2.84-1.044-6.045-2.266-8.844-3.31,1.613-.552,3.591-.927,5.152-1.484q2.913.829,5.847,1.648T197.733,390.965Z" transform="translate(-84.333 -364.57)" fill="#6222ee" fill-rule="evenodd"/><path d="M249.77,311.2c1.185.843,2.386,1.695,3.592,2.542q4.088.456,8.124.913c-1.06-.819-2.114-1.629-3.159-2.448Q254.074,311.7,249.77,311.2Z" transform="translate(-161.744 -303.25)" fill="#d4cbba" fill-rule="evenodd"/><path d="M123.322,444.775c-1.8.173-3.623.352-5.461.524q-2.78.261-5.618.524,3.211,1.5,6.469,2.982c1.9-.3,3.78-.607,5.628-.918q2.741-.461,5.424-.927Q126.53,445.873,123.322,444.775Z" transform="translate(-2.769 -410.356)" fill="#6222ee" fill-rule="evenodd"/><path d="M134.005,322.965q3.391,2.507,6.9,5,4.1.471,8.15.936c-.653-1.442-1.31-2.884-1.963-4.33-2.156-.262-4.323-.537-6.495-.805S136.213,323.236,134.005,322.965Z" transform="translate(-26.369 -312.684)" fill="#6222ee" fill-rule="evenodd"/><path d="M148.285,343.968q1.488.168,2.96.328,2.96,2.268,6.03,4.527c2.066,1.516,4.182,3.015,6.317,4.522l-3.357-.491q-3.109-2.219-6.119-4.438C152.136,346.946,150.2,345.447,148.285,343.968Z" transform="translate(-43.74 -329.525)" fill="#fff" fill-rule="evenodd"/><path d="M162.557,352.169q1.833,1.285,3.7,2.556c-1.853-.187-3.722-.379-5.6-.571q-1.731-1.292-3.441-2.58Q159.894,351.869,162.557,352.169Z" transform="translate(-48.17 -335.624)" fill="#d4cbba" fill-rule="evenodd"/><g transform="translate(51.806 0.234)"><path d="M286.339,320.8q10.174-2.4,20.349-4.776t20.34-4.78q-.711-4.934-1.426-9.872a17.507,17.507,0,0,0-1.276,4.384q-1.471.262-2.942.515a20.953,20.953,0,0,1,3.683-8.6l.2,1.386-1.056-7.3q-1.41-9.741-2.82-19.5-7.593,2.147-15.193,4.29t-15.2,4.29q-1.172,10-2.332,19.981T286.339,320.8Z" transform="translate(-286.339 -272.266)" fill="#c8c8c8" fill-rule="evenodd"/><path d="M287.1,324.045q10.107-2.388,20.21-4.766t20.2-4.766q-.639-4.4-1.276-8.8a17.5,17.5,0,0,0-1.275,4.382q-1.471.262-2.942.515a20.955,20.955,0,0,1,3.682-8.595l-.854-5.911q-1.33-9.209-2.661-18.423-7.666,2.155-15.336,4.3t-15.348,4.3q-1.1,9.442-2.2,18.879T287.1,324.045Z" transform="translate(-286.972 -276.606)" fill="#b3aea9" fill-rule="evenodd"/><path d="M290,407.528c5.668,1.009,11.548,2.03,17.647,2.97,4.971.766,10.083,1.488,15.327,2.2q-.223.779-.38,1.586c-5.1-.684-10.08-1.376-14.927-2.109-6.173-.933-12.126-1.946-17.863-2.951.065-.563.13-1.13.2-1.7Zm35.67,5.537,1.56.209c.081.553.159,1.107.24,1.66q-1.756-.231-3.493-.463l1.479-.26Q325.548,413.63,325.675,413.065Z" transform="translate(-287.473 -380.724)" fill="#c8c8c8" fill-rule="evenodd"/><path d="M301.606,366.888q8.722-2.249,17.444-4.5t17.435-4.5c.065.432.126.864.187,1.291q-8.8,2.264-17.606,4.523l-17.614,4.513C301.5,367.777,301.553,367.33,301.606,366.888Z" transform="translate(-298.977 -340.919)" fill="#c8c8c8" fill-rule="evenodd"/><path d="M454.018,395.308c2.979-1.262,5.2-3.242,5.334-4.945s-1.746-2.635-4.472-2.436Q454.447,391.617,454.018,395.308Z" transform="translate(-451.898 -364.986)" fill="#cb952f" fill-rule="evenodd"/><path d="M465.99,399.664c1.587-.839,2.7-1.963,2.8-2.95s-.822-1.587-2.262-1.65Q466.258,397.363,465.99,399.664Z" transform="translate(-463.707 -370.729)" fill="#6222ee" fill-rule="evenodd"/><path d="M301.824,376.947c-.472-.238-.952-.476-1.42-.723q6.189-2.927,12.223-5.843c3.968-1.927,7.877-3.878,11.727-5.809.069.466.134.932.2,1.388-3.666,1.825-7.381,3.663-11.149,5.479Q307.7,374.188,301.824,376.947Z" transform="translate(-286.655 -346.28)" fill="#c8c8c8" fill-rule="evenodd"/><path d="M309.306,317.11q8.337-3.138,16.508-6.266,8.1-3.107,16.02-6.226c.065.432.126.864.187,1.3q-8.008,3.116-16.19,6.246-8.247,3.142-16.678,6.28C309.2,318,309.253,317.552,309.306,317.11Z" transform="translate(-305.851 -298.207)" fill="#c8c8c8" fill-rule="evenodd"/><path d="M366.267,307.99q-.934.568-1.872,1.126c-2.051-.723-4.068-1.441-6.038-2.179-1.932-.723-3.825-1.475-5.676-2.223l2.714-.757c1.725.679,3.486,1.367,5.282,2.028C362.5,306.658,364.371,307.33,366.267,307.99Z" transform="translate(-338.725 -297.677)" fill="#c8c8c8" fill-rule="evenodd"/><path d="M347.341,332.509q-1.044.6-2.091,1.194-1.074-4.7-2.075-9.41c.651-.393,1.3-.791,1.941-1.184Q346.19,327.811,347.341,332.509Z" transform="translate(-317.915 -313.033)" fill="#c8c8c8" fill-rule="evenodd"/><path d="M305.578,332.879c.041-.5.077-1,.114-1.5l5.371-1.427,5.363-1.427c.073.476.142.956.212,1.437q-2.759.735-5.526,1.461C309.273,331.9,307.421,332.389,305.578,332.879Z" transform="translate(-279.761 -317.373)" fill="#c8c8c8" fill-rule="evenodd"/><path d="M352.409,347.782q6.005-1.667,11.991-3.344t11.959-3.354c.126.461.26.927.395,1.393q-6.116,1.7-12.244,3.407c-4.08,1.128-8.178,2.271-12.28,3.4C352.291,348.787,352.348,348.287,352.409,347.782Z" transform="translate(-349.121 -327.447)" fill="#c8c8c8" fill-rule="evenodd"/><path d="M385.107,361.632c-.9.146-1.811.286-2.714.437q.037-2.752.065-5.5c.871-.092,1.746-.18,2.616-.272Q385.093,358.958,385.107,361.632Z" transform="translate(-363.452 -339.643)" fill="#c8c8c8" fill-rule="evenodd"/><path d="M427.636,372.074c-.9.141-1.8.291-2.7.437q.214-2.766.423-5.542c.863-.087,1.721-.175,2.584-.267C427.843,368.5,427.741,370.284,427.636,372.074Z" transform="translate(-414.721 -347.988)" fill="#c8c8c8" fill-rule="evenodd"/><path d="M313.69,291.075c-.537-.238-1.074-.48-1.6-.718q4.028-1.522,8.032-3.033,3.982-1.508,7.922-3.033c.061.432.126.864.187,1.3-2.393.912-4.806,1.827-7.222,2.737S316.144,290.158,313.69,291.075Z" transform="translate(-292.642 -281.908)" fill="#c8c8c8" fill-rule="evenodd"/><path d="M365.3,436.774q6.042-1.886,12.032-3.766,5.964-1.875,11.889-3.756c-.016.446-.037.888-.053,1.33q-5.945,1.878-11.938,3.747-6.011,1.874-12.081,3.761C365.194,437.653,365.247,437.211,365.3,436.774Z" transform="translate(-364.144 -398.143)" fill="#c8c8c8" fill-rule="evenodd"/><path d="M359.642,444.324c-1.147.437-2.3.878-3.454,1.315q-2.759-.495-5.469-1.014c-1.787-.34-3.552-.694-5.306-1.039l3.377-1.305q2.649.524,5.347,1.029Q356.86,443.822,359.642,444.324Z" transform="translate(-330.659 -408.59)" fill="#c8c8c8" fill-rule="evenodd"/><path d="M297.207,400.475a20.954,20.954,0,0,0-3.683,8.6q1.471-.255,2.942-.515a17.521,17.521,0,0,1,1.278-4.387Q297.476,402.326,297.207,400.475Z" transform="translate(-258.479 -375.069)" fill="#cb952f"/><path d="M311,399.831l0,0-.038-.261c.013.087.025.172.04.257Zm-1.638,1.007c-2.242-.2-4.47-.4-6.666-.609q-3.748-.355-7.422-.728c.309-.481.614-.966.915-1.451,2.393.243,4.809.489,7.255.723q3.357.321,6.779.625Q309.766,400.1,309.359,400.838Z" transform="translate(-272.078 -373.124)" fill="#c8c8c8" fill-rule="evenodd"/><path d="M336.945,458.06q-1.538-1.9-3.031-3.8,1.361-.612,2.706-1.223,1.721,2.147,3.508,4.276C339.069,457.56,338.011,457.807,336.945,458.06Z" transform="translate(-308.866 -417.211)" fill="#c8c8c8" fill-rule="evenodd"/><path d="M407.45,422.312q3.631-.91,7.259-1.815t7.259-1.825l.354,1.354q-3.76.939-7.52,1.873t-7.523,1.873C407.336,423.287,407.393,422.8,407.45,422.312Z" transform="translate(-405.599 -389.66)" fill="#c8c8c8" fill-rule="evenodd"/><path d="M328.171,433.163c-1.689.534-5.143,1.623-6.844,2.156q3.57.685,7.243,1.364,3.3-1,6.579-2.019C332.2,434.358,331.044,433.488,328.171,433.163Z" transform="translate(-301.393 -401.279)" fill="#6222ee" fill-rule="evenodd"/><path d="M311.615,340.035q-4.09,1.063-8.179,2.116c-.354-1.437-.7-2.868-1.042-4.3,1.432-.374,2.869-.742,4.3-1.112s2.856-.738,4.289-1.111Z" transform="translate(-274.108 -323.068)" fill="#6222ee" fill-rule="evenodd"/><path d="M401.823,360.212c-.02,1.446-.036,2.888-.057,4.334l-5.985,1.543c.085-1.422.171-2.849.252-4.271Q398.926,361.018,401.823,360.212Z" transform="translate(-382.821 -342.784)" fill="#a7a093" fill-rule="evenodd"/><path d="M383.251,319.966c-1.75-.621-3.467-1.252-5.155-1.878-1.506.582-3.019,1.17-4.533,1.752s-3.047,1.174-4.578,1.757c1.074.864,2.165,1.728,3.28,2.582,1.847-.7,3.691-1.407,5.522-2.106S381.436,320.67,383.251,319.966Z" transform="translate(-358.939 -309.008)" fill="#a7a093" fill-rule="evenodd"/><path d="M361.244,340.673c3.768-1.044,7.54-2.106,11.3-3.155s7.511-2.1,11.263-3.155c-.155-.713-.305-1.427-.456-2.145q-5.432,2.082-10.937,4.169-5.534,2.094-11.153,4.183A1,1,0,0,0,361.244,340.673Z" transform="translate(-357.956 -320.338)" fill="#a7a093" fill-rule="evenodd"/><path d="M309.08,448.951q9.015-2.715,17.928-5.421,8.416-2.552,16.743-5.126-.123.533-.215,1.079l1.163-.2,0,.168q-8.832,2.7-17.753,5.4-8.962,2.706-18.026,5.416C308.974,449.83,309.027,449.388,309.08,448.951Z" transform="translate(-308.49 -405.482)" fill="#cb952f" fill-rule="evenodd"/></g><path d="M485.088,297q-4.226,9.568-8.459,19.127t-8.459,19.114l25.747,2.7q12.865,1.348,25.73,2.692,1.17-9.98,2.329-19.97t2.324-19.982l-19.6-1.837Q494.9,297.925,485.088,297Z" transform="translate(-467.837 -291.867)" fill="#fff" fill-rule="evenodd"/><path d="M484.128,303.389q-3.84,9.064-7.667,18.119t-7.668,18.111q12.074,1.263,24.142,2.522t24.13,2.522q1.1-9.444,2.2-18.879t2.2-18.883L502.8,305.147Q493.474,304.271,484.128,303.389Z" transform="translate(-465.126 -296.988)" fill="#e4ddd7" fill-rule="evenodd"/><path d="M489.522,312.369c1.807,3.115,3.689,6.273,5.753,9.393,2.106,3.184,4.4,6.339,6.764,9.529l-2.986.223c-2.385-3.277-4.686-6.515-6.792-9.786-2.065-3.208-3.94-6.444-5.736-9.642C487.523,312.181,488.522,312.273,489.522,312.369Z" transform="translate(-449.212 -303.96)" fill="#fff" fill-rule="evenodd"/><path d="M541.8,401.8c-1.224,1.841-3.671,5.135-10.289,8.237a61.629,61.629,0,0,1-12.338,3.9,145.346,145.346,0,0,1-20.083,2.67c-.219.506-.432,1.017-.645,1.514a158.428,158.428,0,0,0,22.4-2.788,65.079,65.079,0,0,0,13.539-4.241c6.949-3.3,9.441-6.763,10.687-8.7C543.987,402.2,542.893,402,541.8,401.8Z" transform="translate(-494.613 -375.901)" fill="#fff"/><path d="M479.567,317.083c5.506,2.91,11.228,5.882,17.215,8.822,6.176,3.033,12.618,6.038,19.269,9.1-.061.567-.129,1.134-.2,1.7-6.73-3.076-13.258-6.085-19.522-9.132-6.063-2.949-11.866-5.938-17.457-8.857C479.107,318.174,479.332,317.628,479.567,317.083Z" transform="translate(-461.711 -307.968)" fill="#fff" fill-rule="evenodd"/><path d="M475.223,356.792q1.4-9.4,2.789-18.8t2.8-18.8c.926.087,1.852.179,2.778.262q-1.2,9.431-2.385,18.857t-2.391,18.852C477.614,357.04,476.419,356.918,475.223,356.792Z" transform="translate(-428.521 -309.662)" fill="#fff" fill-rule="evenodd"/><path d="M478.9,382.253q10.516,1.047,21.032,2.09t21.021,2.085c-.05.441-.107.886-.157,1.326q-10.6-1.053-21.212-2.112l-21.223-2.116C478.545,383.108,478.719,382.681,478.9,382.253Z" transform="translate(-466.515 -360.224)" fill="#fff" fill-rule="evenodd"/><path d="M486.432,385.326c-3.006-.295-9.368.846-9.8,2.975s5.563,4.49,8.734,4.808,2.133.14,3.115.1q.429-3.691.859-7.382C488.442,385.6,489.438,385.621,486.432,385.326Z" transform="translate(-434.55 -362.651)" fill="#fdb836" fill-rule="evenodd"/><path d="M484.022,391.792c-2.234-.22-6.348.558-6.607,2s3.57,3.009,5.883,3.242a7.924,7.924,0,0,0,3.11-.022q.27-2.3.539-4.6A7.586,7.586,0,0,0,484.022,391.792Z" transform="translate(-432.313 -367.842)" fill="#6222ee" fill-rule="evenodd"/><path d="M474.231,368.85c.034-.436.062-.881.1-1.326.993.013,1.981.022,2.958.026-.051.441-.1.886-.152,1.331C476.168,368.872,475.2,368.863,474.231,368.85Z" transform="translate(-422.022 -348.414)" fill="#fff" fill-rule="evenodd"/><path d="M475.21,374.731c-.056-.51-.107-1.017-.157-1.527q1.945.17,3.9.332c-.062.506-.118,1-.18,1.505Q476.993,374.891,475.21,374.731Z" transform="translate(-423.849 -352.968)" fill="#fff" fill-rule="evenodd"/><path d="M485.816,467.592c.112-.432.219-.864.331-1.3,1.313.057,2.616.122,3.924.179-.051.441-.1.881-.152,1.318Q487.873,467.7,485.816,467.592Z" transform="translate(-437.104 -427.609)" fill="#fff" fill-rule="evenodd"/><path d="M575.9,402.694c-1.207.087-2.414.179-3.62.262-2.133-1.924-4.228-3.831-6.236-5.755-1.977-1.894-3.873-3.8-5.731-5.7,1.156-.1,2.3-.188,3.452-.288,1.886,1.9,3.817,3.807,5.821,5.707C571.616,398.848,573.738,400.761,575.9,402.694Z" transform="translate(-537.694 -367.41)" fill="#fff" fill-rule="evenodd"/><path d="M553.825,456.839q1.238-2.7,2.442-5.4t2.368-5.423c1.224.175,2.442.345,3.665.519q-1.095,2.69-2.217,5.371t-2.3,5.349C556.464,457.114,555.144,456.979,553.825,456.839Z" transform="translate(-522.811 -411.35)" fill="#fff" fill-rule="evenodd"/><path d="M498.732,445.589c.185-.6.371-1.2.556-1.8q3.326,1.008,6.7,2.02c2.255.676,4.53,1.357,6.814,2.029-.129.611-.264,1.217-.387,1.824q-3.469-1.027-6.9-2.042Q502.1,446.61,498.732,445.589Z" transform="translate(-462.392 -409.567)" fill="#fff" fill-rule="evenodd"/><path d="M482.955,436.26c-.219-.51-.432-1.03-.651-1.54q2.3.236,4.591.463c-.056.484-.112.973-.168,1.457Z" transform="translate(-433.233 -402.294)" fill="#fff" fill-rule="evenodd"/><path d="M565.784,329.169c-.163.475-.326.955-.494,1.431q-4.715-.282-9.43-.572c-3.149-.192-6.309-.393-9.48-.585-.668-.467-1.347-.929-2.015-1.4,3.587.2,7.179.379,10.755.567Q560.457,328.9,565.784,329.169Z" transform="translate(-524.419 -316.76)" fill="#fff" fill-rule="evenodd"/><path d="M585.253,312.6q-1.886.072-3.783.131c-1.257-1.806-2.481-3.608-3.654-5.4q2.012.19,4.013.376Q583.488,310.145,585.253,312.6Z" transform="translate(-550.518 -300.147)" fill="#fff" fill-rule="evenodd"/><path d="M538.021,356.832c-.146.484-.3.969-.443,1.449-2.077-.24-4.154-.491-6.23-.733s-4.148-.489-6.225-.737q-1.1-.707-2.2-1.418,3.772.36,7.55.724T538.021,356.832Z" transform="translate(-492.408 -338.686)" fill="#fff" fill-rule="evenodd"/><path d="M558.834,309.791q1.154,2.094,2.374,4.193c-1.746-.087-3.491-.174-5.248-.27q-1.608-2.245-3.126-4.489Q555.84,309.511,558.834,309.791Z" transform="translate(-521.523 -301.666)" fill="#d4cbba" fill-rule="evenodd"/><path d="M598.721,416.243q5.3-.589,10.519-1.2c3.435-.4,6.848-.825,10.233-1.243.415.432.836.859,1.257,1.287q-5.514.681-11.147,1.339c-3.783.436-7.623.864-11.484,1.287C598.306,417.224,598.513,416.736,598.721,416.243Z" transform="translate(-590.013 -385.522)" fill="#fff" fill-rule="evenodd"/><path d="M635.8,432.978c-1.033.14-2.077.279-3.115.41q-4.26-4.457-8.161-8.857c1.016-.139,2.021-.283,3.031-.423Q631.5,428.519,635.8,432.978Z" transform="translate(-610.322 -393.785)" fill="#fff" fill-rule="evenodd"/><path d="M652.889,443.137q5.877-.8,11.636-1.636c.544.471,1.089.934,1.639,1.4q-3.443.5-6.921.977-3.518.484-7.072.955C652.407,444.272,652.643,443.7,652.889,443.137Z" transform="translate(-646.163 -407.731)" fill="#fff" fill-rule="evenodd"/><path d="M676.687,453.889c-1.106.1-2.206.2-3.318.3q-2.753-2.768-5.366-5.506c1.083-.1,2.172-.2,3.25-.31Q673.9,451.125,676.687,453.889Z" transform="translate(-659.824 -413.239)" fill="#fff" fill-rule="evenodd"/><path d="M650.761,449.735q1.516,1.63,3.076,3.264s-1.49.277-2.773.476-2.907.428-2.907.428c-1.117-1.117-2.212-2.225-3.295-3.338Q647.826,450.152,650.761,449.735Z" transform="translate(-632.388 -414.333)" fill="#6222ee" fill-rule="evenodd"/><path d="M475,374.327c.449.039.893.079,1.341.109a.684.684,0,0,1,.011-.1C475.9,374.336,475.451,374.332,475,374.327Z" transform="translate(-421.238 -353.868)" fill="#d4cbba" fill-rule="evenodd"/><path d="M614.562,325.317l11.234,5.776-2.233,6.876L609.785,336.6Z" transform="translate(-597.395 -314.571)" fill="#6222ee" fill-rule="evenodd"/><path d="M605.264,352.9l-2.532,6.914-1.815-.222,2.649-7.53Z" transform="translate(-575.106 -336.017)" fill="#fff" fill-rule="evenodd"/><path d="M510.182,317.083l-.69,1.632q14.093,7.478,28.772,14.245a7.9,7.9,0,0,1,2.336-.806Q525.044,324.745,510.182,317.083Z" transform="translate(-492.326 -307.968)" fill="#fdb836" fill-rule="evenodd"/><path d="M519.863,318.715q1.465.778,2.937,1.547v-.018q-1.478-.767-2.937-1.529Zm2.937-.447v-.03q-1.125-.576-2.247-1.155Q521.671,317.674,522.8,318.267Zm0,1.994q4.538,2.372,9.138,4.671v-.019q-4.668-2.339-9.138-4.669v.018Zm0-2.024v.03q1.056.555,2.122,1.111l.125.007q-1.126-.573-2.247-1.148Zm9.138,4.756q-2.124-1.077-4.2-2.153l.2.013q1.993,1.008,4,2.011Zm0,1.939q5.388,2.693,10.857,5.29V330.2q-2.769-1.31-5.476-2.625-2.725-1.325-5.381-2.659v.019Zm0-2.068q2.095,1.048,4.2,2.091l-.367-.035q-1.936-.963-3.836-1.927v-.129Zm10.857,5.477q-1.9-.908-3.761-1.817l.385.046q1.684.826,3.377,1.649Zm0,1.881q1.861.883,3.73,1.757l.032-.015q-1.895-.884-3.762-1.767v.025Zm0-2q3.047,1.482,6.121,2.953l-.093.023q-3.05-1.429-6.028-2.854Z" transform="translate(-502.697 -307.968)" fill="#fdb836" fill-rule="evenodd"/><path d="M289.825,407.528h0l-.016.139.016-.139Zm2.006.373q17.578,3.058,35.225,5.373l.24,1.66q-18.392-2.363-37.128-5.615A6.466,6.466,0,0,0,291.831,407.9Z" transform="translate(-235.488 -380.49)" fill="#cb952f" fill-rule="evenodd"/><path d="M202.479,436.525l.24,1.66,12.126,5.668,5.179.875Z" transform="translate(-110.911 -403.741)" fill="#fdb836" fill-rule="evenodd"/><path d="M149.036,365.412l.735,1.322-37.563-7.373-.335-1.288Z" transform="translate(-22.704 -340.836)" fill="#fdb836" fill-rule="evenodd"/><path d="M331.826,358.073l.328,1.254-30.5,7.828-.19-1.244Z" transform="translate(-242.656 -340.836)" fill="#cb952f" fill-rule="evenodd"/><path d="M567.009,385.235l-30.016-2.982-.539,1.274s29.911,3.286,30.391,3.029S568.036,385.337,567.009,385.235Z" transform="translate(-524.603 -360.224)" fill="#fdb836" fill-rule="evenodd"/><path d="M479.948,319.458l-2.778-.262-1.947,13.1a12,12,0,0,1,1.542.037c.7.069,1.19.121,1.531.163Z" transform="translate(-424.883 -309.662)" fill="#fdb836" fill-rule="evenodd"/><path d="M548.955,409.52c-1.5,1.86-4.124,4.34-9.176,6.708a61.626,61.626,0,0,1-12.338,3.9,145.359,145.359,0,0,1-20.083,2.67c-.219.506-.432,1.017-.645,1.514a158.413,158.413,0,0,0,22.4-2.788,65.076,65.076,0,0,0,13.539-4.241A26.456,26.456,0,0,0,551.7,410.8,10.4,10.4,0,0,1,548.955,409.52Z" transform="translate(-502.877 -382.087)" fill="#fdb836"/><path d="M230.064,324.109,210.583,311.2l.193,1.695L225.982,323.3Z" transform="translate(-122.557 -303.25)" fill="#fdb836" fill-rule="evenodd"/><path d="M309.719,287.866l8.185,4.624.2,1.7-10.2-5.811Z" transform="translate(-229.877 -284.541)" fill="#cb952f" fill-rule="evenodd"/><path d="M143.911,304.607l32.343,3.951.59,1.3-32.744-3.95Z" transform="translate(-56.125 -297.965)" fill="#fdb836" fill-rule="evenodd"/><path d="M341.349,304.618l.27,1.325q-16.267,6.328-32.885,12.472.1-.746.209-1.492Z" transform="translate(-253.561 -297.973)" fill="#cb952f" fill-rule="evenodd"/><path d="M475.829,366.957l-1.632-.066.023,1.469,1.446.013Z" transform="translate(-420.56 -347.906)" fill="#fdb836" fill-rule="evenodd"/><path d="M120.351,409.812q-10.157-3.406-20-6.812c-5.9-2.058-11.71-4.152-17.43-6.234.491-.274,1-.523,1.519-.75,5.274,1.931,10.63,3.873,16.063,5.786,6.3,2.216,12.713,4.4,19.213,6.6C119.928,408.871,120.142,409.344,120.351,409.812Z" transform="translate(12.455 -371.259)" fill="#fdb836" fill-rule="evenodd"/><path d="M488.648,478.892c.112-.432.224-.868.337-1.3,1.487.083,46.756,2.709,48.233,2.779-.056.441-.107.881-.157,1.318C535.528,481.6,490.192,478.97,488.648,478.892Z" transform="translate(-484.813 -436.666)" fill="#fdb836" fill-rule="evenodd"/><path d="M216.194,376.215c-1.321.047-3.18.13-5.242.389a34.035,34.035,0,0,0-6.631,1.447,19,19,0,0,0-5.769,2.978q.259,1.84.527,3.689a14.381,14.381,0,0,1,7.711-5.3,30.994,30.994,0,0,1,6.187-1.344c1.937-.235,3.675-.314,4.923-.365Q217.04,376.964,216.194,376.215Z" transform="translate(-108.01 -355.382)" fill="#fdb836"/><g transform="translate(17.955 10.594)" fill="#ffd800" stroke="#fdb836" stroke-width="1.5"><ellipse cx="7" cy="3.5" rx="7" ry="3.5" stroke="none"/><ellipse cx="7" cy="3.5" rx="6.25" ry="2.75" fill="none"/></g></g><g transform="translate(14.172 0)"><g transform="translate(0 0)"><path d="M435.207,160.168A10.85,10.85,0,0,1,437.6,181.6c-.618.139-.577.6-.649,1.243l-1.744,15.582-1.72-15.36c-.07-.624-.046-1.326-.635-1.456a10.85,10.85,0,0,1,2.355-21.441Z" transform="translate(-424.358 -160.168)" fill="#6222ee" stroke="#fff" stroke-width="2" fill-rule="evenodd"/><g transform="translate(1.564 1.944)"><path d="M464.363,174.021h9.3a8.911,8.911,0,0,0-9.3,0Z" transform="translate(-460.108 -172.712)" fill="#6222ee" fill-rule="evenodd"/><path d="M462.712,175.075h9.812a8.858,8.858,0,0,0-3.2-1.309h-3.406A8.857,8.857,0,0,0,462.712,175.075Z" transform="translate(-458.713 -173.603)" fill="#6222ee" fill-rule="evenodd"/><path d="M461.166,176.129h10.291a8.866,8.866,0,0,0-2.748-1.309h-4.794A8.869,8.869,0,0,0,461.166,176.129Z" transform="translate(-457.406 -174.493)" fill="#6222ee" fill-rule="evenodd"/><path d="M459.731,177.184h10.736a8.886,8.886,0,0,0-2.449-1.31H462.18A8.883,8.883,0,0,0,459.731,177.184Z" transform="translate(-456.194 -175.384)" fill="#6222ee" fill-rule="evenodd"/><path d="M458.382,178.239h11.154a8.9,8.9,0,0,0-2.224-1.309h-6.706A8.9,8.9,0,0,0,458.382,178.239Z" transform="translate(-455.054 -176.276)" fill="#6222ee" fill-rule="evenodd"/><path d="M457.107,179.293h11.549a8.924,8.924,0,0,0-2.045-1.31h-7.459A8.919,8.919,0,0,0,457.107,179.293Z" transform="translate(-453.976 -177.166)" fill="#6222ee" fill-rule="evenodd"/><path d="M455.9,180.347h11.922a8.917,8.917,0,0,0-1.9-1.31H457.8A8.918,8.918,0,0,0,455.9,180.347Z" transform="translate(-452.959 -178.057)" fill="#6222ee" fill-rule="evenodd"/><path d="M454.763,181.4h12.275a8.924,8.924,0,0,0-1.77-1.309h-8.736A8.92,8.92,0,0,0,454.763,181.4Z" transform="translate(-451.995 -178.948)" fill="#6222ee" fill-rule="evenodd"/><path d="M453.684,182.456h12.61a8.927,8.927,0,0,0-1.659-1.31h-9.292A8.934,8.934,0,0,0,453.684,182.456Z" transform="translate(-451.083 -179.839)" fill="#6222ee" fill-rule="evenodd"/><path d="M452.659,183.51h12.928a8.963,8.963,0,0,0-1.561-1.31h-9.8A8.965,8.965,0,0,0,452.659,183.51Z" transform="translate(-450.217 -180.73)" fill="#6222ee" fill-rule="evenodd"/><path d="M451.684,184.564h13.229a8.967,8.967,0,0,0-1.473-1.309H453.157A8.958,8.958,0,0,0,451.684,184.564Z" transform="translate(-449.393 -181.621)" fill="#6222ee" fill-rule="evenodd"/><path d="M450.757,185.619h13.517a8.957,8.957,0,0,0-1.394-1.309h-10.73A8.952,8.952,0,0,0,450.757,185.619Z" transform="translate(-448.61 -182.513)" fill="#6222ee" fill-rule="evenodd"/><path d="M449.874,186.673h13.791a8.964,8.964,0,0,0-1.321-1.31H451.2A8.96,8.96,0,0,0,449.874,186.673Z" transform="translate(-447.864 -183.403)" fill="#6222ee" fill-rule="evenodd"/><path d="M449.031,187.727h14.052a8.961,8.961,0,0,0-1.255-1.309H450.286A8.958,8.958,0,0,0,449.031,187.727Z" transform="translate(-447.152 -184.294)" fill="#6222ee" fill-rule="evenodd"/><path d="M448.226,188.782h14.3a8.956,8.956,0,0,0-1.192-1.309H449.418A8.934,8.934,0,0,0,448.226,188.782Z" transform="translate(-446.471 -185.186)" fill="#6222ee" fill-rule="evenodd"/><path d="M447.461,189.835H462a8.976,8.976,0,0,0-1.134-1.31H448.6A8.962,8.962,0,0,0,447.461,189.835Z" transform="translate(-445.825 -186.076)" fill="#6222ee" fill-rule="evenodd"/><path d="M446.729,190.89h14.765a8.957,8.957,0,0,0-1.08-1.31H447.809A8.954,8.954,0,0,0,446.729,190.89Z" transform="translate(-445.206 -186.967)" fill="#6222ee" fill-rule="evenodd"/><path d="M446.035,191.945h14.98a8.954,8.954,0,0,0-1.029-1.309H447.064A8.939,8.939,0,0,0,446.035,191.945Z" transform="translate(-444.62 -187.859)" fill="#6222ee" fill-rule="evenodd"/><path d="M445.373,193h15.186a8.947,8.947,0,0,0-.98-1.31H446.353A8.961,8.961,0,0,0,445.373,193Z" transform="translate(-444.06 -188.748)" fill="#6222ee" fill-rule="evenodd"/><path d="M444.741,194.053h15.381a8.953,8.953,0,0,0-.934-1.31H445.675A8.931,8.931,0,0,0,444.741,194.053Z" transform="translate(-443.526 -189.64)" fill="#6222ee" fill-rule="evenodd"/><path d="M444.14,195.108h15.568a8.9,8.9,0,0,0-.891-1.309H445.031A8.922,8.922,0,0,0,444.14,195.108Z" transform="translate(-443.018 -190.531)" fill="#6222ee" fill-rule="evenodd"/><path d="M443.566,196.163h15.746a8.9,8.9,0,0,0-.849-1.309H444.415A8.924,8.924,0,0,0,443.566,196.163Z" transform="translate(-442.533 -191.423)" fill="#6222ee" fill-rule="evenodd"/><path d="M443.02,197.217h15.915a8.91,8.91,0,0,0-.809-1.31h-14.3A8.916,8.916,0,0,0,443.02,197.217Z" transform="translate(-442.072 -192.313)" fill="#6222ee" fill-rule="evenodd"/><path d="M442.5,198.271h16.076a8.893,8.893,0,0,0-.77-1.309H443.271A8.894,8.894,0,0,0,442.5,198.271Z" transform="translate(-441.633 -193.204)" fill="#6222ee" fill-rule="evenodd"/><path d="M442.009,199.326h16.228a8.89,8.89,0,0,0-.733-1.31H442.742A8.9,8.9,0,0,0,442.009,199.326Z" transform="translate(-441.218 -194.095)" fill="#6222ee" fill-rule="evenodd"/><path d="M441.545,200.379h16.372a8.892,8.892,0,0,0-.7-1.309H442.242A8.889,8.889,0,0,0,441.545,200.379Z" transform="translate(-440.825 -194.986)" fill="#6222ee" fill-rule="evenodd"/><path d="M441.106,201.435h16.508a8.875,8.875,0,0,0-.663-1.31H441.769A8.855,8.855,0,0,0,441.106,201.435Z" transform="translate(-440.454 -195.877)" fill="#6222ee" fill-rule="evenodd"/><path d="M440.69,202.488h16.637a8.849,8.849,0,0,0-.629-1.309H441.319A8.875,8.875,0,0,0,440.69,202.488Z" transform="translate(-440.103 -196.768)" fill="#6222ee" fill-rule="evenodd"/><path d="M440.3,203.543h16.759a8.86,8.86,0,0,0-.6-1.31H440.894A8.863,8.863,0,0,0,440.3,203.543Z" transform="translate(-439.771 -197.659)" fill="#6222ee" fill-rule="evenodd"/><path d="M439.926,204.6H456.8a8.824,8.824,0,0,0-.565-1.309H440.491A8.854,8.854,0,0,0,439.926,204.6Z" transform="translate(-439.457 -198.55)" fill="#6222ee" fill-rule="evenodd"/><path d="M439.583,205.652h16.98a8.854,8.854,0,0,0-.534-1.31H440.117A8.867,8.867,0,0,0,439.583,205.652Z" transform="translate(-439.168 -199.441)" fill="#6222ee" fill-rule="evenodd"/><path d="M439.261,206.705h17.08a8.825,8.825,0,0,0-.5-1.31H439.764A8.851,8.851,0,0,0,439.261,206.705Z" transform="translate(-438.895 -200.331)" fill="#6222ee" fill-rule="evenodd"/><path d="M438.96,207.76h17.173a8.8,8.8,0,0,0-.474-1.309H439.434A8.8,8.8,0,0,0,438.96,207.76Z" transform="translate(-438.641 -201.223)" fill="#6222ee" fill-rule="evenodd"/><path d="M438.678,208.815h17.26a8.832,8.832,0,0,0-.445-1.309h-16.37A8.81,8.81,0,0,0,438.678,208.815Z" transform="translate(-438.403 -202.114)" fill="#6222ee" fill-rule="evenodd"/><path d="M438.421,209.869h17.34a8.822,8.822,0,0,0-.417-1.309H438.838A8.824,8.824,0,0,0,438.421,209.869Z" transform="translate(-438.186 -203.005)" fill="#6222ee" fill-rule="evenodd"/><path d="M438.185,210.923H455.6a8.874,8.874,0,0,0-.389-1.309H438.574A8.843,8.843,0,0,0,438.185,210.923Z" transform="translate(-437.986 -203.896)" fill="#6222ee" fill-rule="evenodd"/><path d="M437.97,211.978h17.48a8.841,8.841,0,0,0-.361-1.31H438.331A8.8,8.8,0,0,0,437.97,211.978Z" transform="translate(-437.804 -204.787)" fill="#6222ee" fill-rule="evenodd"/><path d="M437.772,213.032h17.541a8.845,8.845,0,0,0-.335-1.309H438.107A8.838,8.838,0,0,0,437.772,213.032Z" transform="translate(-437.637 -205.678)" fill="#6222ee" fill-rule="evenodd"/><path d="M437.6,214.086h17.6a8.87,8.87,0,0,0-.308-1.309H437.906A8.87,8.87,0,0,0,437.6,214.086Z" transform="translate(-437.49 -206.569)" fill="#6222ee" fill-rule="evenodd"/><path d="M437.445,215.141h17.643a8.844,8.844,0,0,0-.282-1.31H437.727A8.844,8.844,0,0,0,437.445,215.141Z" transform="translate(-437.361 -207.459)" fill="#6222ee" fill-rule="evenodd"/><path d="M437.309,216.2h17.685a8.854,8.854,0,0,0-.256-1.309H437.565A8.822,8.822,0,0,0,437.309,216.2Z" transform="translate(-437.246 -208.352)" fill="#6222ee" fill-rule="evenodd"/><path d="M437.191,217.25h17.721a8.844,8.844,0,0,0-.231-1.31H437.422A8.856,8.856,0,0,0,437.191,217.25Z" transform="translate(-437.146 -209.242)" fill="#6222ee" fill-rule="evenodd"/><path d="M437.1,218.3h17.75a8.889,8.889,0,0,0-.206-1.309H437.3A8.893,8.893,0,0,0,437.1,218.3Z" transform="translate(-437.068 -210.132)" fill="#6222ee" fill-rule="evenodd"/><path d="M437.022,219.358H454.8a8.951,8.951,0,0,0-.181-1.31H437.2A8.935,8.935,0,0,0,437.022,219.358Z" transform="translate(-437.004 -211.024)" fill="#6222ee" fill-rule="evenodd"/><path d="M436.964,220.413h17.792a8.906,8.906,0,0,0-.156-1.31H437.12A8.9,8.9,0,0,0,436.964,220.413Z" transform="translate(-436.954 -211.915)" fill="#6222ee" fill-rule="evenodd"/><path d="M436.925,221.467h17.8a8.946,8.946,0,0,0-.132-1.309h-17.54A8.948,8.948,0,0,0,436.925,221.467Z" transform="translate(-436.921 -212.806)" fill="#6222ee" fill-rule="evenodd"/><path d="M436.908,222.521h17.809a8.954,8.954,0,0,0-.107-1.31H437.015A8.975,8.975,0,0,0,436.908,222.521Z" transform="translate(-436.907 -213.697)" fill="#6222ee" fill-rule="evenodd"/><path d="M436.9,223.576h17.809c0-.028,0-.055,0-.083a8.983,8.983,0,0,0-.084-1.226H436.986a8.993,8.993,0,0,0-.084,1.226C436.9,223.521,436.9,223.549,436.9,223.576Z" transform="translate(-436.902 -214.588)" fill="#6222ee" fill-rule="evenodd"/><path d="M436.906,224.63h17.8c0-.082,0-.164,0-.246a9.014,9.014,0,0,0-.063-1.063H436.966a8.968,8.968,0,0,0-.064,1.063C436.9,224.467,436.9,224.549,436.906,224.63Z" transform="translate(-436.902 -215.479)" fill="#6222ee" fill-rule="evenodd"/><path d="M436.912,225.684H454.7c.006-.136.01-.272.01-.41q0-.456-.045-.9H436.947q-.044.444-.045.9C436.9,225.412,436.906,225.549,436.912,225.684Z" transform="translate(-436.902 -216.37)" fill="#6222ee" fill-rule="evenodd"/><path d="M436.921,226.739h17.773c.012-.19.019-.38.019-.573,0-.248-.011-.494-.031-.736h-17.75c-.02.243-.031.488-.031.736C436.9,226.359,436.909,226.55,436.921,226.739Z" transform="translate(-436.902 -217.261)" fill="#6222ee" fill-rule="evenodd"/><path d="M436.933,227.793h17.75c.02-.243.031-.489.031-.736,0-.193-.007-.384-.019-.573H436.921c-.012.19-.019.381-.019.573C436.9,227.3,436.913,227.55,436.933,227.793Z" transform="translate(-436.902 -218.151)" fill="#6222ee" fill-rule="evenodd"/><path d="M436.947,228.848h17.721q.044-.444.045-.9c0-.137,0-.274-.01-.41H436.912c-.006.136-.01.272-.01.41Q436.9,228.4,436.947,228.848Z" transform="translate(-436.902 -219.043)" fill="#6222ee" fill-rule="evenodd"/><path d="M436.966,229.9h17.684a8.963,8.963,0,0,0,.063-1.063c0-.082,0-.164,0-.246h-17.8c0,.082,0,.164,0,.246A8.97,8.97,0,0,0,436.966,229.9Z" transform="translate(-436.902 -219.934)" fill="#6222ee" fill-rule="evenodd"/><path d="M436.986,230.956h17.642a8.985,8.985,0,0,0,.084-1.227c0-.028,0-.055,0-.083H436.9c0,.028,0,.055,0,.083A8.995,8.995,0,0,0,436.986,230.956Z" transform="translate(-436.902 -220.824)" fill="#6222ee" fill-rule="evenodd"/><path d="M437.015,232.011H454.61a8.952,8.952,0,0,0,.107-1.309H436.908A8.952,8.952,0,0,0,437.015,232.011Z" transform="translate(-436.907 -221.716)" fill="#6222ee" fill-rule="evenodd"/><path d="M437.057,233.064H454.6a8.932,8.932,0,0,0,.132-1.309h-17.8A8.948,8.948,0,0,0,437.057,233.064Z" transform="translate(-436.921 -222.606)" fill="#6222ee" fill-rule="evenodd"/><path d="M437.12,234.12H454.6a8.934,8.934,0,0,0,.156-1.31H436.964A8.914,8.914,0,0,0,437.12,234.12Z" transform="translate(-436.954 -223.498)" fill="#6222ee" fill-rule="evenodd"/><path d="M437.2,235.174h17.412a8.972,8.972,0,0,0,.181-1.31H437.022A8.959,8.959,0,0,0,437.2,235.174Z" transform="translate(-437.004 -224.388)" fill="#6222ee" fill-rule="evenodd"/><path d="M437.3,236.228h17.339a8.855,8.855,0,0,0,.206-1.309H437.1A8.92,8.92,0,0,0,437.3,236.228Z" transform="translate(-437.068 -225.28)" fill="#6222ee" fill-rule="evenodd"/><path d="M437.422,237.282h17.259a8.842,8.842,0,0,0,.231-1.309H437.191A8.854,8.854,0,0,0,437.422,237.282Z" transform="translate(-437.146 -226.17)" fill="#6222ee" fill-rule="evenodd"/><path d="M437.565,238.336h17.172a8.877,8.877,0,0,0,.256-1.309H437.309A8.849,8.849,0,0,0,437.565,238.336Z" transform="translate(-437.246 -227.061)" fill="#6222ee" fill-rule="evenodd"/><path d="M437.727,239.391h17.078a8.889,8.889,0,0,0,.282-1.309H437.445A8.87,8.87,0,0,0,437.727,239.391Z" transform="translate(-437.361 -227.953)" fill="#6222ee" fill-rule="evenodd"/><path d="M437.906,240.445h16.978a8.853,8.853,0,0,0,.308-1.309H437.6A8.887,8.887,0,0,0,437.906,240.445Z" transform="translate(-437.49 -228.843)" fill="#6222ee" fill-rule="evenodd"/><path d="M438.107,241.5h16.872a8.852,8.852,0,0,0,.335-1.31H437.772A8.844,8.844,0,0,0,438.107,241.5Z" transform="translate(-437.637 -229.734)" fill="#6222ee" fill-rule="evenodd"/><path d="M438.331,242.554h16.757a8.831,8.831,0,0,0,.361-1.309H437.97A8.82,8.82,0,0,0,438.331,242.554Z" transform="translate(-437.804 -230.625)" fill="#6222ee" fill-rule="evenodd"/><path d="M438.574,243.608h16.635a8.874,8.874,0,0,0,.389-1.31H438.185A8.829,8.829,0,0,0,438.574,243.608Z" transform="translate(-437.986 -231.516)" fill="#6222ee" fill-rule="evenodd"/><path d="M438.838,244.664h16.506a8.832,8.832,0,0,0,.417-1.309h-17.34A8.829,8.829,0,0,0,438.838,244.664Z" transform="translate(-438.186 -232.409)" fill="#6222ee" fill-rule="evenodd"/><path d="M439.123,245.717h16.37a8.845,8.845,0,0,0,.445-1.309h-17.26A8.827,8.827,0,0,0,439.123,245.717Z" transform="translate(-438.403 -233.298)" fill="#6222ee" fill-rule="evenodd"/><path d="M439.434,246.772h16.226a8.842,8.842,0,0,0,.474-1.309H438.96A8.805,8.805,0,0,0,439.434,246.772Z" transform="translate(-438.641 -234.19)" fill="#6222ee" fill-rule="evenodd"/><path d="M439.764,247.827h16.073a8.866,8.866,0,0,0,.5-1.31h-17.08A8.852,8.852,0,0,0,439.764,247.827Z" transform="translate(-438.895 -235.081)" fill="#6222ee" fill-rule="evenodd"/><path d="M440.117,248.88h15.912a8.867,8.867,0,0,0,.534-1.309h-16.98A8.867,8.867,0,0,0,440.117,248.88Z" transform="translate(-439.168 -235.971)" fill="#6222ee" fill-rule="evenodd"/><path d="M440.491,249.935h15.743a8.837,8.837,0,0,0,.565-1.309H439.926A8.838,8.838,0,0,0,440.491,249.935Z" transform="translate(-439.457 -236.863)" fill="#6222ee" fill-rule="evenodd"/><path d="M440.894,250.989h15.565a8.869,8.869,0,0,0,.6-1.309H440.3A8.872,8.872,0,0,0,440.894,250.989Z" transform="translate(-439.771 -237.753)" fill="#6222ee" fill-rule="evenodd"/><path d="M441.319,252.043H456.7a8.88,8.88,0,0,0,.629-1.31H440.69A8.881,8.881,0,0,0,441.319,252.043Z" transform="translate(-440.103 -238.644)" fill="#6222ee" fill-rule="evenodd"/><path d="M441.769,253.1h15.183a8.9,8.9,0,0,0,.663-1.309H441.106A8.894,8.894,0,0,0,441.769,253.1Z" transform="translate(-440.454 -239.536)" fill="#6222ee" fill-rule="evenodd"/><path d="M442.242,254.152H457.22a8.887,8.887,0,0,0,.7-1.31H441.545A8.873,8.873,0,0,0,442.242,254.152Z" transform="translate(-440.825 -240.426)" fill="#6222ee" fill-rule="evenodd"/><path d="M442.742,255.206H457.5a8.888,8.888,0,0,0,.733-1.309H442.009A8.9,8.9,0,0,0,442.742,255.206Z" transform="translate(-441.218 -241.317)" fill="#6222ee" fill-rule="evenodd"/><path d="M443.271,256.261h14.535a8.874,8.874,0,0,0,.77-1.31H442.5A8.9,8.9,0,0,0,443.271,256.261Z" transform="translate(-441.633 -242.208)" fill="#6222ee" fill-rule="evenodd"/><path d="M443.828,257.315h14.3a8.9,8.9,0,0,0,.809-1.309H443.02A8.909,8.909,0,0,0,443.828,257.315Z" transform="translate(-442.072 -243.099)" fill="#6222ee" fill-rule="evenodd"/><path d="M444.415,258.369h14.048a8.921,8.921,0,0,0,.849-1.309H443.566A8.935,8.935,0,0,0,444.415,258.369Z" transform="translate(-442.533 -243.99)" fill="#6222ee" fill-rule="evenodd"/><path d="M445.03,259.424h13.787a8.91,8.91,0,0,0,.89-1.309H444.14A8.908,8.908,0,0,0,445.03,259.424Z" transform="translate(-443.018 -244.881)" fill="#6222ee" fill-rule="evenodd"/><path d="M445.675,260.478h13.513a8.951,8.951,0,0,0,.934-1.309H444.741A8.93,8.93,0,0,0,445.675,260.478Z" transform="translate(-443.526 -245.772)" fill="#6222ee" fill-rule="evenodd"/><path d="M446.352,261.533h13.225a8.955,8.955,0,0,0,.98-1.309H445.372A8.953,8.953,0,0,0,446.352,261.533Z" transform="translate(-444.059 -246.664)" fill="#6222ee" fill-rule="evenodd"/><path d="M447.063,262.587h12.923a8.943,8.943,0,0,0,1.029-1.31H446.034A8.948,8.948,0,0,0,447.063,262.587Z" transform="translate(-444.619 -247.554)" fill="#6222ee" fill-rule="evenodd"/><path d="M447.809,263.641h12.606a8.955,8.955,0,0,0,1.08-1.309H446.729A8.944,8.944,0,0,0,447.809,263.641Z" transform="translate(-445.206 -248.445)" fill="#6222ee" fill-rule="evenodd"/><path d="M448.594,264.7h12.271A8.949,8.949,0,0,0,462,263.387H447.46A8.947,8.947,0,0,0,448.594,264.7Z" transform="translate(-445.824 -249.336)" fill="#6222ee" fill-rule="evenodd"/><path d="M449.418,265.751h11.917a8.973,8.973,0,0,0,1.192-1.31h-14.3A8.957,8.957,0,0,0,449.418,265.751Z" transform="translate(-446.471 -250.227)" fill="#6222ee" fill-rule="evenodd"/><path d="M450.284,266.805h11.543a8.962,8.962,0,0,0,1.254-1.309H449.03A8.956,8.956,0,0,0,450.284,266.805Z" transform="translate(-447.151 -251.119)" fill="#6222ee" fill-rule="evenodd"/><path d="M451.194,267.859h11.148a8.965,8.965,0,0,0,1.321-1.309H449.873A8.959,8.959,0,0,0,451.194,267.859Z" transform="translate(-447.863 -252.009)" fill="#6222ee" fill-rule="evenodd"/><path d="M452.15,268.913h10.73a8.973,8.973,0,0,0,1.394-1.31H450.756A8.973,8.973,0,0,0,452.15,268.913Z" transform="translate(-448.609 -252.9)" fill="#6222ee" fill-rule="evenodd"/><path d="M453.157,269.967h10.284a8.971,8.971,0,0,0,1.473-1.31h-13.23A8.963,8.963,0,0,0,453.157,269.967Z" transform="translate(-449.393 -253.791)" fill="#6222ee" fill-rule="evenodd"/><path d="M454.219,271.022h9.806a8.972,8.972,0,0,0,1.561-1.309H452.658A8.966,8.966,0,0,0,454.219,271.022Z" transform="translate(-450.216 -254.682)" fill="#6222ee" fill-rule="evenodd"/><path d="M455.342,272.076h9.293a8.934,8.934,0,0,0,1.659-1.31h-12.61A8.927,8.927,0,0,0,455.342,272.076Z" transform="translate(-451.083 -255.573)" fill="#6222ee" fill-rule="evenodd"/><path d="M456.532,273.13h8.736a8.93,8.93,0,0,0,1.77-1.31H454.762A8.927,8.927,0,0,0,456.532,273.13Z" transform="translate(-451.994 -256.464)" fill="#6222ee" fill-rule="evenodd"/><path d="M457.8,274.185h8.132a8.927,8.927,0,0,0,1.9-1.309H455.9A8.93,8.93,0,0,0,457.8,274.185Z" transform="translate(-452.959 -257.355)" fill="#6222ee" fill-rule="evenodd"/><path d="M459.151,275.24h7.46a8.914,8.914,0,0,0,2.045-1.31H457.106A8.916,8.916,0,0,0,459.151,275.24Z" transform="translate(-453.975 -258.246)" fill="#6222ee" fill-rule="evenodd"/><path d="M460.6,276.294h6.707a8.9,8.9,0,0,0,2.223-1.31H458.381A8.9,8.9,0,0,0,460.6,276.294Z" transform="translate(-455.053 -259.137)" fill="#6222ee" fill-rule="evenodd"/><path d="M462.179,277.348h5.839a8.887,8.887,0,0,0,2.448-1.309H459.73A8.89,8.89,0,0,0,462.179,277.348Z" transform="translate(-456.193 -260.028)" fill="#6222ee" fill-rule="evenodd"/><path d="M463.914,278.4h4.8a8.871,8.871,0,0,0,2.748-1.309H461.166A8.871,8.871,0,0,0,463.914,278.4Z" transform="translate(-457.406 -260.919)" fill="#6222ee" fill-rule="evenodd"/><path d="M465.914,279.457h3.407a8.854,8.854,0,0,0,3.2-1.31h-9.812A8.857,8.857,0,0,0,465.914,279.457Z" transform="translate(-458.712 -261.809)" fill="#6222ee" fill-rule="evenodd"/><path d="M469,280.511h.019a8.861,8.861,0,0,0,4.641-1.309h-9.3A8.861,8.861,0,0,0,469,280.511Z" transform="translate(-460.107 -262.701)" fill="#6222ee" fill-rule="evenodd"/></g><path d="M16.639,8a8.639,8.639,0,1,0,8.639,8.639A8.637,8.637,0,0,0,16.639,8Zm4.03,9.475-6.131,3.518a.838.838,0,0,1-1.244-.732V13.016a.838.838,0,0,1,1.244-.732l6.131,3.727A.839.839,0,0,1,20.669,17.475Z" transform="translate(-5.733 -5.841)" fill="#ffd800"/></g></g></g></svg>