<svg xmlns="http://www.w3.org/2000/svg" width="140" height="63.789" viewBox="0 0 140 63.789"><g transform="translate(-55 -382.395)"><g transform="translate(55 382.395)"><path d="M0,0H140V63.789H0Z" fill="#c8102e"/><path d="M28.113,21.625H21.625a2.163,2.163,0,0,1,0-4.325h6.488S34.6,10.069,34.6,6.488a6.488,6.488,0,1,0-12.975,0c0,1.723,1.5,4.284,3.061,6.488H21.625a6.488,6.488,0,0,0,0,12.975h6.488a2.163,2.163,0,1,1,0,4.325H12.536a46.657,46.657,0,0,1-3.2,4.325H28.113a6.488,6.488,0,0,0,0-12.975Zm0-17.3A2.163,2.163,0,1,1,25.95,6.488,2.16,2.16,0,0,1,28.113,4.325ZM6.488,17.3A6.489,6.489,0,0,0,0,23.788C0,27.369,6.488,34.6,6.488,34.6s6.488-7.231,6.488-10.813A6.489,6.489,0,0,0,6.488,17.3Zm0,8.65A2.163,2.163,0,1,1,8.65,23.788,2.16,2.16,0,0,1,6.488,25.95Z" transform="translate(53.188 14.635)" fill="#fff"/></g></g></svg>